<svg width="115" height="36" viewBox="0 0 115 36" fill="none" xmlns="http://www.w3.org/2000/svg">
<path d="M46.0466 0.597656L40.2021 35.4755H49.5495L55.3988 0.597656H46.0466Z" fill="#4380F4"/>
<path d="M32.3648 0.638194L23.2098 24.4239L22.2338 20.8324C20.4283 16.5051 15.3026 10.2903 9.28503 6.37374L17.6563 35.4598L27.5469 35.4427L42.2675 0.630859L32.3648 0.638194Z" fill="#4380F4"/>
<path d="M18.685 3.13384C18.1417 1.00929 16.567 0.376082 14.6124 0.300293H0.120207L0 0.994623C11.2778 3.77683 18.7403 10.4805 21.8369 18.5411L18.685 3.13384Z" fill="#4380F4"/>
<path d="M74.3434 7.28557C77.4014 7.23667 79.618 7.91633 81.3394 8.62044L82.1833 9.02384L83.4478 1.46445C81.5967 0.757892 78.6949 0 75.0742 0C65.8375 0 59.3271 4.73073 59.2766 11.5102C59.2165 16.5197 63.9142 19.3165 67.4627 20.9864C71.105 22.6977 72.3263 23.7857 72.3094 25.3137C72.2806 27.6485 69.4052 28.7193 66.7198 28.7193C62.9766 28.7193 60.9883 28.1937 57.9182 26.893L56.7138 26.3356L55.3987 34.1419C57.5865 35.1174 61.623 35.956 65.8134 36C75.6392 36 82.0246 31.3255 82.0919 24.0815C82.1328 20.1184 79.6397 17.0942 74.2376 14.6127C70.9679 12.9942 68.9677 11.9185 68.9869 10.2854C68.9869 8.83558 70.6842 7.28557 74.3434 7.28557Z" fill="#4380F4"/>
<path d="M107.437 0.637695H100.215C97.9715 0.637695 96.3031 1.25868 95.3174 3.53236L81.4382 35.496H91.2544C91.2544 35.496 92.8555 31.198 93.2185 30.2567C94.2932 30.2567 103.83 30.2714 105.189 30.2714C105.468 31.4889 106.328 35.496 106.328 35.496H115L107.437 0.637695ZM95.9088 23.1178C96.6781 21.1155 99.6328 13.3703 99.6328 13.3703C99.5823 13.4657 100.395 11.3533 100.878 10.0405L101.508 13.0476C101.508 13.0476 103.299 21.3747 103.674 23.1178H95.9088Z" fill="#4380F4"/>
</svg>
