<svg width="14" height="19" viewBox="0 0 14 19" fill="none" xmlns="http://www.w3.org/2000/svg">
<path d="M13.2578 3.69531C13.5859 4.02344 13.75 4.42188 13.75 4.89062V16.5625C13.75 17.0312 13.5859 17.4297 13.2578 17.7578C12.9297 18.0859 12.5312 18.25 12.0625 18.25H1.9375C1.46875 18.25 1.07031 18.0859 0.742188 17.7578C0.414062 17.4297 0.25 17.0312 0.25 16.5625V1.9375C0.25 1.46875 0.414062 1.07031 0.742188 0.742188C1.07031 0.414063 1.46875 0.25 1.9375 0.25H9.10938C9.57812 0.25 9.97656 0.414063 10.3047 0.742188L13.2578 3.69531ZM11.9219 4.75L9.25 2.07812V4.75H11.9219ZM1.9375 16.5625H12.0625V6.4375H8.40625C8.17188 6.4375 7.97266 6.35547 7.80859 6.19141C7.64453 6.02734 7.5625 5.82812 7.5625 5.59375V1.9375H1.9375V16.5625ZM3.0625 14.875V12.625L4.46875 11.2188C4.65625 11.0312 4.84375 11.0312 5.03125 11.2188L6.4375 12.625L9.53125 9.53125C9.71875 9.34375 9.90625 9.34375 10.0938 9.53125L10.9375 10.375V14.875H3.0625ZM3.55469 6.92969C3.88281 6.60156 4.28125 6.4375 4.75 6.4375C5.21875 6.4375 5.61719 6.60156 5.94531 6.92969C6.27344 7.25781 6.4375 7.65625 6.4375 8.125C6.4375 8.59375 6.27344 8.99219 5.94531 9.32031C5.61719 9.64844 5.21875 9.8125 4.75 9.8125C4.28125 9.8125 3.88281 9.64844 3.55469 9.32031C3.22656 8.99219 3.0625 8.59375 3.0625 8.125C3.0625 7.65625 3.22656 7.25781 3.55469 6.92969Z" fill="#5077F7"/>
</svg>
