<svg width="24" height="24" viewBox="0 0 24 24" fill="none" xmlns="http://www.w3.org/2000/svg">
<path d="M6.15112 10.1646C6.27454 10.1646 6.39539 10.1144 6.48254 10.0272C6.5697 9.93989 6.61987 9.81904 6.61987 9.6958C6.61987 9.57239 6.5697 9.45154 6.48254 9.36438C6.39539 9.27722 6.27454 9.22705 6.15112 9.22705C6.02734 9.22705 5.90704 9.27722 5.8197 9.36438C5.73254 9.45154 5.68237 9.57239 5.68237 9.6958C5.68237 9.81904 5.73254 9.93989 5.8197 10.0272C5.90704 10.1144 6.02789 10.1646 6.15112 10.1646Z" fill="#5289F4"/>
<path d="M12.8657 9.54358C12.7782 9.45642 12.6577 9.40625 12.5339 9.40625C12.4107 9.40625 12.2897 9.45642 12.2025 9.54358C12.1154 9.63074 12.0652 9.75177 12.0652 9.875C12.0652 9.99823 12.1154 10.1193 12.2025 10.2064C12.2897 10.2936 12.4107 10.3438 12.5339 10.3438C12.6577 10.3438 12.7782 10.2936 12.8657 10.2064C12.9529 10.1193 13.0027 9.99878 13.0027 9.875C13.0027 9.75177 12.9529 9.63074 12.8657 9.54358Z" fill="#5289F4"/>
<path d="M14.1749 8.70313C14.2983 8.70313 14.4192 8.65296 14.5063 8.5658C14.5935 8.47864 14.6433 8.35761 14.6433 8.23438C14.6433 8.11115 14.5935 7.99011 14.5063 7.90296C14.4192 7.8158 14.2983 7.76562 14.1749 7.76562C14.0513 7.76562 13.9303 7.8158 13.8431 7.90296C13.756 7.99011 13.7058 8.11115 13.7058 8.23438C13.7058 8.35761 13.756 8.47864 13.8431 8.5658C13.9303 8.65296 14.0513 8.70313 14.1749 8.70313Z" fill="#5289F4"/>
<path d="M22.5938 11.5312H21.2858L23.5882 9.22877C23.8537 8.96308 24 8.60987 24 8.23432C24 7.85876 23.8537 7.50555 23.5882 7.24005L21.4999 5.15171C21.317 4.96879 21.0201 4.96879 20.837 5.15171C20.5715 5.4174 20.2183 5.5637 19.8428 5.5637C19.467 5.5637 19.114 5.4174 18.8483 5.15171C18.5826 4.88621 18.4365 4.53299 18.4365 4.15744C18.4365 3.78171 18.5828 3.42868 18.8483 3.16299C18.9362 3.0751 18.9857 2.95589 18.9857 2.83156C18.9857 2.70724 18.9362 2.58803 18.8483 2.50014L16.7602 0.41199C16.4945 0.146302 16.1415 0 15.7657 0C15.3902 0 15.037 0.146302 14.7715 0.41199L7.02942 8.15393C6.84631 8.33686 6.84631 8.63367 7.02942 8.81678C7.21252 8.99989 7.50934 8.99989 7.69244 8.81678L15.4343 1.07484C15.5229 0.986214 15.6405 0.937507 15.7657 0.937507C15.891 0.937507 16.0087 0.986214 16.0972 1.07484L17.887 2.86452C17.6345 3.24465 17.499 3.6907 17.499 4.15744C17.499 4.78348 17.7427 5.37199 18.1855 5.81474C18.6282 6.25731 19.2167 6.50121 19.8428 6.50121C20.3095 6.50121 20.7554 6.36571 21.1357 6.11321L22.9254 7.90289C23.1081 8.08563 23.1081 8.383 22.9254 8.56574L19.96 11.5312H17.905L19.4451 9.99104C19.628 9.80794 19.628 9.51112 19.4451 9.3282L14.6721 4.55515C14.489 4.37204 14.1921 4.37204 14.009 4.55515L7.03308 11.5312H1.40625C0.630798 11.5312 0 12.162 0 12.9374V15.8906C0 16.1493 0.209839 16.3593 0.46875 16.3593C1.2442 16.3593 1.875 16.9901 1.875 17.7656C1.875 18.5409 1.2442 19.1718 0.46875 19.1718C0.209839 19.1718 0 19.3817 0 19.6406V22.5937C0 23.369 0.630798 24 1.40625 24H22.5938C23.3692 24 24 23.369 24 22.5937V19.6406C24 19.3817 23.7902 19.1718 23.5312 19.1718C22.7558 19.1718 22.125 18.5409 22.125 17.7656C22.125 16.9901 22.7558 16.3593 23.5312 16.3593C23.7902 16.3593 24 16.1493 24 15.8906V12.9374C24 12.162 23.3692 11.5312 22.5938 11.5312ZM14.3405 5.54942L18.4506 9.65962L16.5791 11.5312H14.723L16.0972 10.1568C16.2803 9.97383 16.2803 9.67701 16.0972 9.49391C15.9142 9.3108 15.6174 9.3108 15.4343 9.49391L13.3971 11.531H8.35895L14.3405 5.54942ZM23.0625 15.4689C21.9941 15.6866 21.1875 16.6336 21.1875 17.7656C21.1875 18.8974 21.9941 19.8444 23.0625 20.0623V22.5937C23.0625 22.8521 22.8523 23.0625 22.5938 23.0625H1.40625C1.14771 23.0625 0.9375 22.8521 0.9375 22.5937V20.0623C2.00592 19.8444 2.8125 18.8974 2.8125 17.7656C2.8125 16.6336 2.00592 15.6868 0.9375 15.4689V12.9374C0.9375 12.6789 1.14771 12.4687 1.40625 12.4687H22.5938C22.8523 12.4687 23.0625 12.6789 23.0625 12.9374V15.4689Z" fill="#5289F4"/>
<path d="M10.0111 16.9721C10.0983 16.8847 10.1484 16.7639 10.1484 16.6406C10.1484 16.5172 10.0983 16.3964 10.0111 16.3092C9.92395 16.222 9.80292 16.1719 9.67969 16.1719C9.55646 16.1719 9.43542 16.222 9.34827 16.3092C9.26111 16.3964 9.21094 16.5172 9.21094 16.6406C9.21094 16.7639 9.26111 16.8847 9.34827 16.9721C9.43542 17.0592 9.55646 17.1094 9.67969 17.1094C9.80292 17.1094 9.92395 17.0592 10.0111 16.9721Z" fill="#5289F4"/>
<path d="M14.6517 16.9721C14.7389 16.8847 14.7891 16.7639 14.7891 16.6406C14.7891 16.5172 14.7389 16.3964 14.6517 16.3092C14.5646 16.222 14.4435 16.1719 14.3203 16.1719C14.1971 16.1719 14.076 16.222 13.9889 16.3092C13.9017 16.3964 13.8516 16.5172 13.8516 16.6406C13.8516 16.7639 13.9017 16.8847 13.9889 16.9721C14.076 17.0592 14.1971 17.1094 14.3203 17.1094C14.4435 17.1094 14.5646 17.0592 14.6517 16.9721Z" fill="#5289F4"/>
<path d="M12.3314 16.9721C12.4186 16.8847 12.4688 16.7639 12.4688 16.6406C12.4688 16.5172 12.4186 16.3964 12.3314 16.3092C12.2443 16.222 12.1232 16.1719 12 16.1719C11.8768 16.1719 11.7557 16.222 11.6686 16.3092C11.5814 16.3964 11.5312 16.5172 11.5312 16.6406C11.5312 16.7639 11.5814 16.8847 11.6686 16.9721C11.7557 17.0592 11.8768 17.1094 12 17.1094C12.1232 17.1094 12.2443 17.0592 12.3314 16.9721Z" fill="#5289F4"/>
<path d="M7.35938 17.1094C7.4826 17.1094 7.60364 17.0592 7.6908 16.9721C7.77795 16.8847 7.82812 16.7639 7.82812 16.6406C7.82812 16.5172 7.77795 16.3964 7.6908 16.3092C7.60364 16.222 7.4826 16.1719 7.35938 16.1719C7.23615 16.1719 7.11511 16.222 7.02795 16.3092C6.9408 16.3964 6.89062 16.5172 6.89062 16.6406C6.89062 16.7639 6.9408 16.8847 7.02795 16.9721C7.11511 17.0592 7.23615 17.1094 7.35938 17.1094Z" fill="#5289F4"/>
<path d="M16.972 16.9721C17.0592 16.8847 17.1094 16.7639 17.1094 16.6406C17.1094 16.5172 17.0592 16.3964 16.972 16.3092C16.8849 16.222 16.7639 16.1719 16.6406 16.1719C16.5174 16.1719 16.3964 16.222 16.3092 16.3092C16.222 16.3964 16.1719 16.5172 16.1719 16.6406C16.1719 16.7639 16.222 16.8847 16.3092 16.9721C16.3964 17.0592 16.5174 17.1094 16.6406 17.1094C16.7639 17.1094 16.8849 17.0592 16.972 16.9721Z" fill="#5289F4"/>
<path d="M7.35938 19.3594H16.6406C16.8995 19.3594 17.1094 19.1494 17.1094 18.8906C17.1094 18.6317 16.8995 18.4219 16.6406 18.4219H7.35938C7.10046 18.4219 6.89062 18.6317 6.89062 18.8906C6.89062 19.1494 7.10046 19.3594 7.35938 19.3594Z" fill="#5289F4"/>
<path d="M9.0625 20.6719C8.93927 20.6719 8.81824 20.722 8.73108 20.8092C8.64392 20.8964 8.59375 21.0172 8.59375 21.1406C8.59375 21.2639 8.64392 21.3847 8.73108 21.4721C8.81824 21.5592 8.93927 21.6094 9.0625 21.6094C9.18628 21.6094 9.30676 21.5592 9.39392 21.4721C9.48163 21.3847 9.53125 21.2639 9.53125 21.1406C9.53125 21.0172 9.48163 20.8964 9.39392 20.8092C9.30676 20.722 9.18628 20.6719 9.0625 20.6719Z" fill="#5289F4"/>
<path d="M19.125 13.9219H4.875C4.61609 13.9219 4.40625 14.1317 4.40625 14.3906V21.1407C4.40625 21.3994 4.61609 21.6094 4.875 21.6094H6.82764C7.08655 21.6094 7.29639 21.3994 7.29639 21.1407C7.29639 20.8818 7.08655 20.6719 6.82764 20.6719H5.34375V14.8594H18.6562V20.6719H11.0464C10.7875 20.6719 10.5776 20.8818 10.5776 21.1407C10.5776 21.3994 10.7875 21.6094 11.0464 21.6094H19.125C19.3839 21.6094 19.5938 21.3994 19.5938 21.1407V14.3906C19.5938 14.1317 19.3839 13.9219 19.125 13.9219Z" fill="#5289F4"/>
</svg>
