<svg width="14" height="19" viewBox="0 0 14 19" fill="none" xmlns="http://www.w3.org/2000/svg">
<path d="M7 3.0625C7.16406 3.0625 7.29297 3.12109 7.38672 3.23828C7.50391 3.33203 7.5625 3.46094 7.5625 3.625C7.5625 3.78906 7.50391 3.92969 7.38672 4.04688C7.29297 4.14062 7.16406 4.1875 7 4.1875C6.39062 4.1875 5.86328 4.41016 5.41797 4.85547C4.97266 5.30078 4.75 5.82812 4.75 6.4375C4.75 6.60156 4.69141 6.74219 4.57422 6.85938C4.48047 6.95312 4.35156 7 4.1875 7C4.02344 7 3.88281 6.95312 3.76562 6.85938C3.67188 6.74219 3.625 6.60156 3.625 6.4375C3.625 5.5 3.95312 4.70312 4.60938 4.04688C5.26562 3.39062 6.0625 3.0625 7 3.0625ZM4.1875 16.3867V14.875H9.8125V16.3867C9.8125 16.5039 9.77734 16.6094 9.70703 16.7031L8.86328 18.0039C8.74609 18.168 8.58203 18.25 8.37109 18.25H5.62891C5.41797 18.25 5.25391 18.168 5.13672 18.0039L4.29297 16.7031C4.22266 16.6094 4.1875 16.5039 4.1875 16.3867ZM7 0.25C8.71094 0.25 10.1641 0.859375 11.3594 2.07812C12.5781 3.27344 13.1875 4.72656 13.1875 6.4375C13.1875 7.98438 12.6719 9.34375 11.6406 10.5156C11.3125 10.8906 10.9609 11.3945 10.5859 12.0273C10.2344 12.6367 9.97656 13.2109 9.8125 13.75H8.125C8.125 13.5859 8.14844 13.4219 8.19531 13.2578C8.64062 11.8281 9.36719 10.5391 10.375 9.39062C11.125 8.54688 11.5 7.5625 11.5 6.4375C11.5 5.19531 11.0547 4.14062 10.1641 3.27344C9.29688 2.38281 8.24219 1.9375 7 1.9375C5.78125 1.9375 4.72656 2.37109 3.83594 3.23828C2.94531 4.10547 2.5 5.17188 2.5 6.4375C2.5 7.5625 2.875 8.54688 3.625 9.39062C4.63281 10.5391 5.35938 11.8281 5.80469 13.2578C5.85156 13.4219 5.875 13.5859 5.875 13.75H4.1875C4.07031 13.375 3.89453 12.9766 3.66016 12.5547C3.44922 12.1094 3.22656 11.7227 2.99219 11.3945C2.75781 11.043 2.54688 10.75 2.35938 10.5156C1.32812 9.34375 0.8125 7.98438 0.8125 6.4375C0.8125 4.77344 1.39844 3.33203 2.57031 2.11328C3.76562 0.871094 5.24219 0.25 7 0.25Z" fill="#5077F7"/>
</svg>
