<svg width="25" height="24" viewBox="0 0 25 24" fill="none" xmlns="http://www.w3.org/2000/svg">
<path d="M20.8107 5.54599H7.08574L18.5309 0.991577C18.7948 0.886777 18.9231 0.587947 18.8185 0.32405C18.7137 0.0601523 18.4149 -0.0681891 18.151 0.0364205L4.31823 5.54599H3.92808C2.11554 5.54599 0 6.57291 0 9.47407V20.0719C0 22.9731 2.11554 24 3.92808 24H20.8107C22.6232 24 24.7388 22.9731 24.7388 20.0719V9.4792C24.7439 6.57803 22.6386 5.54599 20.8107 5.54599ZM23.717 20.0719C23.717 22.6906 21.6631 22.9731 20.8158 22.9731H3.92808C3.05513 22.9731 1.02692 22.6906 1.02692 20.0719V9.4792C1.02692 6.86054 3.08076 6.57803 3.92808 6.57803H20.8107C21.6836 6.57803 23.7118 6.86054 23.7118 9.4792L23.717 20.0719Z" fill="#5289F4"/>
<path d="M5.08338 12.1851H19.6554C19.9389 12.1851 20.169 11.955 20.169 11.6715V8.70887C20.169 8.42542 19.9389 8.19531 19.6554 8.19531H5.08338C4.79993 8.19531 4.56982 8.42542 4.56982 8.70887V11.6715C4.56982 11.955 4.79993 12.1851 5.08338 12.1851ZM19.1421 11.158H15.5119V9.22223H19.1421V11.158ZM5.59675 9.22223H14.485V11.158H5.59675V9.22223Z" fill="#5289F4"/>
<path d="M18.3152 13.9258C16.211 13.9258 14.5054 15.6314 14.5054 17.7356C14.5054 19.8399 16.211 21.5456 18.3152 21.5456C20.4195 21.5456 22.1252 19.8399 22.1252 17.7356C22.1252 15.6314 20.4193 13.9258 18.3152 13.9258ZM18.3152 20.5187C16.7785 20.5187 15.5323 19.2725 15.5323 17.7356C15.5323 16.1989 16.7785 14.9527 18.3152 14.9527C19.852 14.9527 21.0982 16.1989 21.0982 17.7356C21.0952 19.2715 19.8509 20.5156 18.3152 20.5187Z" fill="#F6C358"/>
<path d="M10.9162 17.4839C9.83025 17.4839 8.94971 18.3646 8.94971 19.4504C8.94971 20.5366 9.83025 21.4171 10.9162 21.4171C12.0022 21.4171 12.8829 20.5364 12.8829 19.4504C12.8829 18.3641 12.0022 17.4839 10.9162 17.4839ZM10.9162 20.385C10.3972 20.385 9.97663 19.9645 9.97663 19.4455C9.97663 18.9262 10.3972 18.5057 10.9162 18.5057C11.4355 18.5057 11.8558 18.9262 11.8558 19.4455C11.8558 19.964 11.4355 20.385 10.9162 20.385Z" fill="#F6C358"/>
<path d="M5.82247 17.4839C4.7365 17.4839 3.85596 18.3646 3.85596 19.4504C3.85596 20.5366 4.7365 21.4171 5.82247 21.4171C6.90843 21.4171 7.78898 20.5364 7.78898 19.4504C7.78917 18.3641 6.90843 17.4839 5.82247 17.4839ZM5.82247 20.385C5.30341 20.385 4.88288 19.9645 4.88288 19.4455C4.88288 18.9262 5.30341 18.5057 5.82247 18.5057C6.34153 18.5057 6.76205 18.9262 6.76205 19.4455C6.76205 19.9645 6.34153 20.385 5.82247 20.385Z" fill="#F6C358"/>
</svg>
