<svg width="30" height="24" viewBox="0 0 30 24" fill="none" xmlns="http://www.w3.org/2000/svg">
<path d="M28.8685 0H0.491878C0.222761 0 0 0.195533 0 0.464711V14.3377C0 14.6071 0.222761 14.802 0.491878 14.802H6.82234V23.5353C6.82234 23.8045 7.05588 24 7.325 24H22.0357C22.3048 24 22.5383 23.8045 22.5383 23.5353V14.802H28.8685C29.1376 14.802 29.3604 14.6071 29.3604 14.3377V0.464711C29.3604 0.195533 29.1376 0 28.8685 0ZM6.82234 9.3198H4.14213V5.48223H6.82234V9.3198ZM10.1117 23.0254H7.79695V20.7716H8.1868C9.2576 20.7716 10.1117 21.6639 10.1117 22.7348V23.0254ZM21.5635 23.0254H19.1269V22.7071C19.1269 21.6365 20.0261 20.7716 21.0969 20.7716H21.5635V23.0254ZM21.5635 19.797H21.0969C19.4887 19.797 18.1523 21.0989 18.1523 22.7071V23.0254H11.0863V22.7348C11.0863 21.1266 9.79492 19.797 8.1868 19.797H7.79695V5.48223H21.5635V19.797ZM28.3858 13.8274H22.5381V10.2944H25.7156C25.9847 10.2944 26.1929 10.0526 26.1929 9.78347V5.01929C26.1929 4.75017 25.9847 4.50761 25.7156 4.50761H3.64483C3.37572 4.50761 3.16751 4.74987 3.16751 5.01929V9.78378C3.16751 10.0526 3.37572 10.2944 3.64483 10.2944H6.82234V13.8274H0.974619V0.974619H28.3858V13.8274ZM22.5381 9.3198V5.48223H25.2183V9.3198H22.5381Z" fill="#5077F7"/>
<path d="M14.6803 16.6901C15.696 16.6901 16.6889 16.3889 17.5334 15.8246C18.3779 15.2603 19.0361 14.4582 19.4247 13.5199C19.8134 12.5815 19.9151 11.5489 19.7169 10.5528C19.5187 9.5566 19.0296 8.64158 18.3113 7.92341C17.5931 7.20524 16.6781 6.71618 15.6819 6.51807C14.6857 6.31996 13.6532 6.4217 12.7148 6.81043C11.7765 7.19916 10.9745 7.85742 10.4102 8.70196C9.84599 9.5465 9.54486 10.5394 9.54492 11.5551C9.54653 12.9165 10.0881 14.2218 11.0508 15.1844C12.0136 16.1471 13.3189 16.6886 14.6803 16.6901ZM14.6803 7.39406C15.5032 7.39407 16.3076 7.6381 16.9919 8.09529C17.6761 8.55248 18.2094 9.2023 18.5243 9.96257C18.8392 10.7228 18.9216 11.5594 18.761 12.3665C18.6005 13.1736 18.2042 13.915 17.6223 14.4969C17.0404 15.0787 16.299 15.475 15.4919 15.6355C14.6848 15.7961 13.8483 15.7137 13.088 15.3988C12.3277 15.0838 11.6779 14.5506 11.2207 13.8663C10.7636 13.1821 10.5195 12.3777 10.5195 11.5548C10.5208 10.4517 10.9596 9.39408 11.7396 8.61407C12.5196 7.83405 13.5772 7.3953 14.6803 7.39406Z" fill="#F6C358"/>
<path d="M14.7504 13.7112C14.704 13.7038 14.6567 13.7038 14.6103 13.7112C14.4099 13.6936 14.2235 13.6015 14.0875 13.4533C13.9516 13.3051 13.8761 13.1113 13.8758 12.9102C13.8758 12.781 13.8245 12.657 13.7331 12.5656C13.6417 12.4742 13.5177 12.4229 13.3885 12.4229C13.2592 12.4229 13.1353 12.4742 13.0439 12.5656C12.9525 12.657 12.9012 12.781 12.9012 12.9102C12.9017 13.2969 13.028 13.673 13.2611 13.9816C13.4941 14.2902 13.8212 14.5146 14.193 14.621V14.9848C14.193 15.1141 14.2444 15.238 14.3358 15.3294C14.4271 15.4208 14.5511 15.4721 14.6803 15.4721C14.8096 15.4721 14.9335 15.4208 15.0249 15.3294C15.1163 15.238 15.1677 15.1141 15.1677 14.9848V14.621C15.5809 14.5038 15.9377 14.2411 16.1724 13.8814C16.407 13.5216 16.5035 13.0891 16.4441 12.6638C16.3847 12.2384 16.1734 11.8489 15.8492 11.5671C15.525 11.2854 15.1098 11.1305 14.6803 11.131C14.5212 11.1311 14.3656 11.0839 14.2333 10.9955C14.101 10.9071 13.9978 10.7814 13.9369 10.6344C13.876 10.4874 13.8601 10.3256 13.8911 10.1695C13.9222 10.0134 13.9988 9.87005 14.1113 9.75752C14.2238 9.64498 14.3672 9.56834 14.5233 9.53729C14.6794 9.50624 14.8411 9.52217 14.9882 9.58307C15.1352 9.64397 15.2609 9.7471 15.3493 9.87942C15.4377 10.0117 15.4849 10.1673 15.4849 10.3264C15.4849 10.4557 15.5362 10.5796 15.6276 10.671C15.719 10.7624 15.843 10.8137 15.9722 10.8137C16.1014 10.8137 16.2254 10.7624 16.3168 10.671C16.4082 10.5796 16.4595 10.4557 16.4595 10.3264C16.459 9.93972 16.3326 9.56368 16.0996 9.25507C15.8666 8.94646 15.5395 8.72204 15.1677 8.61568V8.34522C15.1677 8.21598 15.1163 8.09203 15.0249 8.00064C14.9335 7.90925 14.8096 7.85791 14.6803 7.85791C14.5511 7.85791 14.4271 7.90925 14.3358 8.00064C14.2444 8.09203 14.193 8.21598 14.193 8.34522V8.61568C13.7802 8.7332 13.4238 8.99603 13.1895 9.35568C12.9552 9.71534 12.8589 10.1476 12.9182 10.5727C12.9776 10.9978 13.1886 11.3871 13.5125 11.6689C13.8363 11.9506 14.2511 12.1057 14.6803 12.1057C14.8886 12.104 15.0894 12.1833 15.2404 12.3267C15.3914 12.4702 15.4808 12.6666 15.4899 12.8747C15.499 13.0827 15.427 13.2862 15.289 13.4422C15.1511 13.5983 14.958 13.6947 14.7504 13.7112Z" fill="#F6C358"/>
</svg>
