<svg width="40" height="40" viewBox="0 0 40 40" fill="none" xmlns="http://www.w3.org/2000/svg">
<path d="M38.1753 24.8979L39.3197 23.7537C40.04 23.0332 40.04 21.8609 39.3197 21.1404C38.9706 20.7915 38.5068 20.5992 38.013 20.5992C37.6425 20.5992 37.2885 20.7076 36.9876 20.9093L36.7465 20.0999L37.9852 18.8608C38.7057 18.1403 38.7057 16.968 37.9852 16.2478C37.3221 15.5843 36.2765 15.5333 35.5523 16.0915L34.0844 11.1632C34.6707 10.5986 35.2322 10.0492 35.7614 9.52003C37.2863 7.99466 38.5263 6.38048 39.2529 4.97413C40.4806 2.59727 39.9667 1.32674 39.3194 0.679417C38.6725 0.0320968 37.402 -0.481548 35.025 0.746255C33.619 1.47262 32.0047 2.71263 30.4797 4.238C29.9505 4.76721 29.4009 5.32847 28.8366 5.91475L23.9083 4.44675C24.4665 3.72283 24.4155 2.67723 23.7524 2.01373C23.0318 1.29347 21.8597 1.29317 21.1394 2.01373L19.9004 3.25283L19.0908 3.01172C19.2925 2.7105 19.4008 2.35647 19.4008 1.98596C19.4008 1.49246 19.2086 1.02826 18.8598 0.679417C18.1395 -0.0411502 16.9671 -0.0411502 16.2468 0.679417L15.1027 1.8236L9.2711 0.0864217C9.06327 0.0247721 8.83866 0.0815386 8.68577 0.234747L7.1846 1.73601C6.93253 1.98779 6.96579 2.41842 7.25327 2.6287L21.9671 13.3994C18.6495 17.1402 15.4537 20.8855 13.1975 23.5615L8.86949 21.8966C8.6519 21.813 8.40562 21.8652 8.24082 22.03L6.46164 23.8093C6.23154 24.0397 6.23154 24.413 6.46164 24.6431L15.3572 33.5392C15.5843 33.7666 15.9639 33.7666 16.1913 33.5392L17.9702 31.7603C18.135 31.5955 18.1875 31.3489 18.1035 31.1312L16.4391 26.8033C19.1149 24.547 22.8597 21.3509 26.6006 18.0329L27.7694 19.6302C27.9769 19.9138 28.3978 19.9504 28.6523 19.7087C28.8644 19.5073 28.8937 19.1694 28.7213 18.9338L27.4856 17.2454C29.4418 15.4994 31.3735 13.7378 33.1262 12.0779L38.6819 30.7299L37.9156 31.496L30.2798 21.0631C30.0875 20.8004 29.7186 20.7433 29.4558 20.9356C29.1927 21.1281 29.1357 21.4971 29.3282 21.7599L37.3706 32.7479C37.5808 33.0354 38.0114 33.0686 38.2632 32.8165L39.7644 31.3153C39.9176 31.1624 39.9743 30.9374 39.9127 30.7299L38.1753 24.8979ZM21.9735 2.84783C22.2311 2.59025 22.661 2.59025 22.9186 2.84783C23.1792 3.10847 23.1792 3.53239 22.9186 3.79303L22.6421 4.06953L21.1855 3.63554L21.9735 2.84783ZM17.0809 1.51352C17.3412 1.25288 17.7654 1.25288 18.026 1.51352C18.2866 1.77415 18.2866 2.19807 18.026 2.45871L17.8441 2.6403L16.3878 2.20662L17.0809 1.51352ZM8.5048 2.08332L9.2711 1.31728L27.922 6.87306C26.2621 8.62611 24.5007 10.558 22.7544 12.5143L8.5048 2.08332ZM8.80387 23.1351L12.3943 24.5161C11.4937 25.5886 10.8031 26.4184 10.3957 26.9095L7.71256 24.2262L8.80387 23.1351ZM11.2334 27.7472C13.2891 25.2669 24.1549 12.2311 31.3137 5.0718C32.734 3.65111 34.2843 2.45657 35.5664 1.7943C36.5289 1.29683 37.8167 0.844528 38.4857 1.51352C39.1546 2.18251 38.7021 3.47043 38.2049 4.43302C37.5427 5.71515 36.3479 7.26524 34.9273 8.68592C27.7691 15.8446 14.7338 26.7114 12.2536 28.7675L11.2334 27.7472ZM16.8654 31.1972L15.7744 32.2882L13.0913 29.605C13.582 29.1978 14.4121 28.5072 15.4845 27.6065L16.8654 31.1972ZM37.5406 21.9745C37.8012 21.7138 38.2251 21.7138 38.4857 21.9745C38.7463 22.2351 38.7463 22.659 38.4857 22.9196L37.7926 23.6127L37.3587 22.1564L37.5406 21.9745ZM36.2063 17.0816C36.4666 16.8209 36.8908 16.8212 37.1515 17.0816C37.409 17.3391 37.409 17.7692 37.1515 18.0267L36.3635 18.8148L35.9295 17.3581L36.2063 17.0816Z" fill="#5077F7"/>
<path d="M35.3981 33.9636L30.366 38.996C30.1515 39.2108 30.1371 39.5655 30.3346 39.7962C30.5552 40.0538 30.9602 40.07 31.2001 39.8301L36.2321 34.7977C36.4625 34.5673 36.4625 34.194 36.2321 33.9636C36.002 33.7335 35.6285 33.7335 35.3981 33.9636Z" fill="#F6C358"/>
<path d="M33.716 32.281C33.9464 32.0509 33.9464 31.6773 33.716 31.4472C33.4859 31.2168 33.1124 31.2168 32.8822 31.4472L29.7371 34.5923C29.5226 34.8071 29.5082 35.1618 29.7057 35.3925C29.9263 35.6501 30.3313 35.6663 30.5711 35.4264L33.716 32.281Z" fill="#F6C358"/>
<path d="M31.8273 29.1363C32.0577 28.9059 32.0577 28.5323 31.8273 28.3022C31.5969 28.0718 31.2237 28.0718 30.9933 28.3022L28.7917 30.5039C28.5772 30.7184 28.5629 31.0734 28.7606 31.3041C28.9809 31.5617 29.3859 31.5779 29.6258 31.338L31.8273 29.1363Z" fill="#F6C358"/>
<path d="M6.03892 4.08372C5.80851 3.8536 5.43497 3.8536 5.20487 4.08372L0.172807 9.1164C-0.0576022 9.34652 -0.0576022 9.72008 0.172807 9.9502C0.399858 10.1773 0.779498 10.1773 1.00686 9.9502L6.03892 4.91782C6.26902 4.6874 6.26902 4.31414 6.03892 4.08372Z" fill="#F6C358"/>
<path d="M8.55594 6.60006C8.32554 6.36964 7.9523 6.36964 7.7222 6.60006L4.57705 9.74541C4.3622 9.95996 4.34816 10.3146 4.54561 10.5453C4.76626 10.8029 5.17092 10.8191 5.41079 10.5792L8.55594 7.43416C8.78635 7.20374 8.78635 6.83018 8.55594 6.60006Z" fill="#F6C358"/>
<path d="M8.66477 11.5228C8.89212 11.7499 9.27146 11.7499 9.49881 11.5228L11.7004 9.32114C11.9305 9.09072 11.9305 8.71746 11.7004 8.48704C11.47 8.25692 11.0967 8.25692 10.8663 8.48704L8.66477 10.6887C8.43466 10.9191 8.43466 11.2924 8.66477 11.5228Z" fill="#F6C358"/>
</svg>
