<svg width="24" height="24" viewBox="0 0 24 24" fill="none" xmlns="http://www.w3.org/2000/svg">
<path d="M20.8241 19.0748C20.737 18.9876 20.616 18.9375 20.4927 18.9375C20.3694 18.9375 20.2484 18.9876 20.1613 19.0748C20.0741 19.162 20.0239 19.283 20.0239 19.4063C20.0239 19.5295 20.0741 19.6505 20.1613 19.7376C20.2484 19.8248 20.3694 19.875 20.4927 19.875C20.616 19.875 20.737 19.8249 20.8241 19.7376C20.9118 19.6505 20.9615 19.5295 20.9615 19.4063C20.9615 19.283 20.9118 19.162 20.8241 19.0748Z" fill="#5289F4"/>
<path d="M9.07387 20.437C8.09164 20.437 7.29248 21.2361 7.29248 22.2184C7.29248 23.2006 8.0916 23.9998 9.07387 23.9998C10.0561 23.9998 10.8553 23.2007 10.8553 22.2184C10.8553 21.2361 10.0561 20.437 9.07387 20.437ZM9.07387 23.0622C8.60862 23.0622 8.23007 22.6837 8.23007 22.2184C8.23007 21.7531 8.60862 21.3746 9.07387 21.3746C9.53912 21.3746 9.91767 21.7531 9.91767 22.2184C9.91767 22.6837 9.53912 23.0622 9.07387 23.0622Z" fill="#5289F4"/>
<path d="M17.6725 20.437C16.6903 20.437 15.8911 21.2361 15.8911 22.2184C15.8911 23.2006 16.6902 23.9998 17.6725 23.9998C18.6547 23.9998 19.4539 23.2007 19.4539 22.2184C19.4539 21.2361 18.6548 20.437 17.6725 20.437ZM17.6725 23.0622C17.2072 23.0622 16.8287 22.6837 16.8287 22.2184C16.8287 21.7531 17.2072 21.3746 17.6725 21.3746C18.1378 21.3746 18.5163 21.7531 18.5163 22.2184C18.5163 22.6837 18.1378 23.0622 17.6725 23.0622Z" fill="#5289F4"/>
<path d="M21.9179 12.3981C21.6639 12.3491 21.4179 12.5154 21.3689 12.7697L20.6876 16.3068C20.6452 16.527 20.4516 16.6869 20.2273 16.6869H6.69941L4.86344 8.70194H9.68412C9.94305 8.70194 10.1529 8.49205 10.1529 8.23317C10.1529 7.97428 9.943 7.7644 9.68412 7.7644H4.64784L4.14784 5.58978C4.00018 4.94728 3.43655 4.49854 2.77726 4.49854H0.468769C0.209884 4.49849 0 4.70837 0 4.9673C0 5.22624 0.209884 5.43607 0.468769 5.43607H2.77731C2.99709 5.43607 3.18493 5.58561 3.23417 5.79981L6.38674 19.5109C6.4357 19.7238 6.62518 19.8746 6.8436 19.8746H18.8007C19.0596 19.8746 19.2695 19.6647 19.2695 19.4058C19.2695 19.147 19.0596 18.9371 18.8007 18.9371H7.21681L6.91502 17.6245H20.2273C20.9002 17.6245 21.481 17.1449 21.6082 16.4842L22.2895 12.9472C22.3385 12.6928 22.1722 12.4471 21.9179 12.3981Z" fill="#5289F4"/>
<path d="M23.8235 6.33131C24.1212 5.84748 24.0465 5.23106 23.6418 4.83244L23.1736 4.37126C23.1163 4.31476 23.0867 4.23636 23.0924 4.15603L23.1393 3.49731C23.1798 2.92796 22.8265 2.4153 22.28 2.25057L21.66 2.06366C21.5825 2.04026 21.5195 1.98423 21.4873 1.90995L21.2278 1.3113C21.0029 0.792493 20.4369 0.495064 19.8821 0.603851L19.2531 0.727315C19.1731 0.74293 19.091 0.722626 19.0277 0.671468L18.5269 0.267173C18.0857 -0.0890109 17.4452 -0.0891046 17.0039 0.267173L16.5032 0.671468C16.4398 0.722626 16.3577 0.743023 16.2777 0.727268L15.6486 0.603804C15.0938 0.494876 14.5279 0.792399 14.303 1.31111L14.0434 1.90991C14.0112 1.98423 13.9483 2.04022 13.8707 2.06361L13.2509 2.25048C12.7044 2.41525 12.3511 2.92791 12.3916 3.49721L12.4385 4.15599C12.4443 4.23626 12.4146 4.31466 12.3573 4.37117L11.8892 4.83234C11.4844 5.23101 11.4097 5.84739 11.7075 6.33121L12.0536 6.89376C12.0957 6.96222 12.1058 7.04532 12.0812 7.12184L11.8786 7.75173C11.7044 8.29346 11.9245 8.87472 12.4138 9.16516L12.9749 9.49832C13.0443 9.5395 13.0919 9.60875 13.1054 9.68833L13.2158 10.3361C13.312 10.9006 13.7787 11.3146 14.3506 11.3431L14.9932 11.375C15.0744 11.379 15.1491 11.4185 15.1983 11.4831L15.5901 11.9987C15.8243 12.3068 16.1885 12.476 16.5594 12.476C16.7316 12.476 16.9053 12.4395 17.0681 12.3635L17.6491 12.0922C17.723 12.0577 17.8076 12.0577 17.8815 12.0922L18.4624 12.3635C18.976 12.6033 19.5976 12.4498 19.9405 11.9986L20.3322 11.4831C20.3814 11.4184 20.4561 11.379 20.5373 11.375L21.18 11.343C21.7519 11.3146 22.2186 10.9006 22.3148 10.336L22.4252 9.68828C22.4387 9.60871 22.4863 9.5395 22.5557 9.49828L23.1168 9.16516C23.6061 8.87472 23.8262 8.29346 23.6521 7.75173L23.4495 7.12184C23.4249 7.04532 23.4349 6.96222 23.477 6.89381L23.8235 6.33131ZM23.025 5.83994L22.6788 6.40253C22.493 6.70451 22.4486 7.07134 22.5572 7.40886L22.7598 8.03875C22.7992 8.16151 22.7494 8.29323 22.6385 8.35901L22.0775 8.69213C21.7712 8.87397 21.5612 9.17961 21.5013 9.53077L21.3909 10.1785C21.3691 10.3064 21.2634 10.4002 21.1337 10.4067L20.4909 10.4386C20.1328 10.4564 19.803 10.6304 19.5859 10.9159L19.1943 11.4313C19.1165 11.5335 18.9757 11.5683 18.8593 11.514L18.2784 11.2427C17.9524 11.0905 17.5785 11.0905 17.2526 11.2427L16.6716 11.514C16.5553 11.5684 16.4144 11.5335 16.3367 11.4313L15.9449 10.9157C15.7279 10.6303 15.3981 10.4564 15.0399 10.4385L14.3973 10.4066C14.2678 10.4002 14.162 10.3064 14.1402 10.1784L14.0298 9.53068C13.9699 9.17956 13.7599 8.87388 13.4536 8.69208L12.8925 8.35897C12.7816 8.29313 12.7318 8.16146 12.7713 8.0387L12.9738 7.40881C13.0823 7.07125 13.0381 6.70446 12.8523 6.40244L12.5061 5.83984C12.4386 5.73026 12.4555 5.59057 12.5472 5.50026L13.0154 5.03904C13.2685 4.78976 13.3991 4.44361 13.3739 4.08935L13.327 3.43058C13.3178 3.30163 13.3979 3.18544 13.5216 3.14811L14.1415 2.96125C14.4837 2.85809 14.7615 2.61079 14.9037 2.28288L15.1633 1.68408C15.2073 1.58284 15.3085 1.51874 15.4162 1.51874C15.4335 1.51874 15.4509 1.52043 15.4683 1.52381L16.0973 1.64722C16.45 1.71657 16.8126 1.62668 17.0922 1.4009L17.593 0.99661C17.693 0.915864 17.8381 0.91591 17.9381 0.99661L18.4388 1.4009C18.7184 1.62664 19.0809 1.71639 19.4337 1.64727L20.0627 1.52385C20.1885 1.499 20.3167 1.56662 20.3676 1.68413L20.6271 2.28278C20.7692 2.61083 21.0471 2.85814 21.3894 2.9613L22.0094 3.1482C22.1332 3.18553 22.2132 3.30168 22.2041 3.43068L22.1572 4.0894C22.1319 4.44366 22.2626 4.78981 22.5156 5.03913L22.9838 5.5003C23.0755 5.59062 23.0924 5.73026 23.025 5.83994Z" fill="#F6C358"/>
<path d="M18.8534 4.11438C18.6279 3.98707 18.342 4.06664 18.2147 4.29214L16.0406 8.1433C15.9134 8.3688 15.9929 8.65469 16.2184 8.78195C16.2913 8.82308 16.3703 8.84263 16.4484 8.84263C16.612 8.84263 16.7709 8.75682 16.8571 8.60419L19.0312 4.75303C19.1584 4.52753 19.0788 4.24164 18.8534 4.11438Z" fill="#F6C358"/>
<path d="M19.185 6.57715C18.5128 6.57715 17.9658 7.12409 17.9658 7.79636C17.9658 8.46864 18.5128 9.01558 19.185 9.01558C19.8573 9.01558 20.4042 8.46864 20.4042 7.79636C20.4042 7.12409 19.8573 6.57715 19.185 6.57715ZM19.185 8.07804C19.0297 8.07804 18.9034 7.95171 18.9034 7.79641C18.9034 7.64111 19.0297 7.51478 19.185 7.51478C19.3403 7.51478 19.4667 7.64111 19.4667 7.79641C19.4667 7.95171 19.3403 8.07804 19.185 8.07804Z" fill="#F6C358"/>
<path d="M16.3559 3.46045C15.6837 3.46045 15.1367 4.00739 15.1367 4.67966C15.1367 5.35194 15.6837 5.89888 16.3559 5.89888C17.0282 5.89888 17.5751 5.35194 17.5751 4.67966C17.5751 4.00739 17.0282 3.46045 16.3559 3.46045ZM16.3559 4.96134C16.2006 4.96134 16.0743 4.83501 16.0743 4.67971C16.0743 4.52441 16.2006 4.39808 16.3559 4.39808C16.5112 4.39808 16.6375 4.52441 16.6375 4.67971C16.6375 4.83497 16.5112 4.96134 16.3559 4.96134Z" fill="#F6C358"/>
</svg>
