<svg width="15" height="15" viewBox="0 0 15 15" fill="none" xmlns="http://www.w3.org/2000/svg">
<path d="M12.2852 2.96484C13.6159 4.27734 14.2812 5.8724 14.2812 7.75C14.2812 9.6276 13.6159 11.2318 12.2852 12.5625C10.9727 13.875 9.3776 14.5312 7.5 14.5312C5.6224 14.5312 4.01823 13.875 2.6875 12.5625C1.375 11.2318 0.71875 9.6276 0.71875 7.75C0.71875 5.8724 1.375 4.27734 2.6875 2.96484C4.01823 1.63411 5.6224 0.96875 7.5 0.96875C9.3776 0.96875 10.9727 1.63411 12.2852 2.96484ZM7.69141 3.21094C6.34245 3.21094 5.27604 3.79427 4.49219 4.96094C4.38281 5.125 4.41016 5.27083 4.57422 5.39844L5.53125 6.10938C5.69531 6.23698 5.84115 6.21875 5.96875 6.05469C6.16927 5.81771 6.32422 5.64453 6.43359 5.53516C6.5612 5.40755 6.71615 5.29818 6.89844 5.20703C7.08073 5.11589 7.29036 5.07031 7.52734 5.07031C7.83724 5.07031 8.11979 5.16146 8.375 5.34375C8.64844 5.50781 8.78516 5.71745 8.78516 5.97266C8.78516 6.17318 8.71224 6.33724 8.56641 6.46484C8.4388 6.57422 8.22005 6.72005 7.91016 6.90234C7.58203 7.08464 7.33594 7.23047 7.17188 7.33984C7.02604 7.44922 6.86198 7.64062 6.67969 7.91406C6.4974 8.1875 6.40625 8.4974 6.40625 8.84375V8.95312C6.40625 9.17188 6.51562 9.28125 6.73438 9.28125H8.26562C8.48438 9.28125 8.59375 9.17188 8.59375 8.95312V8.92578C8.59375 8.76172 8.71224 8.59766 8.94922 8.43359C9.1862 8.26953 9.44141 8.11458 9.71484 7.96875C10.0065 7.82292 10.2708 7.57682 10.5078 7.23047C10.7448 6.88411 10.8633 6.47396 10.8633 6C10.8633 5.23438 10.5352 4.57812 9.87891 4.03125C9.22266 3.48438 8.49349 3.21094 7.69141 3.21094ZM8.375 10.375C8.13802 10.1198 7.84635 9.99219 7.5 9.99219C7.15365 9.99219 6.85286 10.1198 6.59766 10.375C6.36068 10.612 6.24219 10.9036 6.24219 11.25C6.24219 11.5964 6.36068 11.8971 6.59766 12.1523C6.85286 12.3893 7.15365 12.5078 7.5 12.5078C7.84635 12.5078 8.13802 12.3893 8.375 12.1523C8.63021 11.8971 8.75781 11.5964 8.75781 11.25C8.75781 10.9036 8.63021 10.612 8.375 10.375Z" fill="#5077F7"/>
</svg>
