<svg width="22" height="24" viewBox="0 0 22 24" fill="none" xmlns="http://www.w3.org/2000/svg">
<path d="M7.88406 10.5938C7.62806 10.5938 7.42029 10.8038 7.42029 11.0625C7.42029 11.3213 7.62806 11.5312 7.88406 11.5312C8.14006 11.5312 8.34782 11.3213 8.34782 11.0625C8.34782 10.8038 8.14006 10.5938 7.88406 10.5938Z" fill="#5289F4"/>
<path d="M6.02895 21.0469C5.77295 21.0469 5.56519 21.2569 5.56519 21.5156C5.56519 21.7744 5.77295 21.9844 6.02895 21.9844C6.28495 21.9844 6.49272 21.7744 6.49272 21.5156C6.49272 21.2569 6.28495 21.0469 6.02895 21.0469Z" fill="#5289F4"/>
<path d="M20.8696 23.0625H19.4783V3.28125C19.4783 2.50584 18.8541 1.875 18.087 1.875H17.6232V1.40625C17.6232 0.630844 16.9991 0 16.2319 0H5.10145C4.33428 0 3.71014 0.630844 3.71014 1.40625V1.875H3.24638C2.47921 1.875 1.85507 2.50584 1.85507 3.28125V23.0625H0.463768C0.207675 23.0625 0 23.2724 0 23.5312C0 23.7901 0.207675 24 0.463768 24H20.8696C21.1257 24 21.3333 23.7901 21.3333 23.5312C21.3333 23.2724 21.1257 23.0625 20.8696 23.0625ZM3.71014 23.0625H2.78261V3.28125C2.78261 3.02278 2.99066 2.8125 3.24638 2.8125H3.71014V23.0625ZM16.6957 23.0625H4.63768V18.0548H16.6957V23.0625ZM16.6957 17.1173H4.63768V6.70312H16.6957V17.1173ZM16.6957 5.76562H4.63768V1.40625C4.63768 1.14778 4.84573 0.9375 5.10145 0.9375H16.2319C16.4876 0.9375 16.6957 1.14778 16.6957 1.40625V5.76562ZM18.5507 23.0625H17.6232V2.8125H18.087C18.3427 2.8125 18.5507 3.02278 18.5507 3.28125V23.0625Z" fill="#5289F4"/>
<path d="M11.5942 10.5938H9.73916C9.48307 10.5938 9.27539 10.8036 9.27539 11.0625C9.27539 11.3214 9.48307 11.5312 9.73916 11.5312H11.5942C11.8503 11.5312 12.058 11.3214 12.058 11.0625C12.058 10.8036 11.8503 10.5938 11.5942 10.5938Z" fill="#5289F4"/>
<path d="M15.3043 7.78125H6.02895C5.77286 7.78125 5.56519 7.99111 5.56519 8.25V13.875C5.56519 14.1339 5.77286 14.3438 6.02895 14.3438H15.3043C15.5604 14.3438 15.7681 14.1339 15.7681 13.875V8.25C15.7681 7.99111 15.5604 7.78125 15.3043 7.78125ZM12.9855 13.4062H6.49272V8.71875H12.9855V13.4062ZM14.8405 13.4062H13.913V12.4688H14.8405V13.4062ZM14.8405 11.5312H13.913V10.5647H14.8405V11.5312ZM14.8405 9.62719H13.913V8.71875H14.8405V9.62719Z" fill="#5289F4"/>
<path d="M13.4493 15.2812H7.88406C7.62796 15.2812 7.42029 15.4911 7.42029 15.75C7.42029 16.0089 7.62796 16.2188 7.88406 16.2188H13.4493C13.7054 16.2188 13.913 16.0089 13.913 15.75C13.913 15.4911 13.7054 15.2812 13.4493 15.2812Z" fill="#5289F4"/>
<path d="M14.3769 1.875H6.95657C6.70047 1.875 6.4928 2.08486 6.4928 2.34375V4.21875C6.4928 4.47764 6.70047 4.6875 6.95657 4.6875H14.3769C14.6329 4.6875 14.8406 4.47764 14.8406 4.21875V2.34375C14.8406 2.08486 14.6329 1.875 14.3769 1.875ZM13.9131 3.75H7.42033V2.8125H13.9131V3.75Z" fill="#5289F4"/>
</svg>
