<svg width="22" height="22" viewBox="0 0 22 22" fill="none" xmlns="http://www.w3.org/2000/svg">
<path fill-rule="evenodd" clip-rule="evenodd" d="M15.4832 5.78224C15.4832 8.25746 13.4761 10.2645 10.9997 10.2645C8.5233 10.2645 6.51624 8.25746 6.51624 5.78224C6.51624 3.30703 8.5233 1.3 10.9997 1.3C13.4761 1.3 15.4832 3.30703 15.4832 5.78224ZM16.7832 5.78224C16.7832 8.97569 14.1939 11.5645 10.9997 11.5645C7.80559 11.5645 5.21624 8.97569 5.21624 5.78224C5.21624 2.5888 7.80559 0 10.9997 0C14.1939 0 16.7832 2.5888 16.7832 5.78224ZM20.449 20.6997H1.55028C1.8042 19.4695 2.23072 17.925 2.81779 16.611C3.17644 15.8082 3.57881 15.1286 4.01074 14.6595C4.4432 14.1898 4.8443 13.9935 5.21616 13.9935H16.7831C17.155 13.9935 17.5561 14.1898 17.9885 14.6595C18.4205 15.1286 18.8228 15.8082 19.1815 16.611C19.7686 17.925 20.1951 19.4695 20.449 20.6997ZM5.21616 12.6935C4.34235 12.6935 3.62011 13.1645 3.05437 13.7789C2.48809 14.394 2.01738 15.2156 1.63085 16.0807C0.856039 17.815 0.354336 19.8742 0.126174 21.2428L0 21.9997H0.767326H21.232H21.9993L21.8731 21.2428C21.6449 19.8742 21.1432 17.815 20.3684 16.0807C19.9819 15.2156 19.5112 14.394 18.9449 13.7789C18.3792 13.1645 17.6569 12.6935 16.7831 12.6935H5.21616Z" fill="#C4C4C4"/>
</svg>
