<svg width="25" height="24" viewBox="0 0 25 24" fill="none" xmlns="http://www.w3.org/2000/svg">
<path d="M22.9339 9.66632H22.5243C22.5217 9.13045 22.172 8.65812 21.6602 8.49915C21.1869 3.67657 17.1318 0 12.286 0C7.44025 0 3.38514 3.67657 2.91178 8.49915C2.40003 8.65812 2.05034 9.13045 2.04767 9.66632H1.63813C0.733418 9.66632 0 10.3997 0 11.3045V14.5807C0 15.4854 0.733418 16.2189 1.63813 16.2189H2.04767C2.04767 16.8974 2.59773 17.4475 3.27627 17.4475H3.6858V19.0856C3.6858 21.1212 5.33599 22.7714 7.3716 22.7714H8.65754C8.84379 23.4928 9.49333 23.9976 10.2383 24H14.3337C15.2384 24 15.9718 23.2666 15.9718 22.3619C15.9718 21.4571 15.2384 20.7237 14.3337 20.7237H10.2383C9.49333 20.7262 8.84379 21.231 8.65754 21.9523H7.3716C5.78835 21.9523 4.50487 20.6689 4.50487 19.0856V17.4475H4.9144C5.59294 17.4475 6.143 16.8974 6.143 16.2189V9.66632C6.14249 9.16534 5.83784 8.71485 5.37308 8.52782C5.79125 5.02706 8.76036 2.3915 12.286 2.3915C15.8117 2.3915 18.7808 5.02706 19.1989 8.52782C18.7342 8.71485 18.4295 9.16534 18.429 9.66632V16.2189C18.429 16.8974 18.9791 17.4475 19.6576 17.4475H21.2957C21.9743 17.4475 22.5243 16.8974 22.5243 16.2189H22.9339C23.8386 16.2189 24.572 15.4854 24.572 14.5807V11.3045C24.572 10.3997 23.8386 9.66632 22.9339 9.66632ZM10.2383 21.5428H14.3337C14.786 21.5428 15.1527 21.9095 15.1527 22.3619C15.1527 22.8142 14.786 23.1809 14.3337 23.1809H10.2383C9.78598 23.1809 9.41927 22.8142 9.41927 22.3619C9.41927 21.9095 9.78598 21.5428 10.2383 21.5428ZM1.63813 15.3998C1.18578 15.3998 0.819067 15.0331 0.819067 14.5807V11.3045C0.819067 10.8521 1.18578 10.4854 1.63813 10.4854H2.04767V15.3998H1.63813ZM5.32394 16.2189C5.32394 16.445 5.14058 16.6284 4.9144 16.6284H3.27627C3.05009 16.6284 2.86674 16.445 2.86674 16.2189V9.66632C2.86674 9.44014 3.05009 9.25679 3.27627 9.25679H4.9144C5.14058 9.25679 5.32394 9.44014 5.32394 9.66632V16.2189ZM12.286 1.47565C8.3095 1.48077 4.97669 4.4833 4.55811 8.43772H3.73904C4.22565 4.08481 7.90598 0.792977 12.286 0.792977C16.666 0.792977 20.3464 4.08481 20.833 8.43772H20.0139C19.5953 4.4833 16.2625 1.48077 12.286 1.47565ZM21.7053 16.2189C21.7053 16.445 21.5219 16.6284 21.2957 16.6284H19.6576C19.4314 16.6284 19.2481 16.445 19.2481 16.2189V9.66632C19.2481 9.44014 19.4314 9.25679 19.6576 9.25679H21.2957C21.5219 9.25679 21.7053 9.44014 21.7053 9.66632V16.2189ZM23.7529 14.5807C23.7529 15.0331 23.3862 15.3998 22.9339 15.3998H22.5243V10.4854H22.9339C23.3862 10.4854 23.7529 10.8521 23.7529 11.3045V14.5807Z" fill="#5289F4"/>
</svg>
