<svg width="24" height="24" viewBox="0 0 24 24" fill="none" xmlns="http://www.w3.org/2000/svg">
<path d="M22.4 9.74072H22V10.5441H22.4C22.8 10.5441 23.2 10.9457 23.2 11.3474V14.6612C23.2 15.1633 22.8 15.4645 22.4 15.4645H22V16.2679H22.4C23.3 16.2679 24 15.5649 24 14.6612V11.3474C24 10.4436 23.3 9.74072 22.4 9.74072ZM1.6 10.5441H2V9.74072H1.6C0.7 9.74072 0 10.4436 0 11.3474V14.6612C0 15.5649 0.7 16.2679 1.6 16.2679H2V15.4645H1.6C1.2 15.4645 0.799999 15.0629 0.799999 14.6612V11.3474C0.799999 10.8453 1.1 10.5441 1.6 10.5441Z" fill="#F6C358"/>
<path d="M14.0008 20.7866H9.90078C9.00078 20.7866 8.30078 21.4895 8.30078 22.3933C8.30078 23.1966 8.90078 23.8996 9.70078 24C9.80078 24 9.80078 24 9.90078 24H14.0008C14.9008 24 15.6008 23.2971 15.6008 22.3933C15.6008 21.59 14.8008 20.7866 14.0008 20.7866ZM13.8008 23.2971H9.90078C9.50078 23.2971 9.10078 22.8954 9.10078 22.4937C9.10078 22.092 9.50078 21.6904 9.90078 21.6904H13.8008C14.2008 21.6904 14.6008 22.092 14.6008 22.4937C14.6008 22.8954 14.2008 23.2971 13.8008 23.2971Z" fill="#F6C358"/>
<path d="M21.1 8.53549C20.7 3.71545 16.7 0 12 0C7.3 0 3.3 3.71545 2.8 8.53549C2.3 8.73633 2 9.138 2 9.74051V16.2677C2 16.9706 2.5 17.4727 3.2 17.4727H3.6V19.0793C3.6 21.0877 5.2 22.7948 7.2 22.7948H8.5V22.0919H7.2C5.7 22.0919 4.4 20.7864 4.4 19.1798V17.5731H4.8C5.5 17.5731 6 17.071 6 16.3681V9.74051C6 9.23842 5.7 8.73633 5.2 8.63591C5.6 5.1213 8.5 2.51044 12 2.51044C15.5 2.51044 18.3 5.1213 18.8 8.63591C18.3 8.83675 18 9.23842 18 9.74051V16.2677C18 16.9706 18.5 17.4727 19.2 17.4727H20.8C21.5 17.4727 22 16.9706 22 16.2677V9.74051C22 9.138 21.6 8.73633 21.1 8.53549ZM5.2 16.2677C5.2 16.4685 5 16.6693 4.8 16.6693H3.2C3 16.6693 2.8 16.4685 2.8 16.2677V9.74051C2.8 9.53967 3 9.33884 3.2 9.33884H4.8C5 9.33884 5.2 9.53967 5.2 9.74051V16.2677ZM12 1.50626C8.1 1.50626 4.9 4.51879 4.5 8.53549H3.7C4.2 4.11712 7.8 0.803341 12 0.803341C16.3 0.803341 19.9 4.11712 20.3 8.53549H19.5C19.1 4.51879 15.9 1.50626 12 1.50626ZM21.2 16.2677C21.2 16.4685 21 16.6693 20.8 16.6693H19.2C19 16.6693 18.8 16.4685 18.8 16.2677V9.74051C18.8 9.53967 19 9.33884 19.2 9.33884H20.8C21 9.33884 21.2 9.53967 21.2 9.74051V16.2677Z" fill="#5289F4"/>
</svg>
