<svg width="36" height="40" viewBox="0 0 36 40" fill="none" xmlns="http://www.w3.org/2000/svg">
<path d="M32.6534 0.289624V0.286205C32.4283 -0.0190828 31.9953 -0.0863454 31.6862 0.135954C31.3809 0.355519 31.3101 0.776103 31.527 1.08148C35.6458 6.77512 35.6458 14.4244 31.527 20.1181C31.3035 20.4246 31.374 20.8518 31.6843 21.0725C31.6856 21.0734 31.687 21.0744 31.6884 21.0753C31.9993 21.2944 32.4311 21.2234 32.6534 20.9167C37.1164 14.7474 37.1164 6.45889 32.6534 0.289624Z" fill="#F6C358"/>
<path d="M4.31244 0.127309C4.31244 0.127309 4.31235 0.127309 4.31235 0.127223C4.00142 -0.0919141 3.56959 -0.020891 3.34728 0.28585C-1.11576 6.45512 -1.11576 14.7435 3.34728 20.9128C3.57236 21.2181 4.00531 21.2854 4.31443 21.0631C4.61973 20.8435 4.69052 20.4229 4.47366 20.1176C0.354872 14.424 0.354872 6.77468 4.47366 1.08104C4.6958 0.773696 4.62363 0.346703 4.31244 0.127309Z" fill="#F6C358"/>
<path d="M8.71557 3.47858C8.94974 3.18013 8.89461 2.75057 8.59233 2.5193C8.29118 2.28879 7.85797 2.34196 7.62311 2.63827C3.92438 7.31682 3.92438 13.8812 7.62311 18.5598C7.85806 18.8577 8.29309 18.9111 8.59476 18.6791C8.89643 18.447 8.95052 18.0174 8.71557 17.7194C5.40634 13.5351 5.40634 7.66305 8.71557 3.47858Z" fill="#F6C358"/>
<path d="M27.4073 2.51935L27.4072 2.51944C27.1072 2.75139 27.0534 3.17924 27.2868 3.47667C30.5961 7.66105 30.5961 13.5331 27.2868 17.7175C27.0518 18.0155 27.1059 18.4451 27.4076 18.6772C27.7093 18.9092 28.1443 18.8558 28.3792 18.5578C32.078 13.8793 32.078 7.31491 28.3792 2.63636C28.1435 2.33902 27.7084 2.28662 27.4073 2.51935Z" fill="#F6C358"/>
<path d="M23.0409 5.92165C25.5517 8.54703 25.5517 12.6512 23.0409 15.2765C22.7788 15.5515 22.792 15.9842 23.0703 16.2431C23.0704 16.2432 23.0705 16.2433 23.0707 16.2433C23.3493 16.502 23.7874 16.4887 24.0493 16.2136C24.0494 16.2135 24.0494 16.2133 24.0496 16.2133C27.0615 13.0615 27.0615 8.1367 24.0496 4.98493C23.7899 4.70776 23.3519 4.6911 23.0713 4.94758C22.7907 5.20407 22.7738 5.6367 23.0335 5.91379C23.0359 5.91644 23.0384 5.91909 23.0409 5.92165Z" fill="#F6C358"/>
<path d="M12.4571 16.4286C12.8394 16.4288 13.1496 16.1228 13.1498 15.7453C13.1499 15.5711 13.0826 15.4035 12.9618 15.2766C10.4511 12.6512 10.4511 8.54705 12.9618 5.92167C13.2259 5.64861 13.2159 5.2158 12.9394 4.95495C12.6629 4.69411 12.2247 4.70402 11.9606 4.97709C11.9581 4.97965 11.9555 4.9823 11.9531 4.98495C8.94125 8.13672 8.94125 13.0615 11.9531 16.2133C12.0839 16.3506 12.2662 16.4286 12.4571 16.4286Z" fill="#F6C358"/>
<path d="M26.9778 39.1456L20.2368 13.1848C21.6952 11.964 21.8753 9.80671 20.6392 8.36642C19.403 6.92613 17.2187 6.74827 15.7604 7.96908C14.3021 9.18989 14.122 11.3472 15.3581 12.7875C15.4809 12.9306 15.6154 13.0635 15.7604 13.1848L9.02011 39.1456C8.92483 39.5113 9.14784 39.884 9.51814 39.9781C9.51848 39.9782 9.51892 39.9783 9.51926 39.9784C9.57543 39.9924 9.63306 39.9995 9.69095 39.9996C10.0068 39.9994 10.2824 39.7882 10.3611 39.4861L10.5923 38.5972C10.6311 38.5864 10.6688 38.5722 10.7052 38.5548L23.6465 31.8276L25.6348 39.4854C25.7132 39.7883 25.9897 40 26.3063 39.9996C26.3644 39.9996 26.4223 39.9925 26.4787 39.9784C26.8491 39.885 27.0728 39.5126 26.9781 39.1467C26.978 39.1464 26.9779 39.146 26.9778 39.1456ZM20.3033 18.9473L16.5385 15.6934L17.0149 13.8596C17.3331 13.9597 17.6646 14.0129 17.9986 14.0176C18.3326 14.0129 18.6641 13.9597 18.9824 13.8596L20.3033 18.9473ZM17.9986 8.54769C19.1457 8.54769 20.0755 9.46604 20.0755 10.5989C20.0755 11.7318 19.1457 12.6501 17.9986 12.6501C16.8516 12.6501 15.9217 11.7318 15.9217 10.5989C15.9217 9.46604 16.8516 8.54769 17.9986 8.54769ZM16.1536 17.1771L20.3234 20.7818L14.1619 24.8363L16.1536 17.1771ZM11.0513 36.8284L13.5367 27.2561L21.9828 31.1479L11.0513 36.8284ZM14.5606 26.2195L21.0773 21.9284L23.2283 30.2139L14.5606 26.2195Z" fill="#5077F7"/>
</svg>
