<svg width="24" height="24" viewBox="0 0 24 24" fill="none" xmlns="http://www.w3.org/2000/svg">
<path d="M4.80078 11.9998C4.80078 13.4238 5.22308 14.8159 6.01427 15.9999C6.80546 17.1839 7.93001 18.1068 9.24572 18.6517C10.5614 19.1967 12.0092 19.3393 13.4059 19.0614C14.8027 18.7836 16.0857 18.0979 17.0927 17.091C18.0997 16.084 18.7854 14.8011 19.0633 13.4044C19.3411 12.0078 19.1985 10.5601 18.6535 9.24448C18.1085 7.92885 17.1856 6.80437 16.0015 6.01322C14.8174 5.22208 13.4253 4.7998 12.0012 4.7998C10.0922 4.80194 8.26197 5.56119 6.91209 6.91099C5.56221 8.26079 4.80292 10.0909 4.80078 11.9998ZM12.0012 5.4718C13.2924 5.4718 14.5546 5.85466 15.6282 6.57197C16.7018 7.28927 17.5385 8.30881 18.0326 9.50164C18.5268 10.6945 18.656 12.007 18.4041 13.2733C18.1522 14.5396 17.5305 15.7028 16.6175 16.6158C15.7044 17.5287 14.5412 18.1505 13.2748 18.4024C12.0084 18.6542 10.6958 18.525 9.5029 18.0309C8.30999 17.5368 7.2904 16.7001 6.57305 15.6266C5.8557 14.553 5.47282 13.2909 5.47282 11.9998C5.47475 10.2691 6.16318 8.60976 7.38707 7.38594C8.61096 6.16212 10.2704 5.47373 12.0012 5.4718Z" fill="#F6C358"/>
<path d="M12.0014 18C13.188 17.9998 14.348 17.6477 15.3346 16.9884C16.3212 16.329 17.0901 15.3919 17.5441 14.2956C17.9982 13.1993 18.1169 11.993 17.8854 10.8292C17.6538 9.66542 17.0823 8.59641 16.2432 7.75736C15.4041 6.91831 14.3351 6.34688 13.1712 6.11534C12.0073 5.8838 10.801 6.00253 9.70458 6.45653C8.60821 6.91053 7.67107 7.67941 7.01166 8.66594C6.35226 9.65248 6.0002 10.8124 6 11.999C6.00172 13.59 6.63456 15.1154 7.75966 16.2404C8.88476 17.3655 10.4102 17.9983 12.0014 18ZM12.0014 6.70983C13.0475 6.70983 14.0702 7.02004 14.94 7.60121C15.8099 8.18239 16.4878 9.00844 16.8882 9.97491C17.2885 10.9414 17.3933 12.0048 17.1892 13.0308C16.9851 14.0568 16.4813 14.9993 15.7416 15.739C15.0018 16.4787 14.0593 16.9824 13.0333 17.1865C12.0072 17.3906 10.9437 17.2858 9.97718 16.8855C9.01065 16.4852 8.18455 15.8073 7.60334 14.9375C7.02213 14.0677 6.71191 13.0451 6.71191 11.999C6.71352 10.5967 7.27132 9.25233 8.26294 8.26077C9.25455 7.26921 10.599 6.71145 12.0014 6.70983Z" fill="#F6C358"/>
<path d="M10.4741 13.434C10.4741 13.3495 10.4281 13.2685 10.3463 13.2087C10.2645 13.149 10.1535 13.1154 10.0378 13.1154C9.92213 13.1154 9.81116 13.149 9.72934 13.2087C9.64753 13.2685 9.60156 13.3495 9.60156 13.434C9.60239 13.8427 9.79846 14.2383 10.1559 14.5526C10.5134 14.867 11.0099 15.0804 11.5598 15.1561V15.8812C11.5598 15.9657 11.6058 16.0467 11.6876 16.1065C11.7694 16.1662 11.8804 16.1998 11.9961 16.1998C12.1118 16.1998 12.2228 16.1662 12.3046 16.1065C12.3864 16.0467 12.4324 15.9657 12.4324 15.8812V15.1574C12.985 15.084 13.4849 14.8714 13.8448 14.5565C14.2047 14.2416 14.4018 13.8444 14.4018 13.4342C14.4018 13.024 14.2047 12.6269 13.8448 12.312C13.4849 11.9971 12.985 11.7844 12.4324 11.7111V9.49564C12.7487 9.56379 13.0264 9.70478 13.2241 9.89759C13.4218 10.0904 13.5288 10.3247 13.5293 10.5656C13.5293 10.6501 13.5752 10.7311 13.6571 10.7909C13.7389 10.8506 13.8498 10.8842 13.9656 10.8842C14.0813 10.8842 14.1922 10.8506 14.274 10.7909C14.3559 10.7311 14.4018 10.6501 14.4018 10.5656C14.401 10.1555 14.2035 9.75869 13.8437 9.44389C13.484 9.12909 12.9846 8.91622 12.4324 8.84225V8.1184C12.4324 8.0339 12.3864 7.95287 12.3046 7.89312C12.2228 7.83337 12.1118 7.7998 11.9961 7.7998C11.8804 7.7998 11.7694 7.83337 11.6876 7.89312C11.6058 7.95287 11.5598 8.0339 11.5598 8.1184V8.84352C11.0097 8.91866 10.5128 9.13192 10.1553 9.44637C9.79775 9.76082 9.60204 10.1567 9.60204 10.5654C9.60204 10.9741 9.79775 11.37 10.1553 11.6844C10.5128 11.9989 11.0097 12.2121 11.5598 12.2873V14.502C11.2461 14.4324 10.9712 14.291 10.7757 14.0988C10.5803 13.9065 10.4745 13.6735 10.4741 13.434ZM13.5295 13.434C13.5291 13.6749 13.422 13.9092 13.2244 14.102C13.0267 14.2948 12.749 14.4358 12.4326 14.504V12.3639C12.7488 12.4322 13.0262 12.5733 13.2237 12.7662C13.4211 12.959 13.528 13.1932 13.5283 13.434H13.5295ZM10.4741 10.5656C10.4745 10.3261 10.5803 10.0931 10.7757 9.90083C10.9712 9.70857 11.2461 9.56723 11.5598 9.49764V11.6331C11.2461 11.5636 10.9713 11.4224 10.7758 11.2302C10.5803 11.038 10.4746 10.805 10.4741 10.5656Z" fill="#F6C358"/>
<path d="M12.0007 0.872702C14.9229 0.872702 17.7037 2.01987 19.7759 4.04462H16.8504V4.91732H21.2155V0.552293H20.3427V3.37836C18.1133 1.22085 15.1321 0 12.0007 0C5.3837 0 0 5.38314 0 12H0.872754C0.872754 5.86448 5.86483 0.872702 12.0007 0.872702Z" fill="#5077F7"/>
<path d="M23.1279 12C23.1279 18.1355 18.1359 23.1273 12 23.1273C9.07799 23.1273 6.29702 21.9802 4.22493 19.9555H7.15029V19.0828H2.78516V23.4477H3.65791V20.6218C5.88753 22.7791 8.86909 24 12 24C18.617 24 24.0007 18.6169 24.0007 12H23.1279V12Z" fill="#5077F7"/>
</svg>
