<svg width="16" height="17" viewBox="0 0 16 17" fill="none" xmlns="http://www.w3.org/2000/svg">
<path d="M1.35547 9.44531L0.582031 8.63672C0.417969 8.47266 0.335938 8.27344 0.335938 8.03906C0.335938 7.80469 0.417969 7.60547 0.582031 7.44141L7.40234 0.621094C7.56641 0.457031 7.76562 0.375 8 0.375C8.23438 0.375 8.43359 0.457031 8.59766 0.621094L15.418 7.44141C15.582 7.60547 15.6641 7.80469 15.6641 8.03906C15.6641 8.27344 15.582 8.47266 15.418 8.63672L14.6445 9.41016C14.4805 9.59766 14.2812 9.69141 14.0469 9.69141C13.8125 9.66797 13.6133 9.57422 13.4492 9.41016L9.40625 5.19141V15.2812C9.40625 15.5156 9.32422 15.7148 9.16016 15.8789C8.99609 16.043 8.79688 16.125 8.5625 16.125H7.4375C7.20312 16.125 7.00391 16.043 6.83984 15.8789C6.67578 15.7148 6.59375 15.5156 6.59375 15.2812V5.19141L2.55078 9.41016C2.38672 9.57422 2.1875 9.66797 1.95312 9.69141C1.71875 9.69141 1.51953 9.60938 1.35547 9.44531Z" fill="#5077F7"/>
</svg>
