<svg width="13" height="15" viewBox="0 0 13 15" fill="none" xmlns="http://www.w3.org/2000/svg">
<path d="M11.3125 7.75C11.6771 7.75 11.987 7.8776 12.2422 8.13281C12.4974 8.38802 12.625 8.69792 12.625 9.0625V13.4375C12.625 13.8021 12.4974 14.112 12.2422 14.3672C11.987 14.6224 11.6771 14.75 11.3125 14.75H1.6875C1.32292 14.75 1.01302 14.6224 0.757812 14.3672C0.502604 14.112 0.375 13.8021 0.375 13.4375V9.0625C0.375 8.69792 0.502604 8.38802 0.757812 8.13281C1.01302 7.8776 1.32292 7.75 1.6875 7.75H2.34375V4.96094C2.34375 3.79427 2.74479 2.80078 3.54688 1.98047C4.36719 1.16016 5.34245 0.75 6.47266 0.75C7.62109 0.75 8.60547 1.16016 9.42578 1.98047C10.2461 2.78255 10.6562 3.75781 10.6562 4.90625V5.34375C10.6562 5.52604 10.5924 5.68099 10.4648 5.80859C10.3372 5.9362 10.1823 6 10 6H9.125C8.94271 6 8.78776 5.9362 8.66016 5.80859C8.53255 5.68099 8.46875 5.52604 8.46875 5.34375V4.90625C8.46875 4.35938 8.26823 3.89453 7.86719 3.51172C7.48438 3.12891 7.01953 2.9375 6.47266 2.9375C5.94401 2.9375 5.48828 3.13802 5.10547 3.53906C4.72266 3.92188 4.53125 4.38672 4.53125 4.93359V7.75H11.3125ZM7.59375 11.9062V10.5938C7.59375 10.2839 7.48438 10.0286 7.26562 9.82812C7.0651 9.60938 6.8099 9.5 6.5 9.5C6.1901 9.5 5.92578 9.60938 5.70703 9.82812C5.50651 10.0286 5.40625 10.2839 5.40625 10.5938V11.9062C5.40625 12.2161 5.50651 12.4805 5.70703 12.6992C5.92578 12.8997 6.1901 13 6.5 13C6.8099 13 7.0651 12.8997 7.26562 12.6992C7.48438 12.4805 7.59375 12.2161 7.59375 11.9062Z" fill="#5077F7"/>
</svg>
