<svg width="40" height="40" viewBox="0 0 40 40" fill="none" xmlns="http://www.w3.org/2000/svg">
<path d="M39.2916 7.47581V6.04839H40.0013V4.04839L31.9045 0H30.3158L22.2109 4.04839V6.04839H22.9206V7.46774H23.6303V13.1613H22.9206V14.5806H22.2109V16.7177H40.0013V14.5806H39.2916V13.1613H38.582V7.47581H39.2916ZM22.9206 5.33871V4.49194L30.4771 0.717742H31.7352L39.2916 4.49194V5.33871H22.9206ZM38.582 13.879V14.5887H36.4449V13.879H38.582ZM37.1545 13.1694V7.47581H37.8642V13.1694H37.1545ZM36.4449 13.1694H35.7352V14.5887H35.0255V13.1694H34.3158V7.47581H35.0255V6.04839H35.7352V7.46774H36.4449V13.1694ZM30.0416 13.1694V7.47581H30.7513V6.04839H31.461V7.46774H32.1706V13.1613H31.461V14.5806H30.7513V13.1613H30.0416V13.1694ZM25.7674 13.1694V7.47581H26.4771V6.04839H27.1868V7.46774H27.8964V13.1613H27.1868V14.5806H26.4771V13.1613H25.7674V13.1694ZM23.6303 6.75807V6.04839H25.7674V6.75807H23.6303ZM25.0577 7.47581V13.1694H24.348V7.47581H25.0577ZM27.9045 13.879H30.0416V14.5887H27.9045V13.879ZM28.6142 13.1694V7.47581H29.3239V13.1694H28.6142ZM27.9045 6.75807V6.04839H30.0416V6.75807H27.9045ZM32.1706 13.879H34.3077V14.5887H32.1706V13.879ZM32.8884 13.1694V7.47581H33.5981V13.1694H32.8884ZM32.1706 6.75807V6.04839H34.3077V6.75807H32.1706ZM23.6303 13.879H25.7674V14.5887H23.6303V13.879ZM39.2916 15.2984V16.0081H22.9206V15.2984H39.2916ZM36.4449 6.75807V6.04839H38.582V6.75807H36.4449Z" fill="#F6C358"/>
<path d="M13.992 14.7097C13.992 13.8226 14.7178 13.0968 15.6049 13.0968H18.2984V12.0161H15.6049C14.121 12.0161 12.9113 13.2258 12.9113 14.7097H12.25L0 20.8306V23.8548H1.07258V26.008H2.14517V34.621H1.07258V36.7742H0V40H26.9114V36.7742H25.8388V34.621H24.7581V26.008H25.8307V23.8548H26.9033V20.8306L14.6533 14.7016H13.992V14.7097ZM2.15323 35.6935H5.37905V36.7742H2.15323V35.6935ZM8.61293 26.008V34.621H7.53228V36.7742H6.4597V34.621H5.37905V26.008H6.45163V23.8548H7.52422V26.008H8.61293ZM15.0726 26.008V34.621H14V36.7742H12.9275V34.621H11.8549V26.008H12.9275V23.8548H14V26.008H15.0726ZM21.5243 26.008V34.621H20.4517V36.7742H19.3791V34.621H18.3065V26.008H19.3791V23.8548H20.4517V26.008H21.5243ZM24.7581 35.6935V36.7742H21.5323V35.7016H24.7581V35.6935ZM22.6049 34.621V26.008H23.6775V34.621H22.6049ZM18.2984 24.9274H15.0726V23.8548H18.2984V24.9274ZM17.2178 26.008V34.621H16.1452V26.008H17.2178ZM18.2984 35.6935V36.7742H15.0726V35.7016H18.2984V35.6935ZM11.8387 24.9274H8.61293V23.8548H11.8387V24.9274ZM10.7662 26.008V34.621H9.69358V26.008H10.7662ZM11.8387 35.6935V36.7742H8.61293V35.7016H11.8387V35.6935ZM5.37905 24.9274H2.15323V23.8548H5.37905V24.9274ZM4.30647 26.008V34.621H3.22582V26.008H4.30647ZM25.8307 37.8468V38.9193H1.07258V37.8468H25.8307ZM24.7581 24.9274H21.5323V23.8548H24.7581V24.9274ZM25.8307 22.7822H20.4517H19.3791H14H12.9275H7.53228H6.4597H1.07258V21.5L12.5 15.7822H12.9113V19.5484H13.9839V15.7822H14.3952L25.8227 21.5V22.7822H25.8307Z" fill="#5077F7"/>
<path d="M22.6031 20.6289H4.30469V21.7015H22.6031V20.6289Z" fill="#F6C358"/>
<path d="M20.4436 12.0161H19.371V13.0887H20.4436V12.0161Z" fill="#5077F7"/>
<path d="M30.1376 27.6212C30.1376 28.5083 29.4118 29.2341 28.5247 29.2341H27.9844V30.3067H28.5247C30.0086 30.3067 31.2183 29.097 31.2183 27.6131V19.0083H30.1457V27.6212H30.1376Z" fill="#5077F7"/>
<path d="M26.9046 29.2339H25.832V30.3065H26.9046V29.2339Z" fill="#5077F7"/>
</svg>
