<svg width="18" height="22" viewBox="0 0 18 22" fill="none" xmlns="http://www.w3.org/2000/svg">
<path fill-rule="evenodd" clip-rule="evenodd" d="M8.39921 1.82607C8.36573 1.82805 8.3324 1.83019 8.29921 1.83249C4.06014 2.12641 2.27613 5.06851 1.89655 6.72742C1.89028 6.75483 1.88439 6.7819 1.87888 6.8086L1.86649 6.86861V13.9098L0 15.7183V19.2851H5.65582C5.66213 19.3185 5.66897 19.3519 5.67633 19.3851C5.69528 19.4706 5.71771 19.5554 5.74356 19.6392C5.77703 19.7478 5.81625 19.8547 5.86111 19.9597C6.0335 20.363 6.28564 20.7282 6.60219 21.0349C6.91869 21.3417 7.29343 21.584 7.70453 21.749C8.1156 21.914 8.55556 21.9987 8.99944 21.9987C9.44333 21.9987 9.88329 21.914 10.2944 21.749C10.7055 21.584 11.0802 21.3417 11.3967 21.0349C11.7133 20.7282 11.9654 20.363 12.1378 19.9597C12.1826 19.8547 12.2219 19.7478 12.2553 19.6392C12.2812 19.5554 12.3036 19.4706 12.3226 19.3851C12.3299 19.3519 12.3368 19.3185 12.3431 19.2851H17.9984V15.7183L16.1319 13.9098V6.86861L16.1195 6.8086C16.114 6.7819 16.1081 6.75483 16.1019 6.72742C15.7223 5.06851 13.9383 2.12641 9.69921 1.83249C9.66603 1.83019 9.6327 1.82805 9.59921 1.82607V0.6C9.59921 0.268629 9.33058 0 8.99921 0C8.66784 0 8.39921 0.268629 8.39921 0.6V1.82607ZM8.99921 3.00874L8.98925 3.00866C8.81135 3.00885 8.63825 3.01413 8.46986 3.02418C8.41243 3.0276 8.35555 3.03158 8.29921 3.0361C4.85659 3.31219 3.44128 5.60477 3.09791 6.86861C3.09229 6.88932 3.08695 6.90975 3.0819 6.92989C3.07643 6.95167 3.0713 6.9731 3.06649 6.99418V14.418L1.2 16.2265V18.0851H16.7984V16.2265L14.9319 14.418V6.99418C14.9271 6.9731 14.922 6.95167 14.9165 6.92989C14.9115 6.90975 14.9061 6.88932 14.9005 6.86861C14.5571 5.60477 13.1418 3.31219 9.69921 3.0361C9.64288 3.03158 9.586 3.0276 9.52857 3.02418C9.36018 3.01413 9.18708 3.00885 9.00917 3.00866L8.99921 3.00874ZM6.89028 19.2856C6.90057 19.319 6.91174 19.3522 6.92377 19.3851C6.93641 19.4197 6.95 19.454 6.96454 19.488C7.07355 19.7431 7.23387 19.9761 7.43728 20.1732C7.61132 20.3419 7.81398 20.4814 8.03688 20.5856C8.07453 20.6032 8.11277 20.6198 8.15154 20.6354C8.41983 20.7431 8.708 20.7987 8.99944 20.7987C9.29089 20.7987 9.57906 20.7431 9.84735 20.6354C9.88612 20.6198 9.92436 20.6032 9.96202 20.5856C10.1849 20.4814 10.3876 20.3419 10.5616 20.1732C10.765 19.9761 10.9253 19.7431 11.0344 19.488C11.0489 19.454 11.0625 19.4197 11.0751 19.3851C11.0872 19.3522 11.0983 19.319 11.1086 19.2856H6.89028Z" fill="#2D7BF5"/>
<path d="M8.99921 3.00874L8.98925 3.00866C8.81135 3.00885 8.63825 3.01413 8.46986 3.02418C8.41243 3.0276 8.35555 3.03158 8.29921 3.0361C4.85659 3.31219 3.44128 5.60477 3.09791 6.86861C3.09229 6.88932 3.08695 6.90975 3.0819 6.92989C3.07643 6.95167 3.0713 6.9731 3.06649 6.99418V14.418L1.2 16.2265V18.0851H16.7984V16.2265L14.9319 14.418V6.99418C14.9271 6.9731 14.922 6.95167 14.9165 6.92989C14.9115 6.90975 14.9061 6.88932 14.9005 6.86861C14.5571 5.60477 13.1418 3.31219 9.69921 3.0361C9.64288 3.03158 9.586 3.0276 9.52857 3.02418C9.36018 3.01413 9.18708 3.00885 9.00917 3.00866L8.99921 3.00874Z" fill="#89B9F6"/>
<path d="M6.92377 19.3851C6.91174 19.3522 6.90057 19.319 6.89028 19.2856H11.1086C11.0983 19.319 11.0872 19.3522 11.0751 19.3851C11.0625 19.4197 11.0489 19.454 11.0344 19.488C10.9253 19.7431 10.765 19.9761 10.5616 20.1732C10.3876 20.3419 10.1849 20.4814 9.96202 20.5856C9.92436 20.6032 9.88612 20.6198 9.84735 20.6354C9.57906 20.7431 9.29089 20.7987 8.99944 20.7987C8.708 20.7987 8.41983 20.7431 8.15154 20.6354C8.11277 20.6198 8.07453 20.6032 8.03688 20.5856C7.81398 20.4814 7.61132 20.3419 7.43728 20.1732C7.23387 19.9761 7.07355 19.7431 6.96454 19.488C6.95 19.454 6.93641 19.4197 6.92377 19.3851Z" fill="#89B9F6"/>
</svg>
