<svg width="27" height="24" viewBox="0 0 27 24" fill="none" xmlns="http://www.w3.org/2000/svg">
<path d="M19.9323 5.89844C19.164 5.89844 18.4147 6.03949 17.7052 6.31778C17.4437 6.42034 17.3149 6.71535 17.4175 6.97681C17.52 7.23822 17.8149 7.36696 18.0765 7.26451C18.6672 7.0329 19.2915 6.91539 19.9323 6.91539C22.736 6.91539 25.017 9.19635 25.017 12.0001C25.017 14.8039 22.736 17.0849 19.9323 17.0849C17.1285 17.0849 14.8475 14.8039 14.8475 12.0001C14.8475 11.3602 14.9647 10.7366 15.1958 10.1467C15.2982 9.88523 15.1692 9.59027 14.9078 9.48781C14.6461 9.3854 14.3512 9.51435 14.2488 9.77581C13.9713 10.4844 13.8306 11.2327 13.8306 12.0001C13.8306 15.3646 16.5678 18.1018 19.9323 18.1018C23.2967 18.1018 26.034 15.3646 26.034 12.0001C26.034 8.63566 23.2967 5.89844 19.9323 5.89844Z" fill="#F6C358"/>
<path d="M6.61032 14.6443V14.5736C7.29254 14.3713 7.7884 13.7736 7.7884 13.0694C7.7884 12.1995 7.03179 11.4918 6.10184 11.4918C5.73259 11.4918 5.43223 11.2403 5.43223 10.9311C5.43223 10.622 5.73259 10.3704 6.10184 10.3704C6.4711 10.3704 6.77145 10.622 6.77145 10.9311C6.77145 11.2119 6.99915 11.4396 7.27993 11.4396C7.56071 11.4396 7.7884 11.2119 7.7884 10.9311C7.7884 10.2269 7.29254 9.62913 6.61032 9.42691V9.35613C6.61032 9.07535 6.38262 8.84766 6.10184 8.84766C5.82106 8.84766 5.59337 9.07535 5.59337 9.35613V9.42681C4.91115 9.62908 4.41528 10.2268 4.41528 10.931C4.41528 11.801 5.17189 12.5087 6.10184 12.5087C6.4711 12.5087 6.77145 12.7602 6.77145 13.0693C6.77145 13.3785 6.4711 13.63 6.10184 13.63C5.73259 13.63 5.43223 13.3785 5.43223 13.0693C5.43223 12.7885 5.20454 12.5608 4.92376 12.5608C4.64298 12.5608 4.41528 12.7885 4.41528 13.0693C4.41528 13.7735 4.91115 14.3713 5.59337 14.5735V14.6443C5.59337 14.925 5.82106 15.1527 6.10184 15.1527C6.38262 15.1527 6.61032 14.925 6.61032 14.6443Z" fill="#F6C358"/>
<path d="M12.2034 12.0001C12.2034 8.63566 9.46617 5.89844 6.1017 5.89844C2.73722 5.89844 0 8.63566 0 12.0001C0 15.3646 2.73722 18.1018 6.1017 18.1018C9.46617 18.1018 12.2034 15.3646 12.2034 12.0001ZM1.01695 12.0001C1.01695 9.19635 3.29792 6.91539 6.1017 6.91539C8.90547 6.91539 11.1864 9.19635 11.1864 12.0001C11.1864 14.8039 8.90547 17.0849 6.1017 17.0849C3.29792 17.0849 1.01695 14.8039 1.01695 12.0001Z" fill="#F6C358"/>
<path d="M18.052 12.0713C18.052 12.352 18.2797 12.5797 18.5605 12.5797H18.9615C18.9786 12.8194 18.9392 12.9481 18.686 13.2884L18.3627 13.6949C18.2417 13.8471 18.218 14.0549 18.3017 14.2303C18.3854 14.4058 18.5618 14.5181 18.7562 14.5199L21.2992 14.5424H21.3038C21.5825 14.5424 21.8097 14.3177 21.8122 14.0385C21.8147 13.7577 21.589 13.528 21.3082 13.5255L19.7561 13.5118C19.9284 13.2044 19.9906 12.9341 19.9781 12.5797H20.3465C20.6273 12.5797 20.855 12.352 20.855 12.0713C20.855 11.7905 20.6273 11.5628 20.3465 11.5628H19.7239C19.6147 11.3814 19.4732 11.0943 19.4743 10.8668C19.4743 10.8662 19.4742 10.8655 19.4742 10.8648C19.4742 10.8641 19.4743 10.8635 19.4743 10.8628C19.4739 10.7675 19.4946 10.6581 19.6506 10.57C19.8937 10.4326 20.2576 10.455 20.4319 10.5611C20.5877 10.6558 20.7124 10.7902 20.7423 10.8955C20.819 11.1657 21.1 11.3224 21.3703 11.2459C21.6404 11.1692 21.7973 10.8881 21.7206 10.6179C21.6197 10.262 21.3425 9.92458 20.9603 9.69215C20.4515 9.3829 19.6905 9.37965 19.1506 9.68442C18.7107 9.93287 18.4586 10.3603 18.4576 10.8582C18.4576 10.8596 18.4573 10.861 18.4573 10.8625C18.4573 10.8631 18.4574 10.8638 18.4574 10.8644C18.4574 10.8652 18.4573 10.8658 18.4573 10.8665C18.4573 10.8682 18.4576 10.8698 18.4576 10.8715C18.458 11.113 18.5166 11.3513 18.5958 11.5628H18.5606C18.2797 11.5628 18.052 11.7905 18.052 12.0713Z" fill="#F6C358"/>
<path d="M4.89129 4.38275H6.40685C6.68763 4.38275 6.91532 4.15505 6.91532 3.87427C6.91532 3.59349 6.68763 3.3658 6.40685 3.3658H6.2273C8.15549 1.84332 10.5226 1.01695 13.017 1.01695C15.9507 1.01695 18.7088 2.15939 20.7832 4.23386C20.8825 4.33312 21.0126 4.3828 21.1427 4.3828C21.2728 4.3828 21.4029 4.33312 21.5022 4.23386C21.7008 4.03531 21.7008 3.71334 21.5022 3.51473C19.2358 1.24825 16.2223 0 13.017 0C10.2054 0 7.54151 0.960661 5.39976 2.72629V2.35866C5.39976 2.07788 5.17207 1.85019 4.89129 1.85019C4.61051 1.85019 4.38281 2.07788 4.38281 2.35866V3.87427C4.38281 4.1551 4.61051 4.38275 4.89129 4.38275Z" fill="#5077F7"/>
<path d="M21.1427 19.6172H19.6272C19.3464 19.6172 19.1187 19.8449 19.1187 20.1257C19.1187 20.4064 19.3464 20.6341 19.6272 20.6341H19.8067C17.8785 22.1566 15.5114 22.983 13.017 22.983C10.0834 22.983 7.32524 21.8405 5.25087 19.7661C5.05231 19.5676 4.73044 19.5675 4.53173 19.7661C4.33317 19.9646 4.33317 20.2866 4.53173 20.4852C6.79821 22.7517 9.81168 23.9999 13.017 23.9999C15.8287 23.9999 18.4925 23.0393 20.6343 21.2736V21.6413C20.6343 21.9221 20.862 22.1497 21.1427 22.1497C21.4235 22.1497 21.6512 21.9221 21.6512 21.6413V20.1257C21.6512 19.8448 21.4235 19.6172 21.1427 19.6172Z" fill="#5077F7"/>
<path d="M15.6177 7.6856C15.5227 7.78018 15.4688 7.91137 15.4688 8.0451C15.4688 8.17882 15.5227 8.31001 15.6177 8.40459C15.7123 8.49911 15.843 8.55357 15.9772 8.55357C16.111 8.55357 16.2421 8.49916 16.3367 8.40459C16.4312 8.31001 16.4857 8.17882 16.4857 8.0451C16.4857 7.91086 16.4313 7.78018 16.3367 7.6856C16.2421 7.59108 16.111 7.53662 15.9772 7.53662C15.843 7.53667 15.7124 7.59057 15.6177 7.6856Z" fill="#F6C358"/>
</svg>
