<svg width="35" height="40" viewBox="0 0 35 40" fill="none" xmlns="http://www.w3.org/2000/svg">
<path d="M10.0026 27.9969C16.4529 27.9969 20.0052 24.2078 20.0052 17.3274C20.0052 10.8856 10.887 0.643722 10.4988 0.211644C10.3689 0.0765174 10.1898 0 10.0026 0C9.81538 0 9.63597 0.0765174 9.50638 0.211644C9.11826 0.643722 0 10.8856 0 17.3274C0 24.2078 3.55236 27.9969 10.0026 27.9969ZM10.0026 1.67394C11.9116 3.91443 18.6715 12.2066 18.6715 17.3274C18.6715 21.5864 17.1672 26.6632 10.0026 26.6632C2.83798 26.6632 1.33368 21.5864 1.33368 17.3274C1.33368 12.2066 8.09326 3.91443 10.0026 1.67394Z" fill="#5077F7"/>
<path d="M28.6741 29.3307C32.4882 29.3307 34.6756 26.7854 34.6756 22.3461C34.6756 18.1777 29.3868 12.4477 29.1621 12.2055C29.0332 12.0752 28.8574 12.002 28.6741 12.002C28.4907 12.002 28.3149 12.0752 28.186 12.2055C27.9613 12.4477 22.6725 18.1777 22.6725 22.3461C22.6725 26.7854 24.8596 29.3307 28.6741 29.3307ZM28.6741 13.6664C29.9602 15.1629 33.3419 19.3802 33.3419 22.3461C33.3419 26.0958 31.7715 27.997 28.6741 27.997C25.5766 27.997 24.0062 26.0958 24.0062 22.3461C24.0062 19.3802 27.3876 15.1629 28.6741 13.6664Z" fill="#5077F7"/>
<path d="M18.8383 26.8886C18.6683 27.0813 14.6705 31.6473 14.6705 34.6653C14.6705 38.0555 16.3721 40.0001 19.3384 40.0001C22.3044 40.0001 24.0063 38.0555 24.0063 34.6653C24.0063 31.6473 20.0085 27.0813 19.8385 26.8886C19.7083 26.7512 19.5276 26.6733 19.3384 26.6733C19.1492 26.6733 18.9682 26.7512 18.8383 26.8886ZM19.3384 38.6664C17.1266 38.6664 16.0042 37.32 16.0042 34.6653C16.0042 32.8527 18.0907 29.902 19.3384 28.3649C20.5868 29.8988 22.6726 32.8501 22.6726 34.6653C22.6726 37.32 21.5503 38.6664 19.3384 38.6664Z" fill="#5077F7"/>
<path d="M8.60199 25.3261C8.62413 25.3284 8.64627 25.3294 8.66874 25.3294C9.02398 25.3294 9.31702 25.0507 9.33493 24.6958C9.35251 24.3408 9.0891 24.0344 8.73549 23.999C7.34255 23.929 6.04599 23.267 5.17238 22.1798C3.39881 19.8673 3.9862 16.1395 3.99141 16.1024C4.03993 15.7452 3.79572 15.414 3.44016 15.3548C3.0846 15.2958 2.7463 15.53 2.67662 15.8836C2.64699 16.0597 1.98568 20.2086 4.10961 22.9853C5.20234 24.3734 6.83818 25.2258 8.60199 25.3261Z" fill="#F6C358"/>
<path d="M28.0073 26.6629C29.2378 26.6453 30.4109 26.14 31.2689 25.2579C32.0116 24.3026 32.2802 23.0617 31.9989 21.885C31.9305 21.5294 31.5912 21.2934 31.234 21.3529C30.8769 21.4129 30.6327 21.7466 30.6841 22.1051C30.8883 22.8924 30.7313 23.7302 30.2559 24.3902C29.6526 24.9769 28.8487 25.3126 28.0073 25.3292C27.639 25.3292 27.3405 25.6278 27.3405 25.9961C27.3405 26.3643 27.639 26.6629 28.0073 26.6629Z" fill="#F6C358"/>
<path d="M18.9694 36.0691C18.7614 35.9851 18.6009 35.8141 18.5299 35.6012C18.4592 35.3886 18.4853 35.1551 18.6015 34.9633C18.7659 34.6338 18.6324 34.233 18.3026 34.0686C17.9731 33.9038 17.5726 34.0376 17.4078 34.3671C17.1337 34.8764 17.0819 35.4765 17.2646 36.0251C17.4476 36.5738 17.8487 37.0228 18.3733 37.266C18.7031 37.4308 19.1036 37.2969 19.2684 36.9671C19.4328 36.6376 19.2993 36.2371 18.9694 36.0723V36.0691Z" fill="#F6C358"/>
</svg>
