<svg width="40" height="36" viewBox="0 0 40 36" fill="none" xmlns="http://www.w3.org/2000/svg">
<path d="M13.8829 0.226562C13.7345 0.078125 13.5392 0 13.3282 0C13.1251 0 12.922 0.0859375 12.7736 0.226562C12.6251 0.367187 12.547 0.570312 12.547 0.78125C12.547 0.992188 12.6329 1.1875 12.7736 1.33594C12.922 1.48437 13.1173 1.5625 13.3282 1.5625C13.5314 1.5625 13.7345 1.47656 13.8829 1.33594C14.0314 1.19531 14.1095 0.992188 14.1095 0.78125C14.1095 0.570312 14.0314 0.375 13.8829 0.226562Z" fill="#F6C358"/>
<path d="M39.2188 0H16.6641C16.2344 0 15.8828 0.351562 15.8828 0.78125C15.8828 1.21094 16.2344 1.5625 16.6641 1.5625H38.4375V26.875H1.5625V1.5625H9.92188C10.3516 1.5625 10.7031 1.21094 10.7031 0.78125C10.7031 0.351562 10.3516 0 9.92188 0H0.78125C0.351562 0 0 0.351562 0 0.78125V27.6562C0 28.0859 0.351562 28.4375 0.78125 28.4375H14.2188V31.0938H9.6875C9.25781 31.0938 8.90625 31.4453 8.90625 31.875V34.2188H4.46875C4.03906 34.2188 3.6875 34.5703 3.6875 35C3.6875 35.4297 4.03906 35.7812 4.46875 35.7812H32.7344C33.1641 35.7812 33.5156 35.4297 33.5156 35C33.5156 34.5703 33.1641 34.2188 32.7344 34.2188H31.0938V31.875C31.0938 31.4453 30.7422 31.0938 30.3125 31.0938H25.7812V28.4375H39.2188C39.6484 28.4375 40 28.0859 40 27.6562V0.78125C40 0.351562 39.6484 0 39.2188 0ZM15.7812 28.4375H24.2188V31.0938H15.7812V28.4375ZM29.5312 32.6562V34.2188H10.4688V32.6562H29.5312Z" fill="#5077F7"/>
<path d="M13.8555 6.86719C13.5508 6.5625 13.0586 6.5625 12.7539 6.86719L5.83984 13.7812C5.53516 14.0859 5.53516 14.5781 5.83984 14.8828C5.99609 15.0391 6.19141 15.1094 6.39453 15.1094C6.59766 15.1094 6.79297 15.0312 6.94922 14.8828L13.8633 7.96875C14.1602 7.67187 14.1602 7.17188 13.8555 6.86719Z" fill="#F6C358"/>
<path d="M38.6992 8.74219C38.3945 8.4375 37.9023 8.4375 37.5977 8.74219L24.1602 22.1563C23.8555 22.4609 23.8555 22.9531 24.1602 23.2578C24.3164 23.4141 24.5117 23.4844 24.7148 23.4844C24.918 23.4844 25.1133 23.4063 25.2695 23.2578L38.707 9.84375C39.0039 9.54688 39.0039 9.04688 38.6992 8.74219Z" fill="#F6C358"/>
<path d="M4.73437 15.9922C4.58594 15.8437 4.39062 15.7656 4.17969 15.7656C3.96875 15.7656 3.77344 15.8516 3.625 15.9922C3.47656 16.1406 3.39844 16.3359 3.39844 16.5469C3.39844 16.75 3.48438 16.9531 3.625 17.1016C3.76563 17.25 3.96875 17.3281 4.17969 17.3281C4.39062 17.3281 4.58594 17.2422 4.73437 17.1016C4.88281 16.9531 4.96094 16.7578 4.96094 16.5469C4.96094 16.3359 4.88281 16.1328 4.73437 15.9922Z" fill="#F6C358"/>
<path d="M36.0859 34.4453C35.9375 34.2969 35.7422 34.2188 35.5312 34.2188C35.3281 34.2188 35.125 34.3047 34.9766 34.4453C34.8281 34.5937 34.75 34.7891 34.75 35C34.75 35.2109 34.8359 35.4063 34.9766 35.5547C35.125 35.7031 35.3203 35.7812 35.5312 35.7812C35.7344 35.7812 35.9375 35.6953 36.0859 35.5547C36.2344 35.4063 36.3125 35.2109 36.3125 35C36.3125 34.7891 36.2344 34.5937 36.0859 34.4453Z" fill="#F6C358"/>
<path d="M18.4141 10.5469H14.0391C13.6094 10.5469 13.2578 10.8984 13.2578 11.3281C13.2578 11.7578 13.6094 12.1094 14.0391 12.1094H15.4453V17.8906C15.4453 18.3203 15.7969 18.6719 16.2266 18.6719C16.6562 18.6719 17.0078 18.3203 17.0078 17.8906V12.1094H18.4141C18.8438 12.1094 19.1953 11.7578 19.1953 11.3281C19.1953 10.8984 18.8438 10.5469 18.4141 10.5469Z" fill="#5077F7"/>
<path d="M26.2132 10.5862C25.807 10.4534 25.3616 10.6722 25.2288 11.0784L23.7835 15.4144L22.3382 11.0784C22.2054 10.6722 21.7601 10.4456 21.3538 10.5862C20.9476 10.7191 20.721 11.1644 20.8616 11.5706L23.0491 18.1331C23.1585 18.4534 23.4554 18.6644 23.7913 18.6644C24.1273 18.6644 24.4241 18.4456 24.5335 18.1331L26.721 11.5706C26.8382 11.1644 26.6195 10.7269 26.2132 10.5862Z" fill="#5077F7"/>
</svg>
