<svg width="18" height="22" viewBox="0 0 18 22" fill="none" xmlns="http://www.w3.org/2000/svg">
<path fill-rule="evenodd" clip-rule="evenodd" d="M8.99946 0.000488281C9.33083 0.000488281 9.59946 0.269117 9.59946 0.600488V1.82656C13.9812 2.08493 15.7782 5.15433 16.1198 6.80909L16.1322 6.8691V6.93038V13.9103L17.8162 15.5419L17.9987 15.7188V15.9729V18.6856V19.2856H17.3987H12.3433C12.2997 19.5165 12.231 19.7426 12.138 19.9602C11.9656 20.3635 11.7135 20.7287 11.3969 21.0354C11.0804 21.3422 10.7057 21.5845 10.2946 21.7495C9.88354 21.9145 9.44358 21.9992 8.99969 21.9992C8.5558 21.9992 8.11584 21.9145 7.70477 21.7495C7.29367 21.5845 6.91894 21.3421 6.60243 21.0354C6.28588 20.7287 6.03374 20.3635 5.86136 19.9602C5.76837 19.7426 5.69965 19.5165 5.65606 19.2856H0.600245H0.000244141V18.6856V15.9729V15.7188L0.182728 15.5419L1.86674 13.9103V6.93038V6.8691L1.87912 6.80909C2.22069 5.15433 4.0177 2.08493 8.39946 1.82656V0.600488C8.39946 0.269117 8.66809 0.000488281 8.99946 0.000488281ZM8.99946 3.00923L8.9895 3.00915C4.91701 3.0135 3.36483 5.68735 3.06674 6.99467V14.1644V14.4185L2.88425 14.5953L1.20024 16.2269V18.0856H8.99946H16.7987V16.2269L15.1147 14.5953L14.9322 14.4185V14.1644V6.99467C14.6341 5.68735 13.0819 3.0135 9.00942 3.00915L8.99946 3.00923ZM6.96478 19.4885C6.93641 19.4222 6.91164 19.3546 6.89052 19.2861H8.99969H11.1089C11.0877 19.3546 11.063 19.4222 11.0346 19.4885C10.9256 19.7436 10.7653 19.9766 10.5619 20.1737C10.3584 20.3708 10.1159 20.5282 9.8476 20.6359C9.57931 20.7436 9.29113 20.7992 8.99969 20.7992C8.70824 20.7992 8.42007 20.7436 8.15178 20.6359C7.88352 20.5282 7.64097 20.3708 7.43752 20.1737C7.23411 19.9766 7.0738 19.7436 6.96478 19.4885Z" fill="#C4C4C4"/>
</svg>
