<svg width="24" height="24" viewBox="0 0 24 24" fill="none" xmlns="http://www.w3.org/2000/svg">
<path d="M23.1993 14.0309V10.8426C23.1993 9.73991 22.3036 8.85178 21.1977 8.84679H20.0617L19.6013 9.64511H21.1977C21.8582 9.64511 22.3987 10.179 22.3987 10.8426V14.0309H18C16.8941 14.0309 16.0033 14.924 15.9983 16.0267V16.825C15.9983 17.9277 16.8941 18.8159 18 18.8208H22.3987V22.0141C22.3987 22.6728 21.8632 23.2116 21.1977 23.2116H2.00167C1.34112 23.2116 0.800667 22.6777 0.800667 22.0141V10.8376C0.800667 10.179 1.33611 9.64012 2.00167 9.64012H4.82402L5.2844 8.8418H2.00167C0.895746 8.8418 0.00500417 9.73492 0 10.8376V22.0042C0 23.1068 0.895746 23.995 2.00167 24H21.1977C22.3036 24 23.1943 23.1068 23.1993 22.0042V18.8109H24V14.0259H23.1993V14.0309ZM23.1993 18.0175H18C17.3395 18.0175 16.799 17.4837 16.799 16.82V16.0217C16.799 15.3631 17.3344 14.8242 18 14.8242H23.1993V18.0175Z" fill="#5077F7"/>
<path d="M20.0667 8.84183L21.1476 6.97575C21.3077 6.70132 21.3478 6.37201 21.2677 6.06765C21.1876 5.7583 20.9825 5.49885 20.7072 5.33918L11.6947 0.160058C11.1242 -0.16925 10.3886 0.0253409 10.0584 0.599136L5.28438 8.84183L4.824 9.64015L4.35861 10.4385H2.39697V11.2368H20.7973V10.4385H19.1409L19.6013 9.64015L20.0667 8.84183ZM5.28438 10.4385L5.74476 9.64015L6.20515 8.84183L10.7489 0.993308C10.859 0.803706 11.1042 0.738843 11.2944 0.848612L12.4503 1.51222L7.29105 10.4385H5.28438ZM8.21182 10.4385L13.1509 1.91637L14.5371 2.71469L10.0634 10.4435H8.21182V10.4385ZM18.6805 9.64015L18.2202 10.4385H10.9841L15.2277 3.10887L20.3069 6.03273C20.4971 6.1425 20.5621 6.38698 20.452 6.57658L19.1409 8.84183L18.9658 9.1412L18.6805 9.64015Z" fill="#F6C358"/>
<path d="M17.1992 16.4211C17.1992 17.0797 17.7347 17.6186 18.4002 17.6186C19.0658 17.6186 19.6012 17.0847 19.6012 16.4211C19.6012 15.7575 19.0658 15.2236 18.4002 15.2236C17.7347 15.2236 17.1992 15.7625 17.1992 16.4211ZM18.4002 16.022C18.6204 16.022 18.8006 16.2016 18.8006 16.4211C18.8006 16.6407 18.6204 16.8203 18.4002 16.8203C18.18 16.8203 17.9999 16.6407 17.9999 16.4211C17.9999 16.2016 18.18 16.022 18.4002 16.022Z" fill="#F6C358"/>
<path d="M18.9659 9.146L18.6807 9.63996L18.9659 9.146Z" fill="black"/>
</svg>
