<svg width="21" height="24" viewBox="0 0 21 24" fill="none" xmlns="http://www.w3.org/2000/svg">
<path d="M10.7766 13.0984C10.7325 13.0888 10.6873 13.087 10.6426 13.0938C10.1949 13.0413 9.85722 12.6599 9.85646 12.2063C9.85646 11.9889 9.6814 11.8126 9.46548 11.8126C9.24957 11.8126 9.0745 11.9889 9.0745 12.2063C9.07565 12.9638 9.57888 13.6274 10.3043 13.8279V14.2215C10.3043 14.4389 10.4794 14.6152 10.6953 14.6152C10.9112 14.6152 11.0863 14.4389 11.0863 14.2215V13.8517C11.9236 13.6752 12.4927 12.89 12.4047 12.0333C12.3165 11.1765 11.5996 10.5255 10.7442 10.5253C10.2539 10.5253 9.85646 10.1251 9.85646 9.63147C9.85646 9.13784 10.2539 8.73764 10.7442 8.73764C11.2344 8.73764 11.6319 9.13784 11.6319 9.63147C11.6319 9.84887 11.807 10.0251 12.0229 10.0251C12.2388 10.0251 12.4139 9.84887 12.4139 9.63147C12.4127 8.83605 11.8593 8.15001 11.0863 7.98586V7.62756C11.0863 7.41015 10.9112 7.23389 10.6953 7.23389C10.4794 7.23389 10.3043 7.41015 10.3043 7.62756V8.00988C9.49755 8.23171 8.97829 9.02039 9.08939 9.85502C9.2005 10.6896 9.90781 11.3126 10.7442 11.3124C11.2279 11.3124 11.6225 11.7025 11.6313 12.1894C11.6403 12.6763 11.26 13.0807 10.7766 13.0984Z" fill="#F6C358"/>
<path d="M5.07471 10.9488C5.07471 14.1016 7.61301 16.6574 10.7443 16.6574C13.8755 16.6574 16.4138 14.1016 16.4138 10.9488C16.4138 7.79601 13.8755 5.24023 10.7443 5.24023C7.61454 5.24369 5.07833 7.79755 5.07471 10.9488ZM10.7443 6.02757C13.4437 6.02757 15.6319 8.23082 15.6319 10.9488C15.6319 13.6668 13.4437 15.8701 10.7443 15.8701C8.04484 15.8701 5.85666 13.6668 5.85666 10.9488C5.85972 8.23216 8.04618 6.03065 10.7443 6.02757Z" fill="#F6C358"/>
<path d="M18.3412 17.6281L15.2785 19.0851C14.8556 18.2931 14.0444 17.7891 13.1518 17.7638L10.3244 17.6855C9.87675 17.6727 9.43747 17.5585 9.03942 17.3514L8.75173 17.2013C7.27869 16.4282 5.52291 16.4301 4.0514 17.2063L4.06934 16.5501C4.07526 16.3327 3.90516 16.1516 3.68924 16.1456L0.588908 16.0597C0.372992 16.0538 0.193348 16.225 0.18743 16.4424L0.00014986 23.2928C-0.00576823 23.5102 0.16433 23.6913 0.380247 23.6973L3.48058 23.7832H3.49127C3.70318 23.7832 3.87653 23.6135 3.88225 23.4003L3.89122 23.0725L4.69666 22.6383C5.01281 22.467 5.3824 22.4263 5.72775 22.5247L10.5375 23.8839C10.5459 23.8864 10.5543 23.8883 10.5629 23.8902C10.9105 23.9635 11.2648 24.0002 11.6199 24C12.3721 24.0004 13.1155 23.8372 13.7991 23.5212C13.8159 23.5135 13.8322 23.5045 13.8476 23.4943L20.8213 18.9525C20.995 18.8392 21.0511 18.6095 20.9494 18.4281C20.4316 17.5031 19.2833 17.1508 18.3412 17.6281ZM0.792607 22.9211L0.958314 16.8576L3.27688 16.9218L3.11118 22.9855L0.792607 22.9211ZM13.4469 22.818C12.5976 23.204 11.6489 23.3105 10.736 23.1227L5.93928 21.767C5.39939 21.6134 4.82152 21.677 4.32764 21.9444L3.91604 22.1664L4.0262 18.1349C5.33048 17.2615 7.00321 17.1717 8.39225 17.9004L8.67995 18.0506C9.1828 18.312 9.73738 18.4561 10.303 18.4727L13.1306 18.5509C13.9247 18.574 14.5992 19.1433 14.7603 19.9268L10.5487 19.8098C10.3328 19.8038 10.1532 19.9753 10.1471 20.1925C10.1412 20.4099 10.3114 20.591 10.5272 20.5969L15.175 20.7257H15.1859C15.3976 20.7255 15.5707 20.5558 15.5765 20.3428C15.5812 20.1717 15.5686 20.0005 15.5387 19.8321L18.6801 18.3375C18.6831 18.3362 18.6862 18.3347 18.6892 18.3331C19.1348 18.1061 19.6735 18.182 20.0401 18.5236L13.4469 22.818Z" fill="#5077F7"/>
<path d="M11.1352 4.13353V0.39367C11.1352 0.176267 10.9602 0 10.7442 0C10.5283 0 10.3533 0.176267 10.3533 0.39367V4.13353C10.3533 4.35093 10.5283 4.5272 10.7442 4.5272C10.9602 4.5272 11.1352 4.35093 11.1352 4.13353Z" fill="#5077F7"/>
<path d="M14.0676 4.13344V2.36193C14.0676 2.14453 13.8925 1.96826 13.6766 1.96826C13.4607 1.96826 13.2856 2.14453 13.2856 2.36193V4.13344C13.2856 4.35085 13.4607 4.52711 13.6766 4.52711C13.8925 4.52711 14.0676 4.35085 14.0676 4.13344Z" fill="#5077F7"/>
<path d="M8.20286 4.13344V2.36193C8.20286 2.14453 8.02779 1.96826 7.81188 1.96826C7.59596 1.96826 7.4209 2.14453 7.4209 2.36193V4.13344C7.4209 4.35085 7.59596 4.52711 7.81188 4.52711C8.02779 4.52711 8.20286 4.35085 8.20286 4.13344Z" fill="#5077F7"/>
</svg>
