<svg width="12" height="13" viewBox="0 0 12 13" fill="none" xmlns="http://www.w3.org/2000/svg">
<path d="M1.875 2.39844C3.01562 1.25781 4.39062 0.6875 6 0.6875C7.60938 0.6875 8.97656 1.25781 10.1016 2.39844C11.2422 3.52344 11.8125 4.89062 11.8125 6.5C11.8125 8.10938 11.2422 9.48438 10.1016 10.625C8.97656 11.75 7.60938 12.3125 6 12.3125C4.39062 12.3125 3.01562 11.75 1.875 10.625C0.75 9.48438 0.1875 8.10938 0.1875 6.5C0.1875 4.89062 0.75 3.52344 1.875 2.39844ZM2.67188 9.82812C3.59375 10.7344 4.70312 11.1875 6 11.1875C7.29688 11.1875 8.39844 10.7344 9.30469 9.82812C10.2266 8.90625 10.6875 7.79688 10.6875 6.5C10.6875 5.20312 10.2266 4.10156 9.30469 3.19531C8.39844 2.27344 7.29688 1.8125 6 1.8125C4.70312 1.8125 3.59375 2.27344 2.67188 3.19531C1.76562 4.10156 1.3125 5.20312 1.3125 6.5C1.3125 7.79688 1.76562 8.90625 2.67188 9.82812ZM7.45312 8.75L5.46094 7.29688C5.38281 7.23438 5.34375 7.15625 5.34375 7.0625V3.21875C5.34375 3.03125 5.4375 2.9375 5.625 2.9375H6.375C6.5625 2.9375 6.65625 3.03125 6.65625 3.21875V6.54688L8.22656 7.67188C8.36719 7.78125 8.38281 7.91406 8.27344 8.07031L7.85156 8.67969C7.74219 8.83594 7.60938 8.85938 7.45312 8.75Z" fill="#A1A1A1"/>
</svg>
