<svg width="33" height="40" viewBox="0 0 33 40" fill="none" xmlns="http://www.w3.org/2000/svg">
<path d="M27.7078 11.875H16.5001C16.0702 11.875 15.7218 12.2248 15.7218 12.6562C15.7218 13.0877 16.0702 13.4375 16.5001 13.4375H27.7078C28.1377 13.4375 28.4861 13.0877 28.4861 12.6562C28.4861 12.2248 28.1377 11.875 27.7078 11.875Z" fill="#F6C358"/>
<path fill-rule="evenodd" clip-rule="evenodd" d="M27.7078 12.075H16.5001C16.1814 12.075 15.9218 12.3345 15.9218 12.6562C15.9218 12.978 16.1814 13.2375 16.5001 13.2375H27.7078C28.0265 13.2375 28.2861 12.978 28.2861 12.6562C28.2861 12.3345 28.0265 12.075 27.7078 12.075ZM16.5001 11.875H27.7078C28.1377 11.875 28.4861 12.2248 28.4861 12.6562C28.4861 13.0877 28.1377 13.4375 27.7078 13.4375H16.5001C16.0702 13.4375 15.7218 13.0877 15.7218 12.6562C15.7218 12.2248 16.0702 11.875 16.5001 11.875Z" fill="white"/>
<path d="M24.9852 15.8539C24.8404 15.7086 24.6396 15.625 24.4349 15.625C24.2302 15.625 24.0294 15.7086 23.8847 15.8539C23.7399 15.9992 23.6566 16.2008 23.6566 16.4062C23.6566 16.6117 23.7399 16.8133 23.8847 16.9586C24.0294 17.1039 24.2302 17.1875 24.4349 17.1875C24.6396 17.1875 24.8404 17.1039 24.9852 16.9586C25.1299 16.8133 25.2132 16.6117 25.2132 16.4062C25.2132 16.2008 25.1299 15.9992 24.9852 15.8539Z" fill="#F6C358"/>
<path fill-rule="evenodd" clip-rule="evenodd" d="M24.8435 15.9951C24.7361 15.8873 24.5863 15.825 24.4349 15.825C24.2836 15.825 24.1337 15.8873 24.0263 15.9951C23.919 16.1029 23.8566 16.2537 23.8566 16.4062C23.8566 16.5588 23.919 16.7096 24.0263 16.8174C24.1337 16.9252 24.2836 16.9875 24.4349 16.9875C24.5863 16.9875 24.7361 16.9252 24.8435 16.8174C24.9509 16.7096 25.0132 16.5588 25.0132 16.4062C25.0132 16.2537 24.9509 16.1029 24.8435 15.9951ZM24.4349 15.625C24.6396 15.625 24.8404 15.7086 24.9852 15.8539C25.1299 15.9992 25.2132 16.2008 25.2132 16.4062C25.2132 16.6117 25.1299 16.8133 24.9852 16.9586C24.8404 17.1039 24.6396 17.1875 24.4349 17.1875C24.2302 17.1875 24.0294 17.1039 23.8847 16.9586C23.7399 16.8133 23.6566 16.6117 23.6566 16.4062C23.6566 16.2008 23.7399 15.9992 23.8847 15.8539C24.0294 15.7086 24.2302 15.625 24.4349 15.625Z" fill="white"/>
<path d="M17.0504 3.58828C16.9056 3.44297 16.7048 3.35938 16.5001 3.35938C16.2954 3.35938 16.0946 3.44297 15.9498 3.58828C15.8051 3.73359 15.7218 3.93516 15.7218 4.14062C15.7218 4.34609 15.8051 4.54765 15.9498 4.69297C16.0946 4.83828 16.2954 4.92187 16.5001 4.92187C16.7048 4.92187 16.9056 4.83828 17.0504 4.69297C17.1951 4.54765 17.2784 4.34609 17.2784 4.14062C17.2784 3.93516 17.1951 3.73359 17.0504 3.58828Z" fill="#F6C358"/>
<path fill-rule="evenodd" clip-rule="evenodd" d="M16.9087 3.72943C16.8013 3.62166 16.6514 3.55938 16.5001 3.55938C16.3488 3.55938 16.1989 3.62166 16.0915 3.72943C15.9841 3.83723 15.9218 3.98803 15.9218 4.14062C15.9218 4.29322 15.9841 4.44401 16.0915 4.55181C16.1989 4.65959 16.3488 4.72187 16.5001 4.72187C16.6514 4.72187 16.8013 4.65959 16.9087 4.55181C17.0161 4.44401 17.0784 4.29322 17.0784 4.14062C17.0784 3.98803 17.0161 3.83723 16.9087 3.72943ZM16.5001 3.35938C16.7048 3.35938 16.9056 3.44297 17.0504 3.58828C17.1951 3.73359 17.2784 3.93516 17.2784 4.14062C17.2784 4.34609 17.1951 4.54765 17.0504 4.69297C16.9056 4.83828 16.7048 4.92187 16.5001 4.92187C16.2954 4.92187 16.0946 4.83828 15.9498 4.69297C15.8051 4.54765 15.7218 4.34609 15.7218 4.14062C15.7218 3.93516 15.8051 3.73359 15.9498 3.58828C16.0946 3.44297 16.2954 3.35938 16.5001 3.35938Z" fill="white"/>
<path d="M21.1604 15.625H16.5001C16.0702 15.625 15.7218 15.9748 15.7218 16.4062C15.7218 16.8377 16.0702 17.1875 16.5001 17.1875H21.1604C21.5902 17.1875 21.9387 16.8377 21.9387 16.4062C21.9387 15.9748 21.5902 15.625 21.1604 15.625Z" fill="#F6C358"/>
<path fill-rule="evenodd" clip-rule="evenodd" d="M21.1604 15.825H16.5001C16.1814 15.825 15.9218 16.0845 15.9218 16.4062C15.9218 16.728 16.1814 16.9875 16.5001 16.9875H21.1604C21.479 16.9875 21.7387 16.728 21.7387 16.4062C21.7387 16.0845 21.479 15.825 21.1604 15.825ZM16.5001 15.625H21.1604C21.5902 15.625 21.9387 15.9748 21.9387 16.4062C21.9387 16.8377 21.5902 17.1875 21.1604 17.1875H16.5001C16.0702 17.1875 15.7218 16.8377 15.7218 16.4062C15.7218 15.9748 16.0702 15.625 16.5001 15.625Z" fill="white"/>
<path d="M27.7078 20.3125H16.5001C16.0702 20.3125 15.7218 20.6623 15.7218 21.0937C15.7218 21.5252 16.0702 21.875 16.5001 21.875H27.7078C28.1377 21.875 28.4861 21.5252 28.4861 21.0937C28.4861 20.6623 28.1377 20.3125 27.7078 20.3125Z" fill="#F6C358"/>
<path fill-rule="evenodd" clip-rule="evenodd" d="M27.7078 20.5125H16.5001C16.1814 20.5125 15.9218 20.772 15.9218 21.0937C15.9218 21.4155 16.1814 21.675 16.5001 21.675H27.7078C28.0265 21.675 28.2861 21.4155 28.2861 21.0937C28.2861 20.772 28.0265 20.5125 27.7078 20.5125ZM16.5001 20.3125H27.7078C28.1377 20.3125 28.4861 20.6623 28.4861 21.0937C28.4861 21.5252 28.1377 21.875 27.7078 21.875H16.5001C16.0702 21.875 15.7218 21.5252 15.7218 21.0937C15.7218 20.6623 16.0702 20.3125 16.5001 20.3125Z" fill="white"/>
<path d="M24.9852 24.2914C24.8404 24.1461 24.6396 24.0625 24.4349 24.0625C24.2302 24.0625 24.0294 24.1461 23.8847 24.2914C23.7399 24.4367 23.6566 24.6383 23.6566 24.8437C23.6566 25.0492 23.7399 25.2508 23.8847 25.3961C24.0294 25.5414 24.2302 25.625 24.4349 25.625C24.6396 25.625 24.8404 25.5414 24.9852 25.3961C25.1299 25.2508 25.2132 25.0492 25.2132 24.8437C25.2132 24.6383 25.1299 24.4367 24.9852 24.2914Z" fill="#F6C358"/>
<path fill-rule="evenodd" clip-rule="evenodd" d="M24.8435 24.4326C24.7361 24.3248 24.5863 24.2625 24.4349 24.2625C24.2836 24.2625 24.1337 24.3248 24.0263 24.4326C23.919 24.5404 23.8566 24.6912 23.8566 24.8437C23.8566 24.9963 23.919 25.1471 24.0263 25.2549C24.1337 25.3627 24.2836 25.425 24.4349 25.425C24.5863 25.425 24.7361 25.3627 24.8435 25.2549C24.9509 25.1471 25.0132 24.9963 25.0132 24.8437C25.0132 24.6912 24.9509 24.5404 24.8435 24.4326ZM24.4349 24.0625C24.6396 24.0625 24.8404 24.1461 24.9852 24.2914C25.1299 24.4367 25.2132 24.6383 25.2132 24.8437C25.2132 25.0492 25.1299 25.2508 24.9852 25.3961C24.8404 25.5414 24.6396 25.625 24.4349 25.625C24.2302 25.625 24.0294 25.5414 23.8847 25.3961C23.7399 25.2508 23.6566 25.0492 23.6566 24.8437C23.6566 24.6383 23.7399 24.4367 23.8847 24.2914C24.0294 24.1461 24.2302 24.0625 24.4349 24.0625Z" fill="white"/>
<path d="M21.1604 24.0625H16.5001C16.0702 24.0625 15.7218 24.4123 15.7218 24.8437C15.7218 25.2752 16.0702 25.625 16.5001 25.625H21.1604C21.5902 25.625 21.9387 25.2752 21.9387 24.8437C21.9387 24.4123 21.5902 24.0625 21.1604 24.0625Z" fill="#F6C358"/>
<path fill-rule="evenodd" clip-rule="evenodd" d="M21.1604 24.2625H16.5001C16.1814 24.2625 15.9218 24.522 15.9218 24.8437C15.9218 25.1655 16.1814 25.425 16.5001 25.425H21.1604C21.479 25.425 21.7387 25.1655 21.7387 24.8437C21.7387 24.522 21.479 24.2625 21.1604 24.2625ZM16.5001 24.0625H21.1604C21.5902 24.0625 21.9387 24.4123 21.9387 24.8437C21.9387 25.2752 21.5902 25.625 21.1604 25.625H16.5001C16.0702 25.625 15.7218 25.2752 15.7218 24.8437C15.7218 24.4123 16.0702 24.0625 16.5001 24.0625Z" fill="white"/>
<path d="M27.7078 28.75H16.5001C16.0702 28.75 15.7218 29.0998 15.7218 29.5312C15.7218 29.9627 16.0702 30.3125 16.5001 30.3125H27.7078C28.1377 30.3125 28.4861 29.9627 28.4861 29.5312C28.4861 29.0998 28.1377 28.75 27.7078 28.75Z" fill="#F6C358"/>
<path fill-rule="evenodd" clip-rule="evenodd" d="M27.7078 28.95H16.5001C16.1814 28.95 15.9218 29.2095 15.9218 29.5312C15.9218 29.853 16.1814 30.1125 16.5001 30.1125H27.7078C28.0265 30.1125 28.2861 29.853 28.2861 29.5312C28.2861 29.2095 28.0265 28.95 27.7078 28.95ZM16.5001 28.75H27.7078C28.1377 28.75 28.4861 29.0998 28.4861 29.5312C28.4861 29.9627 28.1377 30.3125 27.7078 30.3125H16.5001C16.0702 30.3125 15.7218 29.9627 15.7218 29.5312C15.7218 29.0998 16.0702 28.75 16.5001 28.75Z" fill="white"/>
<path d="M24.9852 32.7289C24.8404 32.5836 24.6396 32.5 24.4349 32.5C24.2302 32.5 24.0294 32.5836 23.8847 32.7289C23.7399 32.8742 23.6566 33.0758 23.6566 33.2812C23.6566 33.4867 23.7399 33.6883 23.8847 33.8336C24.0294 33.9789 24.2302 34.0625 24.4349 34.0625C24.6396 34.0625 24.8404 33.9789 24.9852 33.8336C25.1299 33.6883 25.2132 33.4867 25.2132 33.2812C25.2132 33.0758 25.1299 32.8742 24.9852 32.7289Z" fill="#F6C358"/>
<path fill-rule="evenodd" clip-rule="evenodd" d="M24.8435 32.8701C24.7361 32.7623 24.5863 32.7 24.4349 32.7C24.2836 32.7 24.1337 32.7623 24.0263 32.8701C23.919 32.9779 23.8566 33.1287 23.8566 33.2812C23.8566 33.4338 23.919 33.5846 24.0263 33.6924C24.1337 33.8002 24.2836 33.8625 24.4349 33.8625C24.5863 33.8625 24.7361 33.8002 24.8435 33.6924C24.9509 33.5846 25.0132 33.4338 25.0132 33.2812C25.0132 33.1287 24.9509 32.9779 24.8435 32.8701ZM24.4349 32.5C24.6396 32.5 24.8404 32.5836 24.9852 32.7289C25.1299 32.8742 25.2132 33.0758 25.2132 33.2812C25.2132 33.4867 25.1299 33.6883 24.9852 33.8336C24.8404 33.9789 24.6396 34.0625 24.4349 34.0625C24.2302 34.0625 24.0294 33.9789 23.8847 33.8336C23.7399 33.6883 23.6566 33.4867 23.6566 33.2812C23.6566 33.0758 23.7399 32.8742 23.8847 32.7289C24.0294 32.5836 24.2302 32.5 24.4349 32.5Z" fill="white"/>
<path d="M21.1604 32.5H16.5001C16.0702 32.5 15.7218 32.8498 15.7218 33.2812C15.7218 33.7127 16.0702 34.0625 16.5001 34.0625H21.1604C21.5902 34.0625 21.9387 33.7127 21.9387 33.2812C21.9387 32.8498 21.5902 32.5 21.1604 32.5Z" fill="#F6C358"/>
<path fill-rule="evenodd" clip-rule="evenodd" d="M21.1604 32.7H16.5001C16.1814 32.7 15.9218 32.9595 15.9218 33.2812C15.9218 33.603 16.1814 33.8625 16.5001 33.8625H21.1604C21.479 33.8625 21.7387 33.603 21.7387 33.2812C21.7387 32.9595 21.479 32.7 21.1604 32.7ZM16.5001 32.5H21.1604C21.5902 32.5 21.9387 32.8498 21.9387 33.2812C21.9387 33.7127 21.5902 34.0625 21.1604 34.0625H16.5001C16.0702 34.0625 15.7218 33.7127 15.7218 33.2812C15.7218 32.8498 16.0702 32.5 16.5001 32.5Z" fill="white"/>
<path d="M29.2052 3.04695H23.2606C22.4013 2.225 21.2397 1.71875 19.9618 1.71875H19.28C18.7588 0.682967 17.6879 0 16.5 0C15.312 0 14.2412 0.682967 13.7199 1.71875H13.0365C11.7586 1.71875 10.5971 2.225 9.73775 3.04695H3.79485C1.70238 3.04695 0 4.75577 0 6.85616V36.1908C0 38.2912 1.70238 40 3.79485 40H29.2051C31.2976 40 33 38.2912 33 36.1908V6.85616C33.0001 4.75577 31.2977 3.04695 29.2052 3.04695ZM13.0366 3.28124H14.2497C14.5997 3.28124 14.9067 3.04663 14.9999 2.70796C15.1855 2.03351 15.8024 1.5625 16.5 1.5625C17.1977 1.5625 17.8146 2.03351 18.0001 2.70796C18.0933 3.04663 18.4003 3.28124 18.7503 3.28124H19.9618C21.6511 3.28124 23.0416 4.58984 23.1804 6.25007H9.81799C9.95676 4.58984 11.3474 3.28124 13.0366 3.28124ZM31.4435 36.1909C31.4435 37.4297 30.4394 38.4376 29.2052 38.4376H3.79485C2.5607 38.4376 1.55661 37.4297 1.55661 36.1909V6.85616C1.55661 5.61733 2.5607 4.60944 3.79485 4.60944H8.64734C8.39237 5.19632 8.25002 5.84335 8.25002 6.5235V7.03131C8.25002 7.4628 8.59847 7.81256 9.02832 7.81256H23.9701C24.4 7.81256 24.7484 7.4628 24.7484 7.03131V6.5235C24.7484 5.84343 24.6061 5.19632 24.3511 4.60944H29.2052C30.4394 4.60944 31.4435 5.61733 31.4435 6.85616V36.1909Z" fill="#5077F7"/>
<path fill-rule="evenodd" clip-rule="evenodd" d="M23.1804 3.24695L23.1224 3.19148C22.2985 2.4034 21.1857 1.91875 19.9618 1.91875H19.1567L19.1013 1.80865C18.6133 0.838867 17.6106 0.2 16.5 0.2C15.3893 0.2 14.3867 0.838861 13.8986 1.80866L13.8432 1.91875H13.0365C11.8126 1.91875 10.6999 2.4034 9.87599 3.19148L9.818 3.24695H3.79485C1.81355 3.24695 0.2 4.86552 0.2 6.85616V36.1908C0.2 38.1814 1.81355 39.8 3.79485 39.8H29.2051C31.1864 39.8 32.8 38.1814 32.8 36.1908V6.85615C32.8001 4.86552 31.1865 3.24695 29.2052 3.24695H23.1804ZM14.807 2.65489C15.0165 1.89397 15.712 1.3625 16.5 1.3625C17.2881 1.3625 17.9836 1.89397 18.193 2.65491L18.0001 2.70796C17.8146 2.03351 17.1977 1.5625 16.5 1.5625C15.8024 1.5625 15.1855 2.03351 14.9999 2.70796C14.9067 3.04663 14.5997 3.28124 14.2497 3.28124H13.0366C11.4158 3.28124 10.0699 4.48595 9.84096 6.05007C9.83129 6.11611 9.82361 6.1828 9.81799 6.25007H23.1804C23.1748 6.1828 23.1671 6.11611 23.1574 6.05007C22.9284 4.48595 21.5826 3.28124 19.9618 3.28124H18.7503C18.4003 3.28124 18.0933 3.04663 18.0001 2.70796L18.193 2.65491C18.2624 2.90721 18.4908 3.08124 18.7503 3.08124H19.9618C21.7567 3.08124 23.2324 4.47113 23.3797 6.23341L23.3978 6.45007H9.60058L9.61869 6.23341C9.76599 4.47112 11.2418 3.08124 13.0366 3.08124H14.2497C14.5093 3.08124 14.7376 2.9072 14.807 2.65489ZM8.9523 4.40944L8.83078 4.68914C8.58643 5.25156 8.45002 5.87151 8.45002 6.5235V7.03131C8.45002 7.35305 8.70963 7.61256 9.02832 7.61256H23.9701C24.2888 7.61256 24.5484 7.35305 24.5484 7.03131V6.5235C24.5484 5.87159 24.412 5.25156 24.1677 4.68914L24.0461 4.40944H29.2052C30.5506 4.40944 31.6435 5.50759 31.6435 6.85616V36.1909C31.6435 37.5394 30.5506 38.6376 29.2052 38.6376H3.79485C2.44953 38.6376 1.35661 37.5394 1.35661 36.1909V6.85616C1.35661 5.50759 2.44953 4.40944 3.79485 4.40944H8.9523ZM29.2052 4.60944C30.4394 4.60944 31.4435 5.61733 31.4435 6.85616V36.1909C31.4435 37.4297 30.4394 38.4376 29.2052 38.4376H3.79485C2.5607 38.4376 1.55661 37.4297 1.55661 36.1909V6.85616C1.55661 5.61733 2.5607 4.60944 3.79485 4.60944H8.64734C8.6187 4.67536 8.59149 4.74204 8.56573 4.80944C8.36219 5.34209 8.25002 5.91975 8.25002 6.5235V7.03131C8.25002 7.4628 8.59847 7.81256 9.02832 7.81256H23.9701C24.4 7.81256 24.7484 7.4628 24.7484 7.03131V6.5235C24.7484 5.91981 24.6363 5.3421 24.4327 4.80944C24.407 4.74204 24.3797 4.67536 24.3511 4.60944H29.2052ZM23.2606 3.04695H29.2052C31.2977 3.04695 33.0001 4.75577 33 6.85616V36.1908C33 38.2912 31.2976 40 29.2051 40H3.79485C1.70238 40 0 38.2912 0 36.1908V6.85616C0 4.75577 1.70238 3.04695 3.79485 3.04695H9.73775C10.5971 2.225 11.7586 1.71875 13.0365 1.71875H13.7199C14.2412 0.682967 15.312 0 16.5 0C17.6879 0 18.7588 0.682967 19.28 1.71875H19.9618C21.2397 1.71875 22.4013 2.225 23.2606 3.04695Z" fill="white"/>
<path d="M11.553 11.6873C11.249 11.3822 10.7562 11.3822 10.4523 11.6872L7.1241 15.0281L6.09884 13.9989C5.79491 13.6939 5.30209 13.6939 4.99809 13.9989C4.69416 14.304 4.69416 14.7986 4.99809 15.1038L6.57376 16.6854C6.72577 16.838 6.92493 16.9143 7.1241 16.9143C7.32327 16.9143 7.52251 16.838 7.67444 16.6854L11.553 12.7922C11.8569 12.4872 11.8569 11.9925 11.553 11.6873Z" fill="#F6C358"/>
<path fill-rule="evenodd" clip-rule="evenodd" d="M7.67444 16.6854L11.553 12.7922C11.8569 12.4872 11.8569 11.9925 11.553 11.6873C11.249 11.3822 10.7562 11.3822 10.4523 11.6872L7.12413 15.0281L6.09884 13.9989C5.79491 13.6939 5.30209 13.6939 4.99809 13.9989C4.69416 14.304 4.69416 14.7986 4.99809 15.1038L6.57376 16.6854C6.72577 16.838 6.92493 16.9143 7.1241 16.9143C7.32327 16.9143 7.52251 16.838 7.67444 16.6854ZM5.13974 14.1401C4.91361 14.3671 4.91359 14.7355 5.13979 14.9627L6.71545 16.5443C6.82849 16.6577 6.97604 16.7143 7.1241 16.7143C7.27219 16.7143 7.41979 16.6577 7.53272 16.5443L11.4113 12.6511C11.6374 12.4241 11.6375 12.0556 11.4113 11.8284C11.1855 11.6018 10.8197 11.6019 10.594 11.8284L7.1241 15.3115L5.95717 14.14C5.95716 14.14 5.95718 14.1401 5.95717 14.14C5.73143 13.9135 5.36559 13.9135 5.13974 14.1401Z" fill="white"/>
<path d="M9.651 28.75H5.91514C5.48529 28.75 5.13684 29.0998 5.13684 29.5312V33.2812C5.13684 33.7127 5.48529 34.0625 5.91514 34.0625H9.651C10.0809 34.0625 10.4293 33.7127 10.4293 33.2812V29.5312C10.4293 29.0998 10.0809 28.75 9.651 28.75ZM8.8727 32.5H6.69345V30.3125H8.8727V32.5Z" fill="#F6C358"/>
<path fill-rule="evenodd" clip-rule="evenodd" d="M9.0727 32.7H6.49345V30.1125H9.0727V32.7ZM9.651 28.95H5.91514C5.59646 28.95 5.33684 29.2095 5.33684 29.5312V33.2812C5.33684 33.603 5.59646 33.8625 5.91514 33.8625H9.651C9.96969 33.8625 10.2293 33.603 10.2293 33.2812V29.5312C10.2293 29.2095 9.96969 28.95 9.651 28.95ZM5.91514 28.75H9.651C10.0809 28.75 10.4293 29.0998 10.4293 29.5312V33.2812C10.4293 33.7127 10.0809 34.0625 9.651 34.0625H5.91514C5.48529 34.0625 5.13684 33.7127 5.13684 33.2812V29.5312C5.13684 29.0998 5.48529 28.75 5.91514 28.75ZM8.8727 32.5V30.3125H6.69345V32.5H8.8727Z" fill="white"/>
<path d="M9.651 20.3125H5.91514C5.48529 20.3125 5.13684 20.6623 5.13684 21.0937V24.8437C5.13684 25.2752 5.48529 25.625 5.91514 25.625H9.651C10.0809 25.625 10.4293 25.2752 10.4293 24.8437V21.0937C10.4293 20.6623 10.0809 20.3125 9.651 20.3125ZM8.8727 24.0625H6.69345V21.875H8.8727V24.0625Z" fill="#F6C358"/>
<path fill-rule="evenodd" clip-rule="evenodd" d="M9.0727 24.2625H6.49345V21.675H9.0727V24.2625ZM9.651 20.5125H5.91514C5.59646 20.5125 5.33684 20.772 5.33684 21.0937V24.8437C5.33684 25.1655 5.59646 25.425 5.91514 25.425H9.651C9.96969 25.425 10.2293 25.1655 10.2293 24.8437V21.0937C10.2293 20.772 9.96969 20.5125 9.651 20.5125ZM5.91514 20.3125H9.651C10.0809 20.3125 10.4293 20.6623 10.4293 21.0937V24.8437C10.4293 25.2752 10.0809 25.625 9.651 25.625H5.91514C5.48529 25.625 5.13684 25.2752 5.13684 24.8437V21.0937C5.13684 20.6623 5.48529 20.3125 5.91514 20.3125ZM8.8727 24.0625V21.875H6.69345V24.0625H8.8727Z" fill="white"/>
</svg>
