<svg width="16" height="17" viewBox="0 0 16 17" fill="none" xmlns="http://www.w3.org/2000/svg">
<path d="M14.6445 7.05469L15.418 7.86328C15.582 8.02734 15.6641 8.22656 15.6641 8.46094C15.6641 8.69531 15.582 8.89453 15.418 9.05859L8.59766 15.8789C8.43359 16.043 8.23438 16.125 8 16.125C7.76562 16.125 7.56641 16.043 7.40234 15.8789L0.582031 9.05859C0.417969 8.89453 0.335938 8.69531 0.335938 8.46094C0.335938 8.22656 0.417969 8.02734 0.582031 7.86328L1.35547 7.05469C1.51953 6.89062 1.71875 6.82031 1.95312 6.84375C2.1875 6.84375 2.38672 6.92578 2.55078 7.08984L6.59375 11.3086V1.21875C6.59375 0.984375 6.67578 0.785156 6.83984 0.621094C7.00391 0.457031 7.20312 0.375 7.4375 0.375H8.5625C8.79688 0.375 8.99609 0.457031 9.16016 0.621094C9.32422 0.785156 9.40625 0.984375 9.40625 1.21875V11.3086L13.4492 7.08984C13.6133 6.92578 13.8125 6.84375 14.0469 6.84375C14.2812 6.82031 14.4805 6.89062 14.6445 7.05469Z" fill="#EB383D"/>
</svg>
