<svg width="25" height="24" viewBox="0 0 25 24" fill="none" xmlns="http://www.w3.org/2000/svg">
<path d="M20.2999 12.6987C20.1029 12.6987 19.9395 12.8567 19.9395 13.0577C19.9395 13.3066 19.7377 13.5125 19.4831 13.5125C19.2332 13.5125 19.0266 13.3114 19.0266 13.0577C19.0266 12.8615 18.8681 12.6987 18.6663 12.6987C18.4645 12.6987 18.3059 12.8567 18.3059 13.0577C18.3059 13.6991 18.8296 14.2257 19.4783 14.2257C20.1269 14.2257 20.6506 13.7039 20.6506 13.0577C20.6602 12.8567 20.4968 12.6987 20.2999 12.6987Z" fill="#5077F7"/>
<path d="M11.9925 0.0766602C12.6748 0.205898 13.309 0.473948 13.8615 0.856875C13.2994 0.464375 12.6652 0.201112 11.9925 0.0766602ZM14.2843 1.18236C14.342 1.23023 14.3948 1.2781 14.4477 1.33075C14.3948 1.2781 14.342 1.23023 14.2843 1.18236ZM23.6583 12.7564L22.6493 12.4357C22.5196 12.3926 22.4187 12.2921 22.3754 12.1628C22.164 11.4879 21.8421 10.8609 21.4241 10.2865C21.2319 10.028 21.0205 9.7743 20.7899 9.53976C20.9388 8.88878 21.0205 8.15643 21.0109 7.51982C20.9965 6.61036 20.8139 6.07905 20.4536 5.89237C20.2614 5.79186 19.6704 5.48551 16.4753 6.94064C16.3984 6.97415 16.3311 7.01722 16.2639 7.06509C16.0477 7.00765 15.8266 6.955 15.6056 6.90713C15.5816 6.90235 15.5576 6.89756 15.5336 6.89277C15.4279 7.12253 15.3077 7.33793 15.1732 7.54854C15.2693 7.56768 15.3606 7.58683 15.4519 7.60598C15.5816 7.6347 15.7065 7.66342 15.8363 7.69692C15.8314 7.71128 15.8266 7.72564 15.8266 7.74479C15.6537 8.56808 15.6633 9.30043 15.8603 9.91312C16.038 10.4636 16.3552 10.9135 16.8116 11.2438C17.3449 11.6315 17.9888 11.799 18.5749 11.799C19.0121 11.799 19.4205 11.7033 19.7184 11.5358C20.0548 11.3443 20.3382 10.947 20.5593 10.3439C20.665 10.4636 20.7611 10.588 20.8523 10.7125C21.2271 11.2199 21.5106 11.7847 21.698 12.383C21.8085 12.7324 22.0823 13.01 22.4331 13.1249L23.4421 13.4456C23.7063 13.5318 23.8841 13.7711 23.8841 14.0487V15.7145C23.8841 15.9921 23.7063 16.2314 23.4421 16.3176L21.8181 16.8345C21.5586 16.9159 21.3376 17.0978 21.1983 17.3371C20.5593 18.4333 19.5599 19.3427 18.2194 20.0368C18.0656 20.1181 17.9551 20.2617 17.9263 20.4293L17.4074 23.172C17.393 23.2486 17.3257 23.3012 17.2488 23.3012H15.5576C15.4807 23.3012 15.4134 23.2486 15.399 23.172L15.1107 21.6546C15.0531 21.3579 14.7744 21.1568 14.4717 21.2047C13.7414 21.3148 12.9919 21.3722 12.2423 21.3722C11.685 21.3722 11.1325 21.3435 10.5991 21.2813C10.3061 21.2478 10.0322 21.4488 9.97934 21.736L9.70547 23.1768C9.69106 23.2534 9.62379 23.306 9.54691 23.306H7.85566C7.77879 23.306 7.71152 23.2534 7.69711 23.172L7.19742 20.5824C7.16379 20.4149 7.05809 20.2713 6.90914 20.1947C4.62691 18.9789 3.41613 16.9494 3.41613 14.3264C3.41613 13.0005 3.70922 11.8278 4.28098 10.8417C4.8143 9.92269 5.60227 9.15683 6.60645 8.57765C6.77941 8.47714 6.83707 8.26174 6.73617 8.08942C6.63527 7.91711 6.41906 7.85967 6.24609 7.96018C4.29059 9.08503 3.11344 10.8226 2.78672 13.0292C2.75309 13.0244 2.71945 13.0244 2.68102 13.0196C2.68582 12.7803 2.64258 12.541 2.55129 12.3064C2.34469 11.7942 1.91707 11.4209 1.46543 11.3587C1.10988 11.3108 0.76875 11.464 0.53332 11.7703C0.192188 12.2203 0.245039 12.5745 0.355547 12.7946C0.538125 13.1632 0.999375 13.4265 1.76812 13.5892C1.74891 13.6227 1.72488 13.6514 1.69605 13.685C1.24922 14.2498 0.715898 14.3742 0.365156 14.3886C0.163359 14.3934 0 14.5561 0 14.7619C0 14.963 0.158555 15.1257 0.360352 15.1353C0.384375 15.1353 0.413203 15.1353 0.442031 15.1353C0.884062 15.1353 1.58555 14.9725 2.26781 14.1253C2.37352 13.9913 2.46 13.8525 2.52727 13.7041C2.59453 13.7137 2.6618 13.7185 2.71945 13.7232C2.70984 13.9147 2.70023 14.111 2.70023 14.312C2.70023 15.7958 3.05578 17.1217 3.75727 18.2466C4.4059 19.2853 5.3284 20.1373 6.51035 20.7739L6.99563 23.2917C7.0725 23.7033 7.43766 24.0001 7.85566 24.0001H9.54691C9.96973 24.0001 10.3301 23.7033 10.407 23.2917L10.652 21.9897C11.1661 22.0424 11.6994 22.0711 12.2375 22.0711C12.9775 22.0711 13.7126 22.0184 14.4333 21.9179L14.6927 23.2917C14.7696 23.7033 15.1348 24.0001 15.5528 24.0001H17.2488C17.6716 24.0001 18.032 23.7033 18.1089 23.2917L18.6134 20.6207C20.0452 19.8692 21.1214 18.8784 21.8181 17.677C21.8661 17.5908 21.9478 17.5286 22.0343 17.4999L23.6583 16.9829C24.2204 16.801 24.6 16.2889 24.6 15.7001V14.0344C24.6 13.4504 24.2204 12.9382 23.6583 12.7564ZM20.2421 8.52022C20.1028 9.69293 19.7329 10.6981 19.3629 10.9087C18.9401 11.1481 17.9647 11.1911 17.2344 10.6598C16.5041 10.1237 16.2591 9.16641 16.5281 7.8836C16.5425 7.81659 16.5714 7.75915 16.6146 7.70649C16.6579 7.65384 16.7107 7.61076 16.7732 7.58204C18.5653 6.76354 19.5983 6.49549 19.9827 6.49549C20.0404 6.49549 20.0836 6.50027 20.1124 6.51463C20.2277 6.63908 20.3815 7.33314 20.2421 8.52022ZM1.00418 12.4787C0.965742 12.4021 1.05223 12.2681 1.10988 12.1963C1.19637 12.0814 1.27805 12.0575 1.34051 12.0575C1.35492 12.0575 1.36453 12.0575 1.37895 12.0575C1.5423 12.0814 1.77293 12.2585 1.89785 12.5649C1.92668 12.6367 1.96512 12.7516 1.97473 12.9C1.47504 12.7994 1.09066 12.651 1.00418 12.4787Z" fill="#5077F7"/>
<path d="M11.4305 4.45153V3.17351C11.8725 3.20702 12.0359 3.40805 12.1896 3.40805C12.377 3.40805 12.4683 3.16872 12.4683 3.04906C12.4683 2.74272 11.8629 2.60869 11.4353 2.59433V2.4268C11.4353 2.35022 11.3392 2.2832 11.2479 2.2832C11.1422 2.2832 11.0653 2.35022 11.0653 2.4268V2.60869C10.4648 2.67092 9.86417 2.98683 9.86417 3.77662C9.86417 4.58077 10.4936 4.80574 11.0653 5.00678V6.48583C10.4215 6.43318 10.2533 5.9976 10.0419 5.9976C9.88339 5.9976 9.75366 6.20343 9.75366 6.3566C9.75366 6.66294 10.2822 7.08416 11.0653 7.09852V7.29477C11.0653 7.37135 11.1422 7.43837 11.2479 7.43837C11.344 7.43837 11.4353 7.37135 11.4353 7.29477V7.07937C12.1176 6.98364 12.5836 6.55763 12.5836 5.7822C12.5788 4.93019 11.9782 4.65257 11.4305 4.45153ZM11.099 4.33187C10.7626 4.20741 10.4936 4.07339 10.4936 3.7144C10.4936 3.38891 10.7482 3.23095 11.099 3.18787V4.33187ZM11.3921 6.47626V5.15037C11.6996 5.2844 11.9494 5.45672 11.9494 5.854C11.9494 6.213 11.7332 6.41404 11.3921 6.47626Z" fill="#F6C358"/>
<path d="M15.5287 6.88313C15.5335 6.88313 15.5383 6.88313 15.5383 6.88313C15.4326 7.11288 15.3125 7.32828 15.178 7.53889C15.1732 7.53889 15.1684 7.53889 15.1684 7.5341C14.9858 7.80694 14.7792 8.06063 14.5437 8.29517C14.2795 8.55843 13.9864 8.78819 13.6837 8.97965C13.6885 8.97965 13.6981 8.98444 13.7029 8.98444C13.9191 9.04188 14.1353 9.10411 14.3467 9.17591C14.5341 9.23813 14.635 9.43917 14.5726 9.62584C14.5245 9.77423 14.3804 9.86996 14.2314 9.86996C14.193 9.86996 14.1546 9.86518 14.1161 9.85082C13.6308 9.68807 13.136 9.56841 12.6363 9.48703C11.6129 9.3195 10.5607 9.3195 9.53726 9.48703C9.03757 9.56841 8.54269 9.68807 8.06222 9.85082C7.87483 9.91304 7.67304 9.81252 7.61058 9.62584C7.54812 9.43917 7.64901 9.23813 7.8364 9.17591C8.0478 9.10411 8.25921 9.04188 8.47542 8.98923C8.48022 8.98923 8.48983 8.98444 8.49944 8.98444C8.19194 8.79298 7.90366 8.56322 7.6394 8.29996C6.70729 7.38093 6.198 6.16035 6.198 4.8584C6.198 3.55644 6.7073 2.33586 7.6298 1.41683C7.90847 1.144 8.21116 0.904667 8.53308 0.70363C8.5619 0.684483 8.59073 0.670123 8.61956 0.650977C8.67722 0.617471 8.73487 0.583965 8.79253 0.555245C8.79733 0.550459 8.80214 0.550459 8.80694 0.545672C8.8646 0.512166 8.92706 0.483446 8.98952 0.454727C8.99913 0.44994 9.00394 0.445153 9.01355 0.445153C9.04237 0.430794 9.0712 0.416434 9.10483 0.402074H9.10964C9.14327 0.387714 9.18171 0.373355 9.21534 0.358995C9.24897 0.344635 9.2778 0.335062 9.31144 0.320702C9.32585 0.315915 9.34026 0.311129 9.35468 0.301556C9.3787 0.291982 9.39792 0.282409 9.42194 0.277623C9.43155 0.272836 9.44597 0.268049 9.45558 0.268049C9.4844 0.258476 9.51323 0.248903 9.54687 0.23933C9.55167 0.23933 9.55167 0.23933 9.55167 0.23933C9.5853 0.229757 9.61413 0.220183 9.64776 0.21061C9.66218 0.205824 9.67179 0.201037 9.6862 0.201037C9.71022 0.191464 9.73905 0.186677 9.76308 0.177104C9.79671 0.167531 9.83034 0.157958 9.86878 0.148384C9.8928 0.143598 9.91202 0.138811 9.93605 0.134025C9.96007 0.129238 9.97929 0.124452 10.0033 0.119665C10.0369 0.110092 10.0754 0.105305 10.109 0.0957319C10.1282 0.0909453 10.1523 0.0861587 10.1715 0.0861587C10.1955 0.0813721 10.2195 0.0765855 10.2435 0.071799C10.282 0.0670123 10.3156 0.0574392 10.3541 0.0526526C10.3685 0.0526526 10.3829 0.047866 10.3925 0.047866C10.4213 0.0430794 10.4501 0.0382928 10.4742 0.0382928C10.5126 0.0335062 10.5462 0.0287196 10.5847 0.023933C10.6087 0.023933 10.6375 0.0191464 10.6616 0.0191464C10.8009 0.00957317 10.945 0 11.0844 0C11.1324 0 11.1853 0 11.2333 0C11.2669 0 11.3006 -4.63618e-09 11.3342 0.00478659C11.3775 0.00478659 11.4159 0.00957318 11.4591 0.0143598C11.5024 0.0191464 11.5408 0.0191464 11.5841 0.023933C11.6129 0.0287196 11.6417 0.0287196 11.6705 0.0335062C11.7282 0.0382928 11.781 0.047866 11.8387 0.0574391H11.8435C11.8723 0.0622257 11.9012 0.0670123 11.93 0.071799C11.954 0.0765855 11.978 0.0813721 12.0021 0.0861587C12.6843 0.215397 13.3185 0.483446 13.8711 0.866374C13.9095 0.895093 13.948 0.919026 13.9864 0.947746C14.0104 0.962106 14.0296 0.981252 14.0537 1.0004C14.1017 1.03869 14.1546 1.07698 14.2026 1.12006C14.2314 1.144 14.2603 1.16793 14.2939 1.19665C14.3516 1.24452 14.4044 1.29238 14.4573 1.34503C14.4861 1.37375 14.5197 1.40247 14.5485 1.43119C14.5726 1.45513 14.5966 1.47906 14.6206 1.50299C14.6398 1.52214 14.6591 1.54128 14.6735 1.56043C14.6927 1.57958 14.7071 1.59872 14.7263 1.61787C14.7407 1.63223 14.7551 1.65138 14.7696 1.66574C14.784 1.6801 14.7984 1.69924 14.8128 1.71839C14.8753 1.79019 14.9377 1.86677 14.9954 1.94336C15.0146 1.96729 15.0338 1.99601 15.053 2.01994C15.2068 2.23055 15.3413 2.45074 15.4566 2.68049C15.5479 2.8576 15.4758 3.07299 15.2981 3.15915C15.1203 3.24531 14.9041 3.1783 14.8176 3.0012C14.6206 2.6087 14.3564 2.24491 14.0392 1.93379C13.2465 1.13442 12.1991 0.70363 11.0844 0.70363C9.96968 0.70363 8.92226 1.13442 8.13429 1.91943C7.34632 2.70443 6.9139 3.74791 6.9139 4.8584C6.9139 5.96889 7.34632 7.01236 8.13429 7.79737C8.57632 8.23773 9.09042 8.55365 9.64296 8.75468C10.5991 8.62066 11.5696 8.62066 12.5258 8.75468C13.0783 8.55365 13.5924 8.23295 14.0344 7.79737C14.7744 7.06023 15.2068 6.08376 15.25 5.04507C15.2596 4.84882 15.4278 4.69565 15.6248 4.70522C15.8218 4.7148 15.9755 4.88233 15.9659 5.07858C15.9371 5.71041 15.7833 6.32309 15.5287 6.88313Z" fill="#F6C358"/>
<path d="M7.6298 8.29985C7.89406 8.56311 8.18715 8.79286 8.48984 8.98433C8.48023 8.98433 8.47543 8.98912 8.46582 8.98912C7.09648 8.12753 6.18359 6.6006 6.18359 4.86307C6.18359 3.1016 7.12051 1.55553 8.52828 0.69873C8.20156 0.894981 7.89887 1.13431 7.625 1.41193C6.7073 2.33575 6.19801 3.56112 6.19801 4.85828C6.19801 6.16024 6.7073 7.38082 7.6298 8.29985Z" fill="#B22828"/>
<path d="M14.9858 1.92907C14.9281 1.85249 14.8657 1.7759 14.8032 1.7041C14.8705 1.7759 14.9281 1.85249 14.9858 1.92907Z" fill="#B22828"/>
<path d="M15.1731 7.53906C14.7888 8.12303 14.2843 8.61605 13.6933 8.9894C13.6885 8.9894 13.6789 8.98461 13.6741 8.98461C13.9816 8.79315 14.2699 8.56339 14.5341 8.30013C14.7695 8.06559 14.9761 7.8119 15.1587 7.53906C15.1683 7.53906 15.1731 7.53906 15.1731 7.53906Z" fill="#B22828"/>
</svg>
