<svg width="24" height="24" viewBox="0 0 24 24" fill="none" xmlns="http://www.w3.org/2000/svg">
<path d="M22.4835 11.6487H19.0886L20.3846 10.9004C21.1087 10.4824 21.3577 9.55312 20.9396 8.82901L16.9529 1.92365L16.8628 1.76761L16.2805 0.75888C16.078 0.408121 15.7509 0.157204 15.3597 0.0523464C14.9683 -0.0525579 14.5598 0.00134731 14.209 0.203843L6.98385 4.37531C6.81572 4.47239 6.75811 4.6874 6.85518 4.85554C6.95226 5.02367 7.16727 5.08133 7.33541 4.98421L14.5606 0.812738C14.9489 0.588586 15.4473 0.722037 15.6715 1.11044L16.0782 1.81472L1.21938 10.3934L0.812752 9.6891C0.704145 9.50099 0.67527 9.28181 0.731519 9.07196C0.787768 8.86215 0.922296 8.68679 1.11045 8.57814L6.07464 5.71207C6.24278 5.61499 6.30038 5.39998 6.20331 5.23184C6.10623 5.0637 5.89122 5.00605 5.72308 5.10317L0.758847 7.96929C0.408089 8.17179 0.157172 8.49878 0.052315 8.89004C-0.0524952 9.28125 0.00126924 9.6899 0.203812 10.0407L0.786127 11.0492C0.786174 11.0493 0.786174 11.0494 0.786221 11.0494L1.36863 12.0582L4.86309 18.1108C5.00043 18.3487 5.19931 18.5434 5.43626 18.6759V22.4836C5.43626 23.3198 6.1165 24 6.95264 24H17.5797C17.7739 24 17.9312 23.8426 17.9312 23.6484C17.9312 23.4543 17.7739 23.2969 17.5797 23.2969H6.95268C6.50424 23.2969 6.13942 22.9321 6.13942 22.4836V18.4654C6.13961 18.4614 6.13937 18.4575 6.13942 18.4535V13.165C6.13942 12.7166 6.50424 12.3518 6.95268 12.3518H17.7759C17.7763 12.3518 17.7766 12.3518 17.777 12.3518C17.7773 12.3518 17.7777 12.3518 17.778 12.3518H22.4836C22.932 12.3518 23.2969 12.7166 23.2969 13.165V22.4836C23.2969 22.9321 22.9321 23.2969 22.4836 23.2969H18.986C18.7918 23.2969 18.6345 23.4543 18.6345 23.6484C18.6345 23.8426 18.7918 24 18.986 24H22.4836C23.3197 24 24 23.3198 24 22.4836V13.165C24 12.3289 23.3197 11.6487 22.4835 11.6487ZM16.4297 2.42361L16.5533 2.63773L16.8547 3.15972L1.99594 11.7385L1.57094 11.0024L16.4297 2.42361ZM5.43631 13.165V17.6974L2.34745 12.3474L17.2062 3.76862L20.3308 9.18052C20.555 9.56887 20.4214 10.0672 20.0331 10.2915L17.6824 11.6487H6.95268C6.11654 11.6487 5.43631 12.3289 5.43631 13.165Z" fill="#5077F7"/>
<path d="M18.2356 7.25151C18.1386 7.08337 17.9235 7.02576 17.7554 7.12284L14.3929 9.06423C14.2247 9.1613 14.1671 9.37631 14.2642 9.54445C14.3293 9.65723 14.4475 9.72028 14.569 9.72028C14.6286 9.72028 14.6891 9.70509 14.7444 9.67312L18.107 7.73173C18.2751 7.63466 18.3327 7.41965 18.2356 7.25151Z" fill="#F6C358"/>
<path d="M18.8837 9.07696C19.0518 8.97988 19.1094 8.76487 19.0123 8.59673C18.9152 8.42859 18.7001 8.37098 18.5321 8.46806L17.1871 9.24464C17.0189 9.34171 16.9613 9.55673 17.0584 9.72487C17.1235 9.83765 17.2417 9.9007 17.3632 9.9007C17.4228 9.9007 17.4833 9.88551 17.5386 9.85354L18.8837 9.07696Z" fill="#F6C358"/>
<path d="M17.0344 16.2347H20.9437C21.3443 16.2347 21.6702 15.9088 21.6702 15.5082V14.7051C21.6702 14.3044 21.3443 13.9785 20.9437 13.9785H17.0344C16.6338 13.9785 16.3079 14.3044 16.3079 14.7051V15.5082C16.3079 15.9088 16.6338 16.2347 17.0344 16.2347ZM17.011 14.7051C17.011 14.6921 17.0215 14.6816 17.0344 14.6816H20.9437C20.9566 14.6816 20.9671 14.6921 20.9671 14.7051V15.5082C20.9671 15.5211 20.9566 15.5316 20.9437 15.5316H17.0344C17.0215 15.5316 17.011 15.5211 17.011 15.5082V14.7051Z" fill="#F6C358"/>
<path d="M11.5753 16.2844V13.9282C11.5753 13.5276 11.2494 13.2017 10.8488 13.2017H7.71605C7.31542 13.2017 6.9895 13.5276 6.9895 13.9282V16.2844C6.9895 16.6851 7.31542 17.011 7.71605 17.011H10.8488C11.2494 17.011 11.5753 16.6851 11.5753 16.2844ZM10.8722 13.9282V14.7547H9.63394V13.9048H10.8488C10.8617 13.9048 10.8722 13.9153 10.8722 13.9282ZM7.71605 13.9048H8.93088V14.7547H7.69261V13.9282C7.69261 13.9153 7.70311 13.9048 7.71605 13.9048ZM7.69261 16.2844V15.4579H10.8722V16.2844C10.8722 16.2974 10.8617 16.3079 10.8488 16.3079H7.71605C7.70311 16.3079 7.69261 16.2974 7.69261 16.2844Z" fill="#F6C358"/>
<path d="M7.34106 20.1909C7.14691 20.1909 6.9895 20.3483 6.9895 20.5425C6.9895 20.7366 7.14691 20.894 7.34106 20.894H8.89417C9.08833 20.894 9.24573 20.7366 9.24573 20.5425C9.24573 20.3483 9.08833 20.1909 8.89417 20.1909H7.34106Z" fill="#F6C358"/>
<path d="M10.447 20.894H15.1063C15.3005 20.894 15.4578 20.7366 15.4578 20.5425C15.4578 20.3483 15.3005 20.1909 15.1063 20.1909H10.447C10.2529 20.1909 10.0955 20.3483 10.0955 20.5425C10.0955 20.7366 10.2529 20.894 10.447 20.894Z" fill="#F6C358"/>
<path d="M16.6594 20.894H18.9891C19.1833 20.894 19.3406 20.7366 19.3406 20.5425C19.3406 20.3483 19.1833 20.1909 18.9891 20.1909H16.6594C16.4652 20.1909 16.3079 20.3483 16.3079 20.5425C16.3079 20.7366 16.4653 20.894 16.6594 20.894Z" fill="#F6C358"/>
</svg>
