<svg width="19" height="21" viewBox="0 0 19 21" fill="none" xmlns="http://www.w3.org/2000/svg">
<path d="M5.55273 17.3352C4.91429 16.1959 4.57664 14.7994 4.57664 13.2874C4.57664 10.7464 6.78737 8.67796 9.49938 8.67796C12.2166 8.67796 14.4221 10.7465 14.4221 13.2874C14.4221 13.5762 14.6595 13.8125 14.9497 13.8125C15.24 13.8125 15.4774 13.5762 15.4774 13.2874C15.4774 10.1637 12.797 7.62793 9.49943 7.62793C6.20181 7.62793 3.52136 10.1689 3.52136 13.2874C3.52136 14.978 3.90654 16.5582 4.63467 17.8497C5.34696 19.1149 5.84294 19.6977 6.75571 20.6164C6.86122 20.7214 6.99315 20.7739 7.13031 20.7739C7.26223 20.7739 7.3994 20.7267 7.49437 20.6164C7.70544 20.4169 7.70544 20.0809 7.49967 19.8762C6.68711 19.0625 6.23337 18.5427 5.55273 17.3352Z" fill="#4380F4"/>
<path d="M3.63159 2.53048C5.44136 1.54872 7.41466 1.04998 9.50934 1.04998C11.6093 1.04998 13.3663 1.49625 15.3871 2.53575C15.4662 2.57251 15.5454 2.59348 15.6298 2.59348C15.8198 2.59348 16.0044 2.4885 16.0994 2.30998C16.2313 2.05272 16.131 1.7325 15.8725 1.60123C13.7198 0.493516 11.757 0 9.50934 0C7.24054 0 5.09313 0.540766 3.12507 1.6065C2.86652 1.74825 2.77684 2.06325 2.91401 2.32051C3.05646 2.57773 3.37304 2.66701 3.63159 2.53048Z" fill="#4380F4"/>
<path d="M9.4623 5.07129C6.05913 5.07129 2.94616 6.96655 1.5374 9.89605C1.05725 10.8883 0.814575 12.0328 0.814575 13.2928C0.814575 14.7103 1.06783 16.0648 1.58489 17.4455C1.6904 17.7185 1.99114 17.855 2.26552 17.7552C2.53991 17.6503 2.67707 17.351 2.57681 17.078C1.9489 15.4033 1.87505 14.1118 1.87505 13.2928C1.87505 12.1903 2.08082 11.198 2.49237 10.3475C3.72701 7.77502 6.46538 6.11605 9.46755 6.11605C13.6833 6.11605 17.1128 9.33432 17.1128 13.2928C17.1128 14.4215 16.1261 15.335 14.9179 15.335C13.7097 15.335 12.723 14.4162 12.723 13.2928C12.723 11.5865 11.2668 10.2005 9.47284 10.2005C7.6789 10.2005 6.22266 11.5865 6.22266 13.2928C6.22266 15.3665 7.03521 17.3143 8.50729 18.7738C9.64695 19.9025 10.7444 20.522 12.4275 20.9788C12.4697 20.9945 12.5172 20.9998 12.5647 20.9998C12.7968 20.9998 13.0079 20.8476 13.0712 20.6165C13.1503 20.3383 12.9815 20.0495 12.7018 19.9708C11.2139 19.5665 10.2431 19.0205 9.24589 18.0335C7.9743 16.7735 7.2726 15.0883 7.2726 13.298C7.2726 12.1693 8.25927 11.2558 9.4675 11.2558C10.6757 11.2558 11.6624 12.1746 11.6624 13.298C11.6624 15.0043 13.1239 16.3903 14.9126 16.3903C16.7012 16.3903 18.1628 15.0043 18.1628 13.298C18.1628 8.76205 14.2584 5.07129 9.4623 5.07129Z" fill="#4380F4"/>
<path d="M18.9014 7.24501C17.8514 5.78553 16.5218 4.641 14.9442 3.83253C11.6201 2.13153 7.37804 2.1368 4.0593 3.84301C2.47643 4.65675 1.14153 5.81176 0.0968305 7.28178C-0.0719928 7.51803 -0.0139706 7.84351 0.22346 8.01154C0.318433 8.07454 0.423941 8.10604 0.529499 8.10604C0.693079 8.10604 0.856609 8.03256 0.962167 7.89081C1.9066 6.55733 3.11487 5.51256 4.54475 4.77758C7.56804 3.2236 11.4355 3.21833 14.4641 4.76709C15.8887 5.49159 17.0916 6.53109 18.0414 7.85409C18.2102 8.09034 18.5426 8.14286 18.78 7.97483C19.0174 7.80674 19.0702 7.48126 18.9014 7.24501Z" fill="#4380F4"/>
<path d="M15.7937 17.6821C15.3716 17.7555 14.9442 17.7818 14.691 17.7818C13.6358 17.7818 12.7599 17.5351 12.0159 17.0311C10.7338 16.1648 9.96873 14.7684 9.96873 13.2931C9.96873 13.0043 9.7313 12.7681 9.44109 12.7681C9.15088 12.7681 8.91345 13.0043 8.91345 13.2931C8.91345 15.1201 9.85264 16.8421 11.4197 17.9026C12.3325 18.5168 13.4352 18.8318 14.6909 18.8318C14.8387 18.8318 15.361 18.8265 15.9784 18.7163C16.2633 18.6638 16.4585 18.3908 16.4057 18.1073C16.353 17.8238 16.0786 17.6296 15.7937 17.6821Z" fill="#4380F4"/>
</svg>
