<svg width="21" height="21" viewBox="0 0 21 21" fill="none" xmlns="http://www.w3.org/2000/svg">
<path d="M10.5 21C16.299 21 21 16.299 21 10.5C21 4.70101 16.299 0 10.5 0C4.70101 0 0 4.70101 0 10.5C0 16.299 4.70101 21 10.5 21Z" fill="#F0F0F0"/>
<path d="M2.16869 4.1084C1.34391 5.18149 0.72199 6.41832 0.359863 7.76195H5.82224L2.16869 4.1084Z" fill="#0052B4"/>
<path d="M20.6356 7.76191C20.2735 6.41832 19.6515 5.18149 18.8268 4.1084L15.1733 7.76191H20.6356Z" fill="#0052B4"/>
<path d="M0.359863 13.2402C0.722031 14.5838 1.34395 15.8207 2.16869 16.8937L5.82212 13.2402H0.359863Z" fill="#0052B4"/>
<path d="M16.8906 2.17118C15.8175 1.34639 14.5807 0.724473 13.2371 0.362305V5.82464L16.8906 2.17118Z" fill="#0052B4"/>
<path d="M4.10767 18.8302C5.18076 19.655 6.41758 20.2769 7.76117 20.6391V15.1768L4.10767 18.8302Z" fill="#0052B4"/>
<path d="M7.76113 0.362305C6.41754 0.724473 5.18072 1.34639 4.10767 2.17113L7.76113 5.8246V0.362305Z" fill="#0052B4"/>
<path d="M13.2371 20.6391C14.5807 20.2769 15.8175 19.655 16.8905 18.8302L13.2371 15.1768V20.6391Z" fill="#0052B4"/>
<path d="M15.1733 13.2402L18.8268 16.8937C19.6515 15.8207 20.2735 14.5838 20.6356 13.2402H15.1733Z" fill="#0052B4"/>
<path d="M20.9111 9.13045H11.8696H11.8696V0.0888809C11.4213 0.0305156 10.9642 0 10.5 0C10.0357 0 9.57875 0.0305156 9.13045 0.0888809V9.13037V9.13041H0.0888809C0.0305156 9.57875 0 10.0358 0 10.5C0 10.9643 0.0305156 11.4213 0.0888809 11.8696H9.13037H9.13041V20.9111C9.57875 20.9695 10.0357 21 10.5 21C10.9642 21 11.4213 20.9695 11.8696 20.9111V11.8696V11.8696H20.9111C20.9695 11.4213 21 10.9643 21 10.5C21 10.0358 20.9695 9.57875 20.9111 9.13045Z" fill="#D80027"/>
<path d="M13.2378 13.2393L17.9233 17.9248C18.1388 17.7093 18.3443 17.4841 18.5405 17.2507L14.529 13.2393H13.2378V13.2393Z" fill="#D80027"/>
<path d="M7.76167 13.2393H7.76159L3.07617 17.9247C3.29159 18.1402 3.5168 18.3457 3.75026 18.5419L7.76167 14.5304V13.2393Z" fill="#D80027"/>
<path d="M7.76018 7.76078V7.7607L3.07472 3.0752C2.85923 3.29061 2.65366 3.51583 2.45752 3.74929L6.46897 7.76074H7.76018V7.76078Z" fill="#D80027"/>
<path d="M13.2378 7.76071L17.9233 3.07517C17.7079 2.85967 17.4827 2.6541 17.2492 2.45801L13.2378 6.46946V7.76071Z" fill="#D80027"/>
</svg>
