<svg width="19" height="24" viewBox="0 0 19 24" fill="none" xmlns="http://www.w3.org/2000/svg">
<path d="M14.9192 12.9989C15.0973 13.9111 14.509 14.7962 13.6021 14.9754V15.4912C13.6021 15.6704 13.4564 15.817 13.2783 15.817C13.1002 15.817 12.9544 15.6704 12.9544 15.4912V14.9754C12.1717 14.8179 11.605 14.1283 11.605 13.3247C11.605 13.1455 11.7507 12.9989 11.9288 12.9989C12.107 12.9989 12.2527 13.1455 12.2527 13.3247C12.2527 13.8894 12.7061 14.3509 13.2675 14.3564C13.2729 14.3564 13.2729 14.3564 13.2783 14.3564C13.2837 14.3564 13.2837 14.3564 13.2891 14.3564C13.8396 14.3401 14.2769 13.8948 14.2877 13.341C14.2984 12.7709 13.845 12.3039 13.2783 12.293C12.4794 12.293 11.7939 11.7229 11.6374 10.9356C11.4592 10.0233 12.0476 9.13827 12.9544 8.95909V8.50841C12.9544 8.32922 13.1002 8.18262 13.2783 8.18262C13.4564 8.18262 13.6021 8.32922 13.6021 8.50841V8.95909C13.9962 9.03511 14.3308 9.24687 14.5683 9.54008C14.8058 9.8333 14.9462 10.208 14.9516 10.6098C14.9516 10.789 14.8058 10.9356 14.6277 10.9356C14.4496 10.9356 14.3038 10.789 14.3038 10.6098C14.3038 10.0396 13.845 9.57809 13.2783 9.57809C12.7115 9.57809 12.2527 10.0396 12.2527 10.6098C12.2527 11.1799 12.7115 11.6414 13.2783 11.6414C14.0771 11.6414 14.7627 12.2116 14.9192 12.9989Z" fill="#F6C358"/>
<path d="M10.5094 3.9094H11.1086C11.2867 3.9094 11.4324 3.76279 11.4324 3.5836C11.4324 3.40442 11.2867 3.25781 11.1086 3.25781H10.5094C10.3313 3.25781 10.1855 3.40442 10.1855 3.5836C10.1855 3.76279 10.3313 3.9094 10.5094 3.9094Z" fill="#5077F7"/>
<path d="M6.80125 22.8596C7.42738 22.8596 7.93477 22.3492 7.93477 21.7194C7.93477 21.0895 7.42738 20.5791 6.80125 20.5791C6.17511 20.5791 5.66772 21.0895 5.66772 21.7194C5.66772 22.3492 6.17511 22.8596 6.80125 22.8596ZM6.80125 21.2307C7.07113 21.2307 7.28704 21.4479 7.28704 21.7194C7.28704 21.9909 7.07113 22.2081 6.80125 22.2081C6.53136 22.2081 6.31545 21.9909 6.31545 21.7194C6.31545 21.4479 6.53136 21.2307 6.80125 21.2307Z" fill="#F6C358"/>
<path d="M11.1193 0H2.48295C1.11193 0 0 1.11855 0 2.49774V21.5023C0 22.8814 1.11193 24 2.48295 24H11.1193C12.4903 24 13.6023 22.8814 13.6023 21.5023V17.6742H12.9545V19.4389H0.647727V3.9095H9.44602C9.62415 3.9095 9.76989 3.7629 9.76989 3.58371C9.76989 3.40452 9.62415 3.25792 9.44602 3.25792H0.647727V2.49774C0.647727 1.47692 1.46818 0.651584 2.48295 0.651584H11.1193C12.1341 0.651584 12.9545 1.47692 12.9545 2.49774V3.25792H12.1989C12.0207 3.25792 11.875 3.40452 11.875 3.58371C11.875 3.7629 12.0207 3.9095 12.1989 3.9095H12.9545V6.32579H13.6023V2.49774C13.6023 1.11855 12.4903 0 11.1193 0ZM12.9545 20.0905V21.5023C12.9545 22.5231 12.1341 23.3484 11.1193 23.3484H2.48295C1.46818 23.3484 0.647727 22.5231 0.647727 21.5023V20.0905H12.9545Z" fill="#5077F7"/>
<path d="M18.9946 11.9021C18.9946 11.8586 18.9946 11.8098 18.9892 11.7663C18.9892 11.7609 18.9892 11.75 18.9892 11.7446C18.9892 11.7174 18.9892 11.6957 18.9838 11.6686C18.9784 11.6251 18.9784 11.5763 18.973 11.5328C18.9676 11.4894 18.9676 11.4405 18.9622 11.3971C18.9352 11.1256 18.8867 10.865 18.8219 10.6043C18.8003 10.5174 18.7787 10.436 18.7517 10.3491C18.7409 10.3057 18.7247 10.2677 18.7139 10.2242C18.7139 10.2242 18.7139 10.2242 18.7139 10.2188C18.7031 10.1754 18.6869 10.1374 18.6708 10.0939C18.6546 10.0505 18.6438 10.0125 18.6276 9.96903C18.6114 9.92559 18.5952 9.88758 18.579 9.84957C18.5628 9.81156 18.5466 9.76812 18.5304 9.73011C18.5304 9.72468 18.5304 9.72468 18.525 9.71925C18.5088 9.68124 18.4926 9.64867 18.4764 9.61066C18.4063 9.45319 18.3253 9.29572 18.2389 9.14912C18.2281 9.1274 18.2119 9.10025 18.1958 9.07853C18.1796 9.05138 18.1634 9.02423 18.1472 8.99708C18.1256 8.9645 18.1094 8.93192 18.0878 8.89934C18.0824 8.89391 18.0824 8.88848 18.077 8.88305C18.0608 8.85591 18.0392 8.82876 18.023 8.79618C18.0122 8.77989 18.0014 8.75817 17.9852 8.74188C17.969 8.71473 17.9475 8.68758 17.9313 8.66043C17.9043 8.62242 17.8773 8.58441 17.8503 8.5464C17.8233 8.50839 17.7963 8.47581 17.7639 8.43781C17.7369 8.3998 17.71 8.36722 17.6776 8.32921C17.6506 8.29663 17.6236 8.26405 17.5966 8.23147L17.5858 8.22061C17.5588 8.18803 17.5264 8.15545 17.4994 8.12287C17.4671 8.09029 17.4401 8.05772 17.4077 8.02514C17.3753 7.99256 17.3429 7.95998 17.3105 7.9274C17.2781 7.89482 17.2512 7.86767 17.2188 7.83509L17.2134 7.82966C17.181 7.79708 17.1486 7.7645 17.1108 7.73735C17.073 7.7102 17.0406 7.67762 17.0083 7.64505C16.8355 7.49301 16.652 7.35183 16.4631 7.22695C15.5617 6.60794 14.4605 6.24414 13.2784 6.24414C11.848 6.24414 10.5364 6.77084 9.5378 7.64505C9.50541 7.67762 9.46763 7.70477 9.43524 7.73735C9.40285 7.76993 9.37047 7.79708 9.33268 7.82966C9.26791 7.89482 9.20314 7.95998 9.13837 8.02514C9.10598 8.05772 9.07359 8.09029 9.0466 8.1283C9.01962 8.16088 8.99263 8.18803 8.96564 8.22061C8.96024 8.22604 8.96024 8.23147 8.95484 8.23147C8.89547 8.30206 8.83609 8.37265 8.78212 8.44324C8.75513 8.48124 8.72814 8.51382 8.69575 8.55183C8.64178 8.62785 8.5878 8.69844 8.53922 8.77446C8.50143 8.82876 8.46905 8.88305 8.43126 8.94278C8.41507 8.9645 8.40427 8.98622 8.38808 9.01337C8.36649 9.05138 8.3395 9.09482 8.31791 9.13283C8.29632 9.17084 8.27473 9.21428 8.25314 9.25229C8.23155 9.29572 8.20996 9.33373 8.18837 9.37717C8.16677 9.42061 8.14518 9.45862 8.12899 9.50206C8.1128 9.5455 8.09121 9.58351 8.06962 9.62695C8.05342 9.67039 8.03183 9.71382 8.01564 9.75726C7.99945 9.79527 7.98325 9.82785 7.97246 9.86586C7.96706 9.88215 7.96166 9.89844 7.95087 9.91473C7.94007 9.94188 7.92927 9.97446 7.91848 10.0016C7.91308 10.0125 7.91308 10.0179 7.90768 10.0288C7.89149 10.0668 7.8807 10.1102 7.8645 10.1482C7.85371 10.1862 7.83751 10.2242 7.82672 10.2622C7.82132 10.2785 7.81592 10.2894 7.81592 10.3057C7.80513 10.3437 7.79433 10.3763 7.78354 10.4143V10.4197C7.77274 10.4631 7.75655 10.512 7.74575 10.5555C7.73496 10.5935 7.72416 10.6315 7.71876 10.6695C7.71337 10.6858 7.71337 10.7021 7.70797 10.7129C7.70257 10.7455 7.69177 10.7781 7.68638 10.8107C7.68638 10.8215 7.68098 10.8324 7.68098 10.8378C7.67558 10.8758 7.66479 10.9138 7.65939 10.9518C7.65939 10.9627 7.65399 10.9681 7.65399 10.979C7.64859 11.0224 7.6378 11.0659 7.6324 11.1147C7.627 11.1636 7.61621 11.2125 7.61081 11.2613C7.59462 11.4025 7.57842 11.5491 7.57303 11.6957C7.56763 11.7935 7.56763 11.8912 7.56763 11.9944V12.0052C7.56763 12.0324 7.56763 12.065 7.56763 12.0921C7.56763 12.1355 7.56763 12.1844 7.57303 12.2279C7.57303 12.2333 7.57303 12.2441 7.57303 12.2496C7.57303 12.2767 7.57302 12.2984 7.57842 12.3256C7.58382 12.369 7.58382 12.4179 7.58922 12.4613C7.59462 12.5048 7.59462 12.5536 7.60001 12.5971C7.627 12.8686 7.67558 13.1292 7.74035 13.3898C7.76194 13.4767 7.78354 13.5582 7.81052 13.645C7.82132 13.6885 7.83751 13.7265 7.84831 13.7699C7.84831 13.7699 7.84831 13.7699 7.84831 13.7754C7.8591 13.8188 7.8753 13.8568 7.89149 13.9002C7.90768 13.9437 7.91848 13.9817 7.93467 14.0251C7.95087 14.0686 7.96706 14.1066 7.98325 14.1446C7.99944 14.188 8.01564 14.226 8.03183 14.2641C8.04803 14.3021 8.06422 14.3455 8.08581 14.3835C8.102 14.4215 8.12359 14.4595 8.13979 14.503C8.19376 14.617 8.25314 14.7364 8.31791 14.845C8.32871 14.8668 8.3449 14.8939 8.36109 14.9156C8.37729 14.9428 8.39348 14.9699 8.40967 14.9971C8.43126 15.0297 8.44746 15.0622 8.46905 15.0948C8.47444 15.1002 8.47445 15.1057 8.47984 15.1111C8.49604 15.1383 8.51763 15.1654 8.53382 15.198C8.55001 15.2197 8.56081 15.2414 8.577 15.2631C8.59319 15.2903 8.61479 15.3174 8.63098 15.3446C8.65257 15.3772 8.67956 15.4098 8.70115 15.4423C8.72274 15.4695 8.74433 15.4966 8.76592 15.5292C8.80371 15.5781 8.84149 15.6269 8.87927 15.6704C8.90087 15.6975 8.92785 15.7247 8.94945 15.7518C8.95484 15.7573 8.96024 15.7627 8.96024 15.7681C8.98723 15.8007 9.01962 15.8333 9.0466 15.8659C9.07899 15.8984 9.10598 15.931 9.13837 15.9636C9.17075 15.9962 9.20314 16.0288 9.23553 16.0613C9.26791 16.0939 9.2949 16.1211 9.32729 16.1536L9.33268 16.1591C9.36507 16.1917 9.39746 16.2242 9.43524 16.2514C9.47303 16.2785 9.50541 16.3111 9.5378 16.3437C9.71053 16.4957 9.89405 16.6369 10.083 16.7618C10.9952 17.3808 12.0963 17.7446 13.2784 17.7446C14.7088 17.7446 16.0205 17.2179 17.019 16.3437C17.0514 16.3111 17.0892 16.284 17.1216 16.2514C17.154 16.2188 17.1864 16.1917 17.2242 16.1591C17.2889 16.0939 17.3537 16.0288 17.4185 15.9636C17.4509 15.931 17.4833 15.8984 17.5102 15.8604C17.5372 15.8279 17.5642 15.8007 17.5912 15.7681C17.5966 15.7627 17.5966 15.7573 17.602 15.7573C17.629 15.7247 17.6614 15.6867 17.6884 15.6541C17.7154 15.6161 17.7477 15.5835 17.7747 15.5455C17.8017 15.5075 17.8287 15.4749 17.8611 15.4369C17.8881 15.3989 17.9151 15.3609 17.9421 15.3283C18.0068 15.236 18.0662 15.1437 18.1256 15.0514C18.1418 15.0297 18.1526 15.0079 18.1688 14.9808C18.1904 14.9428 18.2173 14.8993 18.2389 14.8613C18.2659 14.8125 18.2929 14.7636 18.3199 14.7147C18.3361 14.6876 18.3523 14.655 18.3685 14.6279C18.3739 14.617 18.3847 14.6007 18.3901 14.5844C18.4063 14.5573 18.4171 14.5301 18.4333 14.503C18.4387 14.4921 18.444 14.4812 18.4494 14.4704C18.4656 14.4378 18.4764 14.4107 18.4926 14.3781C18.498 14.3672 18.5034 14.3618 18.5034 14.3509C18.5196 14.3129 18.5358 14.2749 18.552 14.2423C18.5682 14.2043 18.5844 14.1717 18.5952 14.1337C18.6006 14.1174 18.606 14.1012 18.6168 14.0849C18.6276 14.0577 18.6384 14.0251 18.6492 13.998C18.6546 13.9871 18.6546 13.9817 18.66 13.9708C18.6762 13.9328 18.6869 13.8894 18.7031 13.8514C18.7139 13.8134 18.7301 13.7754 18.7409 13.7374C18.7463 13.7211 18.7517 13.7102 18.7517 13.6939C18.7625 13.6559 18.7733 13.6233 18.7841 13.5853V13.5799C18.7949 13.5364 18.8111 13.4876 18.8219 13.4441C18.8327 13.4061 18.8435 13.3681 18.8489 13.3301C18.8543 13.3138 18.8543 13.2975 18.8597 13.2867C18.8651 13.2541 18.8759 13.2215 18.8813 13.1889C18.8813 13.1781 18.8867 13.1672 18.8867 13.1618C18.8921 13.1238 18.9029 13.0858 18.9083 13.0478C18.9083 13.0369 18.9136 13.0315 18.9136 13.0206C18.919 12.9772 18.9298 12.9337 18.9352 12.8849C18.9406 12.836 18.9514 12.7871 18.9568 12.7437C18.973 12.5971 18.9892 12.4559 18.9946 12.3093C19 12.2116 19 12.1138 19 12.0107V11.9998C19 11.9618 18.9946 11.9346 18.9946 11.9021ZM13.2784 17.1039C10.477 17.1039 8.20456 14.8179 8.20456 11.9998C8.20456 9.1817 10.477 6.89572 13.2784 6.89572C16.0798 6.90115 18.3469 9.1817 18.3523 11.9998C18.3523 14.8179 16.0798 17.1039 13.2784 17.1039Z" fill="#F6C358"/>
</svg>
