<svg width="19" height="22" viewBox="0 0 19 22" fill="none" xmlns="http://www.w3.org/2000/svg">
<path fill-rule="evenodd" clip-rule="evenodd" d="M14.5775 0.435215L14.1535 0.0117188L13.7295 0.435215L9.49899 4.66063C9.26453 4.8948 9.2643 5.2747 9.49847 5.50916C9.73265 5.74361 10.1125 5.74384 10.347 5.50967L13.5535 2.30703V18.6065C13.5535 18.9378 13.8221 19.2065 14.1535 19.2065C14.4849 19.2065 14.7535 18.9378 14.7535 18.6065V2.30703L17.96 5.50967C18.1945 5.74384 18.5744 5.74361 18.8086 5.50916C19.0427 5.2747 19.0425 4.8948 18.808 4.66063L14.5775 0.435215ZM4.42238 21.5644L4.84639 21.9879L5.2704 21.5644L9.50092 17.339C9.73537 17.1048 9.7356 16.7249 9.50143 16.4905C9.26726 16.256 8.88736 16.2558 8.6529 16.49L5.44639 19.6926L5.44639 3.39315C5.44639 3.06178 5.17776 2.79315 4.84639 2.79315C4.51502 2.79315 4.24639 3.06178 4.24639 3.39315L4.24639 19.6926L1.03988 16.49C0.805421 16.2558 0.425522 16.256 0.191349 16.4905C-0.0428238 16.7249 -0.0425949 17.1048 0.191861 17.339L4.42238 21.5644Z" fill="#C4C4C4"/>
</svg>
