<svg width="22" height="24" viewBox="0 0 22 24" fill="none" xmlns="http://www.w3.org/2000/svg">
<path d="M21.1284 11.5313H17.6378V0.468787C17.6378 0.279224 17.5228 0.108271 17.3466 0.0357083C17.1703 -0.0369011 16.9675 0.00331766 16.8327 0.137286L15.4966 1.46516L14.1606 0.137333C13.9764 -0.0457136 13.6778 -0.0457136 13.4936 0.137333L12.1576 1.46521L10.8217 0.137333C10.6375 -0.0457136 10.3389 -0.0457136 10.1547 0.137333L8.81863 1.46521L7.48256 0.137333C7.29839 -0.0457136 6.99976 -0.0457136 6.81559 0.137333L5.47956 1.46521L4.14363 0.137333C3.95946 -0.0457136 3.66083 -0.0457136 3.47661 0.137333L2.14059 1.46521L0.804612 0.137333C0.621573 -0.0445886 0.325533 -0.0455261 0.140891 0.134755C0.043925 0.22949 -0.00309623 0.355724 0.00015799 0.481115V21.5626C0.00015799 22.9066 1.10027 24 2.45252 24H19.147C19.1471 24 19.1471 24 19.1472 24C19.1474 24 19.1475 24 19.1476 24C20.4999 24 21.6 22.9066 21.6 21.5626V12C21.6 11.7411 21.3889 11.5313 21.1284 11.5313ZM2.45252 23.0625C1.62034 23.0625 0.943364 22.3896 0.943364 21.5625V1.60105L1.8071 2.45952C1.99127 2.64257 2.28991 2.64257 2.47412 2.45952L3.81015 1.13165L5.14617 2.45952C5.33034 2.64257 5.62898 2.64257 5.81319 2.45952L7.14922 1.13165L8.48529 2.45952C8.66946 2.64257 8.96809 2.64257 9.15226 2.45952L10.4883 1.13165L11.8243 2.45952C12.0085 2.64257 12.3071 2.64257 12.4913 2.45952L13.8274 1.13165L15.1634 2.45952C15.3476 2.64257 15.6462 2.64257 15.8304 2.45952L16.6948 1.6004V12C16.6948 12.0043 16.6953 12.0084 16.6955 12.0127V21.5625C16.6955 22.128 16.8907 22.6485 17.2169 23.0625H2.45252ZM20.6567 21.5625C20.6567 22.3896 19.9797 23.0625 19.1476 23.0625C18.3155 23.0625 17.6384 22.3896 17.6384 21.5625V12.4687H20.6567V21.5625Z" fill="#5077F7"/>
<path d="M8.81899 7.44621C8.3509 7.44621 7.97011 7.12211 7.97011 6.72382C7.97011 6.32547 8.35095 6.00138 8.81899 6.00138C9.28708 6.00138 9.66787 6.32547 9.66787 6.72382C9.66787 6.98271 9.87902 7.19257 10.1395 7.19257C10.4 7.19257 10.6111 6.98271 10.6111 6.72382C10.6111 5.95971 10.0506 5.31499 9.29062 5.12271V4.80518C9.29062 4.54629 9.07947 4.33643 8.81899 4.33643C8.55851 4.33643 8.34736 4.54629 8.34736 4.80518V5.12271C7.58729 5.31499 7.02686 5.95975 7.02686 6.72382C7.02686 7.63905 7.83084 8.38366 8.81899 8.38366C9.28708 8.38366 9.66787 8.70776 9.66787 9.1061C9.66787 9.50444 9.28708 9.82849 8.81899 9.82849C8.3509 9.82849 7.97011 9.5044 7.97011 9.1061C7.97011 8.84721 7.75896 8.63735 7.49848 8.63735C7.238 8.63735 7.02686 8.84721 7.02686 9.1061C7.02686 9.87021 7.58734 10.5149 8.34736 10.7072V11.0897C8.34736 11.3486 8.55851 11.5585 8.81899 11.5585C9.07947 11.5585 9.29062 11.3486 9.29062 11.0897V10.7072C10.0507 10.5149 10.6111 9.87021 10.6111 9.1061C10.6111 8.19087 9.80714 7.44621 8.81899 7.44621Z" fill="#F6C358"/>
<path d="M13.5571 7.44629H12.6379C12.3774 7.44629 12.1663 7.65615 12.1663 7.91504C12.1663 8.17393 12.3774 8.38379 12.6379 8.38379H13.5571C13.8176 8.38379 14.0287 8.17393 14.0287 7.91504C14.0287 7.65615 13.8176 7.44629 13.5571 7.44629Z" fill="#F6C358"/>
<path d="M4.99996 7.44629H4.08076C3.82028 7.44629 3.60913 7.65615 3.60913 7.91504C3.60913 8.17393 3.82028 8.38379 4.08076 8.38379H4.99996C5.26044 8.38379 5.47158 8.17393 5.47158 7.91504C5.47158 7.65615 5.26044 7.44629 4.99996 7.44629Z" fill="#F6C358"/>
<path d="M13.7958 12.6567H6.32417C6.06369 12.6567 5.85254 12.8666 5.85254 13.1255C5.85254 13.3844 6.06369 13.5942 6.32417 13.5942H13.7958C14.0563 13.5942 14.2674 13.3844 14.2674 13.1255C14.2674 12.8666 14.0563 12.6567 13.7958 12.6567Z" fill="#F6C358"/>
<path d="M4.17543 12.7941C4.08771 12.7069 3.96603 12.6567 3.84199 12.6567C3.71795 12.6567 3.59627 12.7069 3.50855 12.7941C3.42083 12.8813 3.37036 13.0022 3.37036 13.1255C3.37036 13.2488 3.42083 13.3697 3.50855 13.4569C3.59627 13.5441 3.71795 13.5942 3.84199 13.5942C3.96603 13.5942 4.08771 13.5441 4.17543 13.4569C4.26315 13.3697 4.31361 13.2488 4.31361 13.1255C4.31361 13.0022 4.26315 12.8813 4.17543 12.7941Z" fill="#F6C358"/>
<path d="M13.7958 15.7505H6.32417C6.06369 15.7505 5.85254 15.9603 5.85254 16.2192C5.85254 16.4781 6.06369 16.688 6.32417 16.688H13.7958C14.0563 16.688 14.2674 16.4781 14.2674 16.2192C14.2674 15.9603 14.0563 15.7505 13.7958 15.7505Z" fill="#F6C358"/>
<path d="M4.17543 15.8878C4.08771 15.8006 3.96603 15.7505 3.84199 15.7505C3.71795 15.7505 3.59627 15.8006 3.50855 15.8878C3.42083 15.975 3.37036 16.096 3.37036 16.2192C3.37036 16.3425 3.42083 16.4635 3.50855 16.5506C3.59627 16.6378 3.71795 16.688 3.84199 16.688C3.96603 16.688 4.08771 16.6378 4.17543 16.5506C4.26315 16.4635 4.31361 16.3425 4.31361 16.2192C4.31361 16.096 4.26315 15.975 4.17543 15.8878Z" fill="#F6C358"/>
<path d="M13.7958 18.8438H6.32417C6.06369 18.8438 5.85254 19.0536 5.85254 19.3125C5.85254 19.5714 6.06369 19.7813 6.32417 19.7813H13.7958C14.0563 19.7813 14.2674 19.5714 14.2674 19.3125C14.2674 19.0536 14.0563 18.8438 13.7958 18.8438Z" fill="#F6C358"/>
<path d="M4.17543 18.9811C4.08771 18.8939 3.96603 18.8438 3.84199 18.8438C3.71795 18.8438 3.59627 18.8939 3.50855 18.9811C3.42083 19.0683 3.37036 19.1892 3.37036 19.3125C3.37036 19.4358 3.42083 19.5567 3.50855 19.6439C3.59627 19.7311 3.71795 19.7813 3.84199 19.7813C3.96603 19.7813 4.08771 19.7311 4.17543 19.6439C4.26315 19.5567 4.31361 19.4358 4.31361 19.3125C4.31361 19.1892 4.26315 19.0683 4.17543 18.9811Z" fill="#F6C358"/>
</svg>
