<svg width="15" height="15" viewBox="0 0 15 15" fill="none" xmlns="http://www.w3.org/2000/svg">
<path d="M5.75 6.4375V9.5C5.75 9.73698 5.65885 9.94661 5.47656 10.1289C5.3125 10.293 5.11198 10.375 4.875 10.375H4.4375C3.94531 10.375 3.52604 10.2109 3.17969 9.88281C2.85156 9.53646 2.6875 9.11719 2.6875 8.625V7.3125C2.6875 6.82031 2.85156 6.41016 3.17969 6.08203C3.52604 5.73568 3.94531 5.5625 4.4375 5.5625H4.875C5.11198 5.5625 5.3125 5.65365 5.47656 5.83594C5.65885 6 5.75 6.20052 5.75 6.4375ZM10.5625 10.375H10.125C9.88802 10.375 9.67839 10.293 9.49609 10.1289C9.33203 9.94661 9.25 9.73698 9.25 9.5V6.4375C9.25 6.20052 9.33203 6 9.49609 5.83594C9.67839 5.65365 9.88802 5.5625 10.125 5.5625H10.5625C11.0547 5.5625 11.4648 5.73568 11.793 6.08203C12.1393 6.41016 12.3125 6.82031 12.3125 7.3125V8.625C12.3125 9.11719 12.1393 9.53646 11.793 9.88281C11.4648 10.2109 11.0547 10.375 10.5625 10.375ZM2.60547 2.82812C3.95443 1.44271 5.58594 0.75 7.5 0.75C9.41406 0.75 11.0456 1.44271 12.3945 2.82812C13.7435 4.19531 14.4453 5.83594 14.5 7.75V12.2891C14.5 12.9635 14.2539 13.5378 13.7617 14.0117C13.2878 14.5039 12.7135 14.75 12.0391 14.75H7.0625C6.69792 14.75 6.38802 14.6224 6.13281 14.3672C5.8776 14.112 5.75 13.8021 5.75 13.4375C5.75 13.0729 5.8776 12.763 6.13281 12.5078C6.38802 12.2526 6.69792 12.125 7.0625 12.125H7.9375C8.30208 12.125 8.61198 12.2526 8.86719 12.5078C9.1224 12.763 9.25 13.0729 9.25 13.4375H12.0391C12.349 13.4375 12.6133 13.319 12.832 13.082C13.069 12.8633 13.1875 12.599 13.1875 12.2891C13.1875 9.29948 13.1875 7.78646 13.1875 7.75C13.1875 6.18229 12.6315 4.84245 11.5195 3.73047C10.4076 2.61849 9.06771 2.0625 7.5 2.0625C5.93229 2.0625 4.59245 2.61849 3.48047 3.73047C2.36849 4.84245 1.8125 6.18229 1.8125 7.75V8.1875C1.8125 8.3151 1.76693 8.42448 1.67578 8.51562C1.60286 8.58854 1.5026 8.625 1.375 8.625H0.9375C0.809896 8.625 0.700521 8.58854 0.609375 8.51562C0.536458 8.42448 0.5 8.3151 0.5 8.1875V7.75C0.554688 5.83594 1.25651 4.19531 2.60547 2.82812Z" fill="#5077F7"/>
</svg>
