<svg width="19" height="24" viewBox="0 0 19 24" fill="none" xmlns="http://www.w3.org/2000/svg">
<path d="M12.1739 6.6956C12.2393 6.60282 12.2913 6.50126 12.328 6.39384C12.4927 6.42157 12.6497 6.48427 12.788 6.57782C13.0663 6.76591 13.3927 6.87021 13.7284 6.8788C13.8345 6.87841 13.9401 6.86865 14.0444 6.8499C14.4837 6.7749 14.8753 6.52841 15.1327 6.16473C15.2706 5.94735 15.4936 5.79813 15.747 5.7534C16.0005 5.70887 16.261 5.77274 16.4647 5.92997C16.8314 6.18368 17.2835 6.28134 17.722 6.20145L17.5827 5.41356C17.3294 5.45829 17.0689 5.39422 16.8651 5.23719C16.1011 4.71434 15.0593 4.89813 14.52 5.65067C14.3821 5.86805 14.1591 6.01727 13.9056 6.062C13.7901 6.08524 13.6708 6.08231 13.5563 6.0536C13.7931 5.9911 14.012 5.87489 14.1964 5.71395C14.5393 5.42938 14.7552 5.02 14.7964 4.57625C14.8071 4.31902 14.9257 4.07839 15.1231 3.91316C15.3194 3.74597 15.5776 3.67097 15.8327 3.70671C16.2774 3.74714 16.7194 3.60495 17.0571 3.31316L16.5417 2.70065C16.3423 2.86179 16.0866 2.936 15.8319 2.90671C14.9089 2.8362 14.0983 3.51609 14.0075 4.43758C13.997 4.69441 13.8786 4.93504 13.6817 5.10047C13.4847 5.26571 13.2272 5.34071 12.9723 5.30672C12.7227 5.28739 12.4718 5.32078 12.236 5.40516C12.1259 5.21414 11.9651 5.05711 11.7716 4.95145L13.56 1.37877C13.6222 1.25435 13.6153 1.1067 13.5419 0.988531C13.4684 0.870562 13.3389 0.799077 13.2001 0.799858C12.9182 0.802397 12.6477 0.689701 12.4512 0.487942C11.745 -0.162647 10.6581 -0.162647 9.95201 0.487942C9.75358 0.687944 9.48346 0.800249 9.20181 0.800249C8.91998 0.800249 8.65005 0.687944 8.45161 0.487942C7.74477 -0.162257 6.65766 -0.162257 5.95082 0.487942C5.75355 0.689897 5.48226 0.802593 5.20003 0.799858C5.06136 0.799858 4.93245 0.871539 4.8596 0.989508C4.78655 1.10728 4.77991 1.25474 4.84202 1.37877L6.62836 4.95145C6.32562 5.11297 6.10746 5.39754 6.03031 5.73192C5.95316 6.0663 6.02445 6.41767 6.22601 6.6956C2.55841 7.68076 0.00664064 11.0023 0 14.7999V22C0.00117191 23.1041 0.895904 23.9986 2.00001 24H16.4001C17.504 23.9986 18.3987 23.1041 18.4001 22V14.7999C18.3933 11.0023 15.8415 7.68076 12.1739 6.6956ZM6.45043 1.11236C6.64906 0.912359 6.91918 0.799858 7.20122 0.799858C7.48305 0.799858 7.75337 0.912359 7.952 1.11236C8.65845 1.76236 9.74537 1.76236 10.452 1.11236C10.6503 0.912359 10.92 0.799858 11.2016 0.799858C11.4831 0.799858 11.753 0.912359 11.9512 1.11236C12.1423 1.28092 12.3622 1.41392 12.6005 1.50475L10.9528 4.79988H7.44712L5.80004 1.50514C6.03851 1.41412 6.25883 1.28111 6.45043 1.11236ZM7.20004 6.39989C6.97895 6.39989 6.80004 6.22079 6.80004 5.99989C6.80004 5.77899 6.97895 5.59989 7.20004 5.59989H11.2001C11.421 5.59989 11.6001 5.77899 11.6001 5.99989C11.6001 6.22079 11.421 6.39989 11.2001 6.39989H7.20004ZM17.6001 22C17.6001 22.6627 17.0628 23.2 16.4001 23.2H2.00001C1.33712 23.2 0.800005 22.6627 0.800005 22V14.7999C0.804497 10.6044 4.20452 7.20459 8.40005 7.1999H10.0001C14.1954 7.20459 17.5954 10.6044 17.6001 14.7999V22Z" fill="#5077F7"/>
<path d="M6.51709 17.717L11.3173 12.917L11.8829 13.4826L7.08291 18.2828L6.51709 17.717Z" fill="#F6C358"/>
<path d="M10.8001 16C10.1372 16 9.6001 16.5373 9.6001 17.2C9.6001 17.8627 10.1372 18.4 10.8001 18.4C11.4628 18.4 12.0001 17.8627 12.0001 17.2C12.0001 16.5373 11.4628 16 10.8001 16ZM10.8001 17.6C10.579 17.6 10.4001 17.4209 10.4001 17.2C10.4001 16.9791 10.579 16.8 10.8001 16.8C11.021 16.8 11.2001 16.9791 11.2001 17.2C11.2001 17.4209 11.021 17.6 10.8001 17.6Z" fill="#F6C358"/>
<path d="M7.60015 15.1998C8.26285 15.1998 8.80016 14.6625 8.80016 13.9998C8.80016 13.3371 8.26285 12.7998 7.60015 12.7998C6.93726 12.7998 6.40015 13.3371 6.40015 13.9998C6.40015 14.6625 6.93726 15.1998 7.60015 15.1998ZM7.60015 13.5998C7.82105 13.5998 8.00016 13.7789 8.00016 13.9998C8.00016 14.2207 7.82105 14.3998 7.60015 14.3998C7.37906 14.3998 7.20015 14.2207 7.20015 13.9998C7.20015 13.7789 7.37906 13.5998 7.60015 13.5998Z" fill="#F6C358"/>
<path d="M9.20013 10C6.10714 10 3.6001 12.5072 3.6001 15.6C3.6001 18.6928 6.10714 21.2001 9.20013 21.2001C12.2929 21.2001 14.8002 18.6928 14.8002 15.6C14.7968 12.5086 12.2916 10.0033 9.20013 10ZM9.20013 20.4001C6.54914 20.4001 4.4001 18.251 4.4001 15.6C4.4001 12.949 6.54914 10.8 9.20013 10.8C11.8509 10.8 14.0002 12.949 14.0002 15.6C13.9972 18.2499 11.8498 20.3971 9.20013 20.4001Z" fill="#F6C358"/>
</svg>
