<svg width="19" height="10" viewBox="0 0 19 10" fill="none" xmlns="http://www.w3.org/2000/svg">
<path d="M4.90625 4.20312L5.20703 5.24219H4.16797L4.46875 4.20312L4.6875 3.30078C4.77865 3.68359 4.85156 3.98438 4.90625 4.20312ZM17.5938 0.375C17.776 0.375 17.931 0.438802 18.0586 0.566406C18.1862 0.69401 18.25 0.848958 18.25 1.03125V8.46875C18.25 8.65104 18.1862 8.80599 18.0586 8.93359C17.931 9.0612 17.776 9.125 17.5938 9.125H9.9375V0.375H17.5938ZM16.9375 3.65625V3.21875C16.9375 3 16.8281 2.89062 16.6094 2.89062H14.8594V2.45312C14.8594 2.23438 14.75 2.125 14.5312 2.125H14.0938C13.875 2.125 13.7656 2.23438 13.7656 2.45312V2.89062H12.0156C11.7969 2.89062 11.6875 3 11.6875 3.21875V3.65625C11.6875 3.875 11.7969 3.98438 12.0156 3.98438H15.1328C14.9688 4.36719 14.6953 4.75911 14.3125 5.16016C14.1484 4.97786 13.9935 4.78646 13.8477 4.58594C13.7201 4.42188 13.5742 4.39453 13.4102 4.50391L13.2188 4.61328L13.0273 4.72266C12.8268 4.85026 12.7904 5.00521 12.918 5.1875C13.1003 5.42448 13.2917 5.66146 13.4922 5.89844C13.2734 6.0625 13.0365 6.22656 12.7812 6.39062C12.599 6.5 12.5625 6.64583 12.6719 6.82812L12.8906 7.21094C13 7.41146 13.1549 7.44792 13.3555 7.32031C13.6836 7.11979 14.0026 6.89193 14.3125 6.63672C14.6042 6.8737 14.9323 7.10156 15.2969 7.32031C15.4792 7.44792 15.625 7.41146 15.7344 7.21094L15.9531 6.82812C16.0625 6.64583 16.026 6.5 15.8438 6.39062C15.6068 6.24479 15.3698 6.08073 15.1328 5.89844C15.7161 5.26042 16.1081 4.6224 16.3086 3.98438H16.6094C16.8281 3.98438 16.9375 3.875 16.9375 3.65625ZM0.75 1.03125C0.75 0.848958 0.813802 0.69401 0.941406 0.566406C1.06901 0.438802 1.22396 0.375 1.40625 0.375H9.0625V9.125H1.40625C1.22396 9.125 1.06901 9.0612 0.941406 8.93359C0.813802 8.80599 0.75 8.65104 0.75 8.46875V1.03125ZM2.36328 6.9375C2.34505 7.01042 2.34505 7.08333 2.36328 7.15625C2.38151 7.21094 2.41797 7.26562 2.47266 7.32031C2.52734 7.35677 2.59115 7.375 2.66406 7.375H3.29297C3.45703 7.375 3.56641 7.29297 3.62109 7.12891L3.86719 6.28125H5.50781L5.75391 7.12891C5.80859 7.29297 5.91797 7.375 6.08203 7.375H6.71094C6.82031 7.375 6.90234 7.32943 6.95703 7.23828C7.02995 7.14714 7.04818 7.04688 7.01172 6.9375L5.45312 2.31641C5.39844 2.17057 5.28906 2.09766 5.125 2.09766H4.25C4.08594 2.09766 3.97656 2.17057 3.92188 2.31641L2.36328 6.9375Z" fill="#5077F7"/>
</svg>
