<svg width="38" height="40" viewBox="0 0 38 40" fill="none" xmlns="http://www.w3.org/2000/svg">
<path d="M24.5074 28.9785C26.3401 27.9303 27.8639 26.4171 28.9248 24.5917C29.9857 22.7663 30.5461 20.6932 30.5495 18.5819C30.5496 16.9796 30.2278 15.3936 29.6034 13.9179C28.979 12.4422 28.0646 11.107 26.9145 9.99138C25.7643 8.87576 24.4018 8.00247 22.9078 7.42331C21.4138 6.84416 19.8187 6.57093 18.2171 6.61983C15.2374 6.72616 12.4032 7.93475 10.2636 10.0114C8.12411 12.0881 6.83157 14.885 6.63645 17.8602C6.49559 20.0954 6.98752 22.3251 8.05585 24.2935C9.12417 26.2619 10.7256 27.8894 12.6766 28.9893C12.8916 29.1146 13.0696 29.2944 13.1928 29.5107C13.316 29.7269 13.3799 29.9718 13.378 30.2206V31.3076H12.9142C12.7575 31.3076 12.6073 31.3698 12.4965 31.4806C12.3857 31.5914 12.3235 31.7416 12.3235 31.8983C12.3235 32.0549 12.3857 32.2052 12.4965 32.316C12.6073 32.4267 12.7575 32.489 12.9142 32.489H13.378V33.7129H12.9142C12.7575 33.7129 12.6073 33.7752 12.4965 33.886C12.3857 33.9967 12.3235 34.147 12.3235 34.3036C12.3235 34.4603 12.3857 34.6106 12.4965 34.7213C12.6073 34.8321 12.7575 34.8944 12.9142 34.8944H13.378V36.1183H12.9142C12.7575 36.1183 12.6073 36.1806 12.4965 36.2913C12.3857 36.4021 12.3235 36.5524 12.3235 36.709C12.3235 36.8657 12.3857 37.0159 12.4965 37.1267C12.6073 37.2375 12.7575 37.2997 12.9142 37.2997H15.966V37.3838C15.966 38.0776 16.2416 38.743 16.7322 39.2336C17.2228 39.7242 17.8882 39.9998 18.582 39.9998C19.2758 39.9998 19.9412 39.7242 20.4318 39.2336C20.9224 38.743 21.198 38.0776 21.198 37.3838V37.2997H24.2498C24.4065 37.2997 24.5567 37.2375 24.6675 37.1267C24.7783 37.0159 24.8405 36.8657 24.8405 36.709C24.8405 36.5524 24.7783 36.4021 24.6675 36.2913C24.5567 36.1806 24.4065 36.1183 24.2498 36.1183H23.786V34.8944H24.2498C24.4065 34.8944 24.5567 34.8321 24.6675 34.7213C24.7783 34.6106 24.8405 34.4603 24.8405 34.3036C24.8405 34.147 24.7783 33.9967 24.6675 33.886C24.5567 33.7752 24.4065 33.7129 24.2498 33.7129H23.786V32.489H24.2498C24.4065 32.489 24.5567 32.4267 24.6675 32.316C24.7783 32.2052 24.8405 32.0549 24.8405 31.8983C24.8405 31.7416 24.7783 31.5914 24.6675 31.4806C24.5567 31.3698 24.4065 31.3076 24.2498 31.3076H23.786V30.219C23.7866 29.967 23.8536 29.7197 23.9803 29.5019C24.1069 29.2842 24.2887 29.1036 24.5074 28.9785ZM13.2602 27.9624C11.1898 26.7879 9.56607 24.9614 8.64216 22.7676C7.71825 20.5739 7.54603 18.1361 8.15235 15.8342C8.75867 13.5324 10.1095 11.4957 11.9942 10.0418C13.8789 8.58784 16.1917 7.79824 18.5721 7.79605C20.9525 7.79387 23.2667 8.57922 25.1541 10.0297C27.0415 11.4802 28.396 13.5143 29.0066 15.8151C29.6171 18.1158 29.4494 20.5539 28.5295 22.7494C27.6096 24.9448 25.9893 26.7743 23.921 27.9526C23.5216 28.1815 23.1895 28.5117 22.9584 28.9099C22.7272 29.3081 22.6052 29.7602 22.6046 30.2206V31.3076H14.5594V30.2193C14.5611 29.7617 14.4418 29.3119 14.2137 28.9152C13.9855 28.5186 13.6566 28.1893 13.2602 27.9608V27.9624ZM20.0166 37.3835C20.0166 37.7639 19.8654 38.1288 19.5964 38.3979C19.3274 38.6669 18.9625 38.818 18.582 38.818C18.2015 38.818 17.8366 38.6669 17.5676 38.3979C17.2986 38.1288 17.1474 37.7639 17.1474 37.3835V37.2994H20.0166V37.3835ZM22.6046 36.118H14.5594V34.894H22.6046V36.118ZM14.5594 33.7126V32.489H22.6046V33.7129L14.5594 33.7126Z" fill="#5077F7"/>
<path d="M27.0337 16.2741C27.0679 16.3991 27.1421 16.5093 27.2451 16.5879C27.348 16.6666 27.474 16.7092 27.6035 16.7092C27.6562 16.7093 27.7087 16.7021 27.7594 16.688C27.9105 16.6467 28.0391 16.5471 28.1167 16.4111C28.1944 16.275 28.2149 16.1137 28.1736 15.9626C27.8889 14.9215 27.4356 13.9341 26.8318 13.0394C26.7419 12.9154 26.6073 12.8311 26.4565 12.8044C26.3056 12.7778 26.1503 12.8107 26.0233 12.8964C25.8963 12.9821 25.8075 13.1137 25.7757 13.2636C25.7439 13.4135 25.7716 13.5698 25.853 13.6997C26.3844 14.4876 26.7833 15.3573 27.0337 16.2741Z" fill="#F6C358"/>
<path d="M18.582 5.06325C18.7387 5.06325 18.889 5.00101 18.9997 4.89023C19.1105 4.77945 19.1728 4.6292 19.1728 4.47254V0.590712C19.1728 0.434046 19.1105 0.283796 18.9997 0.173016C18.889 0.0622356 18.7387 0 18.582 0C18.4254 0 18.2751 0.0622356 18.1643 0.173016C18.0536 0.283796 17.9913 0.434046 17.9913 0.590712V4.47254C17.9913 4.6292 18.0536 4.77945 18.1643 4.89023C18.2751 5.00101 18.4254 5.06325 18.582 5.06325Z" fill="#F6C358"/>
<path d="M11.0159 6.65835C11.0544 6.72607 11.1059 6.78551 11.1675 6.83324C11.229 6.88097 11.2994 6.91605 11.3746 6.93646C11.4498 6.95687 11.5283 6.96221 11.6055 6.95217C11.6828 6.94213 11.7573 6.91691 11.8247 6.87795C11.8922 6.839 11.9513 6.78709 11.9986 6.7252C12.0459 6.66332 12.0806 6.59269 12.1005 6.51737C12.1204 6.44206 12.1252 6.36355 12.1146 6.28636C12.1041 6.20918 12.0784 6.13484 12.039 6.06764L10.0981 2.70598C10.0596 2.63825 10.008 2.57882 9.94647 2.53109C9.8849 2.48335 9.8145 2.44827 9.73932 2.42786C9.66414 2.40745 9.58566 2.40211 9.50841 2.41215C9.43115 2.4222 9.35665 2.44742 9.28919 2.48637C9.22172 2.52532 9.16262 2.57724 9.1153 2.63912C9.06798 2.701 9.03337 2.77164 9.01346 2.84695C8.99355 2.92227 8.98873 3.00078 8.99928 3.07796C9.00983 3.15515 9.03555 3.22948 9.07495 3.29669L11.0159 6.65835Z" fill="#F6C358"/>
<path d="M2.70644 10.0977L6.0681 12.0386C6.20382 12.1169 6.36509 12.1381 6.51645 12.0976C6.66781 12.057 6.79685 11.9579 6.87518 11.8222C6.95351 11.6865 6.97473 11.5252 6.93415 11.3739C6.89357 11.2225 6.79453 11.0935 6.65881 11.0151L3.29715 9.07424C3.22995 9.03545 3.15577 9.01028 3.07884 9.00016C3.00191 8.99004 2.92374 8.99518 2.8488 9.01527C2.77385 9.03536 2.7036 9.07002 2.64205 9.11726C2.5805 9.1645 2.52886 9.22341 2.49007 9.29061C2.45128 9.35781 2.42611 9.43199 2.41599 9.50892C2.40588 9.58585 2.41101 9.66401 2.4311 9.73896C2.45119 9.8139 2.48585 9.88416 2.53309 9.94571C2.58034 10.0073 2.63924 10.0589 2.70644 10.0977Z" fill="#F6C358"/>
<path d="M5.06392 18.5819C5.06392 18.4253 5.00169 18.275 4.89091 18.1642C4.78013 18.0534 4.62988 17.9912 4.47321 17.9912H0.590712C0.434046 17.9912 0.283796 18.0534 0.173016 18.1642C0.0622358 18.275 0 18.4253 0 18.5819C0 18.7386 0.0622358 18.8888 0.173016 18.9996C0.283796 19.1104 0.434046 19.1726 0.590712 19.1726H4.47254C4.55017 19.1727 4.62705 19.1575 4.6988 19.1279C4.77055 19.0982 4.83575 19.0547 4.89067 18.9999C4.94559 18.945 4.98917 18.8798 5.01889 18.8081C5.04862 18.7364 5.06392 18.6596 5.06392 18.5819Z" fill="#F6C358"/>
<path d="M6.06806 25.1246L2.7064 27.0655C2.63868 27.104 2.57924 27.1555 2.53151 27.2171C2.48378 27.2786 2.4487 27.349 2.42829 27.4242C2.40788 27.4994 2.40254 27.5779 2.41258 27.6551C2.42262 27.7324 2.44785 27.8069 2.4868 27.8744C2.52575 27.9418 2.57766 28.0009 2.63955 28.0482C2.70143 28.0956 2.77206 28.1302 2.84738 28.1501C2.92269 28.17 3.0012 28.1748 3.07839 28.1643C3.15557 28.1537 3.22991 28.128 3.29712 28.0886L6.65877 26.1477C6.79334 26.0688 6.89124 25.9399 6.93112 25.7891C6.97099 25.6383 6.94959 25.4778 6.87159 25.3427C6.7936 25.2076 6.66534 25.1089 6.5148 25.068C6.36426 25.0271 6.20367 25.0475 6.06806 25.1246Z" fill="#F6C358"/>
<path d="M25.3412 6.87472C25.4084 6.91357 25.4826 6.93879 25.5596 6.94894C25.6365 6.95909 25.7147 6.95397 25.7896 6.93387C25.8646 6.91378 25.9349 6.8791 25.9964 6.83182C26.058 6.78454 26.1096 6.72559 26.1483 6.65835L28.0892 3.29669C28.1286 3.22948 28.1544 3.15515 28.1649 3.07796C28.1755 3.00078 28.1706 2.92227 28.1507 2.84695C28.1308 2.77164 28.0962 2.701 28.0489 2.63912C28.0016 2.57724 27.9425 2.52532 27.875 2.48637C27.8075 2.44742 27.733 2.4222 27.6558 2.41215C27.5785 2.40211 27.5 2.40745 27.4249 2.42786C27.3497 2.44827 27.2793 2.48335 27.2177 2.53109C27.1561 2.57882 27.1046 2.63825 27.0661 2.70598L25.1252 6.06764C25.0864 6.13481 25.0612 6.20898 25.051 6.2859C25.0409 6.36281 25.046 6.44098 25.066 6.51593C25.0861 6.59087 25.1207 6.66113 25.168 6.7227C25.2152 6.78426 25.2741 6.83592 25.3412 6.87472Z" fill="#F6C358"/>
<path d="M30.8014 12.1176C30.9048 12.1177 31.0065 12.0904 31.0961 12.0386L34.4577 10.0977C34.5249 10.0589 34.5838 10.0073 34.6311 9.94571C34.6783 9.88416 34.713 9.8139 34.733 9.73896C34.7531 9.66401 34.7583 9.58585 34.7482 9.50892C34.738 9.43199 34.7129 9.35781 34.6741 9.29061C34.6353 9.22341 34.5837 9.1645 34.5221 9.11726C34.4606 9.07002 34.3903 9.03536 34.3154 9.01527C34.2404 8.99518 34.1622 8.99004 34.0853 9.00016C34.0084 9.01028 33.9342 9.03545 33.867 9.07424L30.5053 11.0151C30.3926 11.0802 30.3045 11.1806 30.2547 11.3008C30.2049 11.4211 30.1962 11.5544 30.2299 11.6801C30.2637 11.8058 30.338 11.9168 30.4413 11.9959C30.5447 12.075 30.6712 12.1178 30.8014 12.1176Z" fill="#F6C358"/>
<path d="M36.5734 17.9907H32.6916C32.5349 17.9907 32.3847 18.053 32.2739 18.1637C32.1631 18.2745 32.1009 18.4248 32.1009 18.5814C32.1009 18.7381 32.1631 18.8884 32.2739 18.9991C32.3847 19.1099 32.5349 19.1721 32.6916 19.1721H36.5734C36.7301 19.1721 36.8803 19.1099 36.9911 18.9991C37.1019 18.8884 37.1641 18.7381 37.1641 18.5814C37.1641 18.4248 37.1019 18.2745 36.9911 18.1637C36.8803 18.053 36.7301 17.9907 36.5734 17.9907Z" fill="#F6C358"/>
<path d="M34.4577 27.0655L31.0961 25.1246C30.9605 25.0475 30.7999 25.0271 30.6493 25.068C30.4988 25.1089 30.3705 25.2076 30.2925 25.3427C30.2145 25.4778 30.1931 25.6383 30.233 25.7891C30.2729 25.9399 30.3708 26.0688 30.5053 26.1477L33.867 28.0886C33.9342 28.128 34.0085 28.1537 34.0857 28.1643C34.1629 28.1748 34.2414 28.17 34.3167 28.1501C34.3921 28.1302 34.4627 28.0956 34.5246 28.0482C34.5865 28.0009 34.6384 27.9418 34.6773 27.8744C34.7163 27.8069 34.7415 27.7324 34.7515 27.6551C34.7616 27.5779 34.7562 27.4994 34.7358 27.4242C34.7154 27.349 34.6803 27.2786 34.6326 27.2171C34.5849 27.1555 34.5254 27.104 34.4577 27.0655Z" fill="#F6C358"/>
</svg>
