<svg width="13" height="15" viewBox="0 0 13 15" fill="none" xmlns="http://www.w3.org/2000/svg">
<path d="M7.75781 14.2305C7.41146 14.5768 7.0013 14.75 6.52734 14.75C6.05339 14.75 5.64323 14.5768 5.29688 14.2305C4.95052 13.9023 4.77734 13.4922 4.77734 13H8.27734C8.27734 13.4922 8.10417 13.9023 7.75781 14.2305ZM12.4062 10.6484C12.5703 10.8307 12.6523 11.0312 12.6523 11.25C12.6523 11.487 12.5703 11.6966 12.4062 11.8789C12.2422 12.043 12.0326 12.125 11.7773 12.125H1.27734C1.11328 12.125 0.958333 12.0885 0.8125 12.0156C0.684896 11.9245 0.584635 11.8151 0.511719 11.6875C0.438802 11.5417 0.402344 11.3958 0.402344 11.25C0.402344 11.0312 0.484375 10.8307 0.648438 10.6484C0.666667 10.6302 0.69401 10.5938 0.730469 10.5391C1.00391 10.2656 1.21354 10.0195 1.35938 9.80078C1.52344 9.58203 1.69661 9.17188 1.87891 8.57031C2.0612 7.95052 2.15234 7.23958 2.15234 6.4375C2.15234 5.38021 2.48047 4.45964 3.13672 3.67578C3.79297 2.89193 4.63151 2.39974 5.65234 2.19922V1.625C5.65234 1.38802 5.73438 1.1875 5.89844 1.02344C6.08073 0.841146 6.29036 0.75 6.52734 0.75C6.76432 0.75 6.96484 0.841146 7.12891 1.02344C7.3112 1.1875 7.40234 1.38802 7.40234 1.625V2.19922C8.07682 2.32682 8.67839 2.59115 9.20703 2.99219C9.73568 3.39323 10.1458 3.89453 10.4375 4.49609C10.7474 5.09766 10.9023 5.74479 10.9023 6.4375C10.9023 7.23958 10.9935 7.95052 11.1758 8.57031C11.3581 9.17188 11.5221 9.58203 11.668 9.80078C11.832 10.0195 12.0508 10.2656 12.3242 10.5391C12.3607 10.5938 12.388 10.6302 12.4062 10.6484Z" fill="#5077F7"/>
</svg>
