<svg width="40" height="40" viewBox="0 0 40 40" fill="none" xmlns="http://www.w3.org/2000/svg">
<mask id="path-1-inside-1_100_454" fill="white">
<path d="M34.1378 14.1063C33.3874 12.3055 32.2369 10.6048 30.7863 9.15413C27.885 6.25284 24.0833 4.70215 20.0815 4.70215H20.0315C11.6278 4.75217 4.77471 11.6052 4.82474 19.9589C4.82474 24.0107 6.42545 27.8624 9.32673 30.7137C12.228 33.615 16.0297 35.1657 20.0815 35.1657C28.4852 35.1157 35.3383 28.2626 35.2883 19.9089C35.2883 17.908 34.8881 15.9571 34.1378 14.1063ZM30.8363 12.7557L31.0364 12.4056L31.2865 12.7557C31.9868 13.8562 32.487 14.9567 32.9372 16.4574L33.0873 16.8575L32.1369 16.6575C30.8363 16.3573 29.5857 16.0572 28.3852 15.3069L28.035 15.0567L28.4352 14.8567C29.5857 14.3064 30.3361 13.6561 30.8363 12.7557ZM9.02661 12.2555C9.22669 12.0554 9.42678 11.8053 9.62687 11.6052C10.0771 11.105 10.5273 10.5547 11.0275 10.1045C13.2285 8.10366 15.8796 6.95315 18.881 6.65302C19.0811 6.65302 19.3812 6.65301 19.5313 6.80308C19.6813 6.90312 19.7314 7.10322 19.7314 7.35333C19.7814 8.40379 19.4312 9.35422 19.0811 10.1546C18.981 10.3547 18.831 10.4547 18.6309 10.5547L18.5308 10.6048C18.3808 10.7048 18.2807 10.7548 18.1306 10.8549C17.9306 10.9549 17.7305 11.055 17.5804 11.205C16.9801 11.6052 16.63 12.2055 16.63 12.9058C16.63 13.5561 16.9301 14.2064 17.5304 14.6065C17.8305 14.8066 18.1306 15.0067 18.4808 15.1568C18.981 15.4069 19.1811 15.8071 19.0811 16.4073L19.031 16.5574C18.931 17.1077 18.7809 17.6579 18.7309 18.1581C18.4308 20.0089 19.3312 21.3595 21.132 21.9098C21.6322 22.0599 22.1824 22.1599 22.6827 22.31L22.9328 22.36C23.533 22.5101 23.9832 22.8602 24.2334 23.4605C24.5335 24.1108 24.8336 24.8611 24.5835 25.7115C24.3334 26.5619 23.8832 26.812 23.0328 26.6619C22.7327 26.6119 22.4326 26.5118 22.0824 26.4618C21.6822 26.3618 21.282 26.2617 20.9319 26.2117C20.1816 26.1117 19.5813 26.2617 19.2311 26.6619C18.881 27.0621 18.7809 27.6623 18.981 28.4127L19.0811 28.8129L18.7309 29.2631L18.5308 29.113C18.4808 29.063 18.3808 29.0129 18.3307 28.9629C18.1306 28.8629 17.9306 28.7128 17.7805 28.5127C17.2803 27.7624 16.8301 27.0121 16.4299 26.1617C16.2298 25.7115 16.2298 25.1612 16.2298 24.7611C16.2298 24.2608 16.2298 23.7106 16.2798 23.2104C16.3298 22.41 16.3298 21.5596 16.2798 20.7093V20.4591C16.2298 19.9089 16.2298 19.3086 16.3799 18.7084C16.4799 18.2081 16.3799 17.7079 16.1298 17.3578C15.8296 17.0076 15.3794 16.7575 14.8792 16.7575C14.2789 16.7575 13.7287 16.8075 13.1284 16.9076C12.8783 16.9576 12.5782 16.9576 12.3281 17.0076C12.228 17.0076 12.078 17.0076 11.9279 17.0576L11.3776 17.1077L11.4777 16.6074C11.4777 16.5074 11.5277 16.4574 11.5277 16.3573C11.6278 15.657 11.4777 15.1568 11.0275 14.7066C10.5773 14.3064 10.1771 13.9062 9.72691 13.5061L8.82651 12.6557L9.02661 12.2555ZM30.236 28.6128C27.5348 31.7141 24.1833 33.3149 20.2816 33.3149C19.9314 33.3149 19.5813 33.3149 19.2311 33.2648C14.0788 32.9147 10.2772 30.3135 7.97614 25.6114C6.37542 22.36 6.22536 18.8584 7.52594 15.2068C7.57596 15.0567 7.676 14.9067 7.72602 14.7066L7.97614 14.0563L8.5764 14.6065C8.87653 14.9067 9.17667 15.2068 9.4768 15.5069C9.62687 15.657 9.62687 15.9571 9.57684 16.0072C9.57684 16.1072 9.52682 16.2073 9.4768 16.3073C9.4768 16.3573 9.42678 16.4073 9.42678 16.4574C9.22669 17.0576 9.32674 17.6579 9.62687 18.0581C9.927 18.4583 10.3772 18.6583 10.9775 18.6583C11.5777 18.6583 12.228 18.5583 12.8783 18.4583C13.1784 18.4082 13.4786 18.3582 13.7287 18.3582C13.9788 18.3082 14.1789 18.3082 14.1789 18.5583C14.2289 18.7584 14.2289 19.0085 14.2789 19.2086C14.329 19.7088 14.429 20.159 14.429 20.6092V20.7593C14.479 21.7597 14.479 22.8102 14.379 23.8106C14.2289 24.9611 14.379 25.9116 14.7792 26.862C15.1793 27.7124 15.7296 28.8629 16.58 29.7633C17.2803 30.4636 18.1306 30.8137 19.0811 30.7637C20.7318 30.6637 21.082 29.4131 21.0319 28.3627V28.0625L21.3321 28.1125C21.4821 28.1626 21.6322 28.1626 21.7823 28.2126C22.0824 28.2626 22.4326 28.3627 22.7327 28.4127C23.7331 28.5627 24.6335 28.3126 25.3338 27.7624C26.0342 27.2121 26.4343 26.3117 26.4844 25.2613C26.5344 23.9607 26.1842 22.7602 25.2838 21.5596C24.7836 20.8093 23.9332 20.5592 23.1829 20.3591C22.9828 20.3091 22.8327 20.2591 22.6326 20.2591C22.3325 20.159 21.9824 20.109 21.6822 20.0089C20.7818 19.7588 20.4817 19.3086 20.5817 18.3582C20.6318 17.958 20.7318 17.5579 20.7818 17.1577L20.8819 16.7075C21.182 15.0067 20.7818 14.1563 19.2812 13.356C19.1811 13.306 19.0811 13.2559 18.931 13.1559L18.3307 12.8057L19.0811 12.3555C19.3312 12.2055 19.5313 12.1054 19.7814 11.9554C20.2816 11.6552 20.5817 11.2551 20.8318 10.7048C21.4321 9.30419 21.6322 8.15368 21.5822 6.95315V6.65302L21.8823 6.70304C24.9837 7.20326 27.5348 8.55386 29.7358 10.8549L29.9359 11.055L29.7358 11.2551C29.4857 11.4551 29.2856 11.7053 29.0855 11.9554C28.6853 12.4056 28.2852 12.9058 27.6349 13.1059C27.5348 13.1559 27.4848 13.2059 27.3848 13.2559C27.3347 13.306 27.2847 13.306 27.2847 13.356C26.6344 13.8062 26.2843 14.4565 26.2843 15.1068C26.2843 15.7571 26.6344 16.3573 27.2347 16.7575C27.835 17.2077 28.6353 17.6079 29.4857 17.858C30.3861 18.1081 31.2865 18.3082 32.1869 18.4583L32.8372 18.6083C33.1873 18.6583 33.3874 18.8584 33.3874 19.2586C33.5375 22.8602 32.487 26.0116 30.236 28.6128Z"/>
</mask>
<path d="M34.1378 14.1063C33.3874 12.3055 32.2369 10.6048 30.7863 9.15413C27.885 6.25284 24.0833 4.70215 20.0815 4.70215H20.0315C11.6278 4.75217 4.77471 11.6052 4.82474 19.9589C4.82474 24.0107 6.42545 27.8624 9.32673 30.7137C12.228 33.615 16.0297 35.1657 20.0815 35.1657C28.4852 35.1157 35.3383 28.2626 35.2883 19.9089C35.2883 17.908 34.8881 15.9571 34.1378 14.1063ZM30.8363 12.7557L31.0364 12.4056L31.2865 12.7557C31.9868 13.8562 32.487 14.9567 32.9372 16.4574L33.0873 16.8575L32.1369 16.6575C30.8363 16.3573 29.5857 16.0572 28.3852 15.3069L28.035 15.0567L28.4352 14.8567C29.5857 14.3064 30.3361 13.6561 30.8363 12.7557ZM9.02661 12.2555C9.22669 12.0554 9.42678 11.8053 9.62687 11.6052C10.0771 11.105 10.5273 10.5547 11.0275 10.1045C13.2285 8.10366 15.8796 6.95315 18.881 6.65302C19.0811 6.65302 19.3812 6.65301 19.5313 6.80308C19.6813 6.90312 19.7314 7.10322 19.7314 7.35333C19.7814 8.40379 19.4312 9.35422 19.0811 10.1546C18.981 10.3547 18.831 10.4547 18.6309 10.5547L18.5308 10.6048C18.3808 10.7048 18.2807 10.7548 18.1306 10.8549C17.9306 10.9549 17.7305 11.055 17.5804 11.205C16.9801 11.6052 16.63 12.2055 16.63 12.9058C16.63 13.5561 16.9301 14.2064 17.5304 14.6065C17.8305 14.8066 18.1306 15.0067 18.4808 15.1568C18.981 15.4069 19.1811 15.8071 19.0811 16.4073L19.031 16.5574C18.931 17.1077 18.7809 17.6579 18.7309 18.1581C18.4308 20.0089 19.3312 21.3595 21.132 21.9098C21.6322 22.0599 22.1824 22.1599 22.6827 22.31L22.9328 22.36C23.533 22.5101 23.9832 22.8602 24.2334 23.4605C24.5335 24.1108 24.8336 24.8611 24.5835 25.7115C24.3334 26.5619 23.8832 26.812 23.0328 26.6619C22.7327 26.6119 22.4326 26.5118 22.0824 26.4618C21.6822 26.3618 21.282 26.2617 20.9319 26.2117C20.1816 26.1117 19.5813 26.2617 19.2311 26.6619C18.881 27.0621 18.7809 27.6623 18.981 28.4127L19.0811 28.8129L18.7309 29.2631L18.5308 29.113C18.4808 29.063 18.3808 29.0129 18.3307 28.9629C18.1306 28.8629 17.9306 28.7128 17.7805 28.5127C17.2803 27.7624 16.8301 27.0121 16.4299 26.1617C16.2298 25.7115 16.2298 25.1612 16.2298 24.7611C16.2298 24.2608 16.2298 23.7106 16.2798 23.2104C16.3298 22.41 16.3298 21.5596 16.2798 20.7093V20.4591C16.2298 19.9089 16.2298 19.3086 16.3799 18.7084C16.4799 18.2081 16.3799 17.7079 16.1298 17.3578C15.8296 17.0076 15.3794 16.7575 14.8792 16.7575C14.2789 16.7575 13.7287 16.8075 13.1284 16.9076C12.8783 16.9576 12.5782 16.9576 12.3281 17.0076C12.228 17.0076 12.078 17.0076 11.9279 17.0576L11.3776 17.1077L11.4777 16.6074C11.4777 16.5074 11.5277 16.4574 11.5277 16.3573C11.6278 15.657 11.4777 15.1568 11.0275 14.7066C10.5773 14.3064 10.1771 13.9062 9.72691 13.5061L8.82651 12.6557L9.02661 12.2555ZM30.236 28.6128C27.5348 31.7141 24.1833 33.3149 20.2816 33.3149C19.9314 33.3149 19.5813 33.3149 19.2311 33.2648C14.0788 32.9147 10.2772 30.3135 7.97614 25.6114C6.37542 22.36 6.22536 18.8584 7.52594 15.2068C7.57596 15.0567 7.676 14.9067 7.72602 14.7066L7.97614 14.0563L8.5764 14.6065C8.87653 14.9067 9.17667 15.2068 9.4768 15.5069C9.62687 15.657 9.62687 15.9571 9.57684 16.0072C9.57684 16.1072 9.52682 16.2073 9.4768 16.3073C9.4768 16.3573 9.42678 16.4073 9.42678 16.4574C9.22669 17.0576 9.32674 17.6579 9.62687 18.0581C9.927 18.4583 10.3772 18.6583 10.9775 18.6583C11.5777 18.6583 12.228 18.5583 12.8783 18.4583C13.1784 18.4082 13.4786 18.3582 13.7287 18.3582C13.9788 18.3082 14.1789 18.3082 14.1789 18.5583C14.2289 18.7584 14.2289 19.0085 14.2789 19.2086C14.329 19.7088 14.429 20.159 14.429 20.6092V20.7593C14.479 21.7597 14.479 22.8102 14.379 23.8106C14.2289 24.9611 14.379 25.9116 14.7792 26.862C15.1793 27.7124 15.7296 28.8629 16.58 29.7633C17.2803 30.4636 18.1306 30.8137 19.0811 30.7637C20.7318 30.6637 21.082 29.4131 21.0319 28.3627V28.0625L21.3321 28.1125C21.4821 28.1626 21.6322 28.1626 21.7823 28.2126C22.0824 28.2626 22.4326 28.3627 22.7327 28.4127C23.7331 28.5627 24.6335 28.3126 25.3338 27.7624C26.0342 27.2121 26.4343 26.3117 26.4844 25.2613C26.5344 23.9607 26.1842 22.7602 25.2838 21.5596C24.7836 20.8093 23.9332 20.5592 23.1829 20.3591C22.9828 20.3091 22.8327 20.2591 22.6326 20.2591C22.3325 20.159 21.9824 20.109 21.6822 20.0089C20.7818 19.7588 20.4817 19.3086 20.5817 18.3582C20.6318 17.958 20.7318 17.5579 20.7818 17.1577L20.8819 16.7075C21.182 15.0067 20.7818 14.1563 19.2812 13.356C19.1811 13.306 19.0811 13.2559 18.931 13.1559L18.3307 12.8057L19.0811 12.3555C19.3312 12.2055 19.5313 12.1054 19.7814 11.9554C20.2816 11.6552 20.5817 11.2551 20.8318 10.7048C21.4321 9.30419 21.6322 8.15368 21.5822 6.95315V6.65302L21.8823 6.70304C24.9837 7.20326 27.5348 8.55386 29.7358 10.8549L29.9359 11.055L29.7358 11.2551C29.4857 11.4551 29.2856 11.7053 29.0855 11.9554C28.6853 12.4056 28.2852 12.9058 27.6349 13.1059C27.5348 13.1559 27.4848 13.2059 27.3848 13.2559C27.3347 13.306 27.2847 13.306 27.2847 13.356C26.6344 13.8062 26.2843 14.4565 26.2843 15.1068C26.2843 15.7571 26.6344 16.3573 27.2347 16.7575C27.835 17.2077 28.6353 17.6079 29.4857 17.858C30.3861 18.1081 31.2865 18.3082 32.1869 18.4583L32.8372 18.6083C33.1873 18.6583 33.3874 18.8584 33.3874 19.2586C33.5375 22.8602 32.487 26.0116 30.236 28.6128Z" fill="#F6C358" stroke="white" stroke-width="0.4" mask="url(#path-1-inside-1_100_454)"/>
<path d="M34.3875 6.49889V6.50289C34.3875 6.78612 34.2947 7.1287 33.9056 7.2584L33.9056 7.25833L33.9021 7.25963C33.7145 7.33 33.5465 7.35057 33.3885 7.31787C33.2306 7.28521 33.0723 7.19725 32.9075 7.03245C30.5931 4.71812 27.7761 3.1591 24.6091 2.30452L24.6091 2.30451C17.516 0.392897 9.77037 3.10908 5.3941 9.0447L5.39387 9.04501C2.9297 12.4144 1.72272 16.2874 1.77299 20.4603L1.77303 20.4619C1.82332 22.2721 2.1251 24.0836 2.77938 25.8955L2.77873 25.8957L2.78399 25.9062L2.83401 26.0062L2.92345 25.9615L2.83401 26.0063C2.88121 26.1006 2.92351 26.2343 2.92351 26.3117V26.3251L2.92703 26.338C2.99634 26.5921 2.97176 26.8161 2.87833 26.9975C2.78467 27.1793 2.61736 27.3269 2.38609 27.4194C2.17048 27.5056 1.95104 27.4645 1.76765 27.3728C1.59859 27.2882 1.46232 27.1145 1.36745 26.8795L1.26884 26.5343L1.26846 26.5331C1.21172 26.3439 1.15335 26.1535 1.09463 25.9619C0.841521 25.136 0.582105 24.2896 0.420699 23.4426C-0.326066 19.1104 0.222107 14.9813 2.1618 11.2511L2.16196 11.2508C5.44866 4.8766 10.6227 1.19566 17.5919 0.299383C17.6386 0.294195 17.6851 0.289009 17.7315 0.28384C18.581 0.189179 19.3814 0.1 20.1811 0.1C24.2601 0.1 28.0918 1.39283 31.7283 3.98318L31.7346 3.9877L31.7416 3.99118C31.7854 4.01311 31.8183 4.03495 31.8559 4.05997L31.857 4.06076C31.8912 4.08353 31.9293 4.1089 31.9783 4.13441C32.0522 4.20021 32.1299 4.20182 32.1794 4.20183L32.5225 4.25084L32.6366 4.26715V4.15185V3.65162V3.65074V3.64986V3.64899V3.64811V3.64723V3.64635V3.64547V3.64459V3.64371V3.64283V3.64195V3.64107V3.64019V3.63931V3.63843V3.63755V3.63668V3.6358V3.63492V3.63404V3.63316V3.63228V3.6314V3.63052V3.62964V3.62876V3.62788V3.627V3.62612V3.62524V3.62437V3.62349V3.62261V3.62173V3.62085V3.61997V3.61909V3.61821V3.61733V3.61645V3.61557V3.61469V3.61381V3.61293V3.61205V3.61118V3.6103V3.60942V3.60854V3.60766V3.60678V3.6059V3.60502V3.60414V3.60326V3.60238V3.6015V3.60062V3.59974V3.59887V3.59799V3.59711V3.59623V3.59535V3.59447V3.59359V3.59271V3.59183V3.59095V3.59007V3.58919V3.58831V3.58743V3.58656V3.58568V3.5848V3.58392V3.58304V3.58216V3.58128V3.5804V3.57952V3.57864V3.57776V3.57688V3.576V3.57512V3.57424V3.57337V3.57249V3.57161V3.57073V3.56985V3.56897V3.56809V3.56721V3.56633V3.56545V3.56457V3.56369V3.56281V3.56193V3.56106V3.56018V3.5593V3.55842V3.55754V3.55666V3.55578V3.5549V3.55402V3.55314V3.55226V3.55138V3.5505V3.54962V3.54875V3.54787V3.54699V3.54611V3.54523V3.54435V3.54347V3.54259V3.54171V3.54083V3.53995V3.53907V3.53819V3.53731V3.53644V3.53556V3.53468V3.5338V3.53292V3.53204V3.53116V3.53028V3.5294V3.52852V3.52764V3.52676V3.52588V3.525V3.52413V3.52325V3.52237V3.52149V3.52061V3.51973V3.51885V3.51797V3.51709V3.51621V3.51533V3.51445V3.51357V3.51269V3.51181V3.51094V3.51006V3.50918V3.5083V3.50742V3.50654V3.50566V3.50478V3.5039V3.50302V3.50214V3.50126V3.50038V3.4995V3.49863V3.49775V3.49687V3.49599V3.49511V3.49423V3.49335V3.49247V3.49159V3.49071V3.48983V3.48895V3.48807V3.48719V3.48632V3.48544V3.48456V3.48368V3.4828V3.48192V3.48104V3.48016V3.47928V3.4784V3.47752V3.47664V3.47576V3.47488V3.474V3.47313V3.47225V3.47137V3.47049V3.46961V3.46873V3.46785V3.46697V3.46609V3.46521V3.46433V3.46345V3.46257V3.46169V3.46082V3.45994V3.45906V3.45818V3.4573V3.45642V3.45554V3.45466V3.45378V3.4529V3.45202V3.45114V3.45026V3.44938V3.44851V3.44763V3.44675V3.44587V3.44499V3.44411V3.44323V3.44235V3.44147V3.44059V3.43971V3.43883V3.43795V3.43707V3.4362V3.43532V3.43444V3.43356V3.43268V3.4318V3.43092V3.43004V3.42916V3.42828V3.4274V3.42652V3.42564V3.42476V3.42388V3.42301V3.42213V3.42125V3.42037V3.41949V3.41861V3.41773V3.41685V3.41597V3.41509V3.41421V3.41333V3.41245V3.41157V3.4107V3.40982V3.40894V3.40806V3.40718V3.4063V3.40542V3.40454V3.40366V3.40278V3.4019V3.40102V3.40014V3.39926V3.39839V3.39751V3.39663V3.39575V3.39487V3.39399V3.39311V3.39223V3.39135V3.39047V3.38959V3.38871V3.38783V3.38695V3.38608V3.3852V3.38432V3.38344V3.38256V3.38168V3.3808V3.37992V3.37904V3.37816V3.37728V3.3764V3.37552V3.37464V3.37376V3.37289V3.37201V3.37113V3.37025V3.36937V3.36849V3.36761V3.36673V3.36585V3.36497V3.36409V3.36321V3.36233V3.36145V3.36058V3.3597V3.35882V3.35794V3.35706V3.35618V3.3553V3.35442V3.35354V3.35266V3.35178V3.3509V3.35002V3.34914V3.34827V3.34739V3.34651V3.34563V3.34475V3.34387V3.34299V3.34211V3.34123V3.34035V3.33947V3.33859V3.33771V3.33683V3.33596V3.33508V3.3342V3.33332V3.33244V3.33156V3.33068V3.3298V3.32892V3.32804V3.32716V3.32628V3.3254V3.32452V3.32364V3.32277V3.32189V3.32101V3.32013V3.31925V3.31837V3.31749V3.31661V3.31573V3.31485V3.31397V3.31309V3.31221V3.31133V3.31046V3.30958V3.3087V3.30782V3.30694V3.30606V3.30518V3.3043V3.30342V3.30254V3.30166V3.30078V3.2999V3.29902V3.29815V3.29727V3.29639V3.29551V3.29463V3.29375V3.29287V3.29199V3.29111V3.29023V3.28935V3.28847V3.28759V3.28671V3.28584V3.28496V3.28408V3.2832V3.28232V3.28144V3.28056V3.27968V3.2788V3.27792V3.27704V3.27616V3.27528V3.2744V3.27352V3.27265V3.27177V3.27089V3.27001V3.26913V3.26825V3.26737V3.26649V3.26561V3.26473V3.26385V3.26297V3.26209V3.26121V3.26034V3.25946V3.25858V3.2577V3.25682V3.25594V3.25506V3.25418V3.2533V3.25242V3.25154V3.25066V3.24978V3.2489V3.24803V3.24715V3.24627V3.24539V3.24451V3.24363V3.24275V3.24187V3.24099V3.24011V3.23923V3.23835V3.23747V3.23659V3.23572V3.23484V3.23396V3.23308V3.2322V3.23132V3.23044V3.22956V3.22868V3.2278V3.22692V3.22604V3.22516V3.22428V3.2234V3.22253V3.22165V3.22077V3.21989V3.21901V3.21813V3.21725V3.21637V3.21549V3.21461V3.21373V3.21285V3.21197V3.21109V3.21022V3.20934V3.20846V3.20758V3.2067V3.20608C32.6847 2.6978 33.0508 2.351 33.437 2.351C33.8741 2.351 34.2418 2.74965 34.2879 3.21137L34.2878 3.21139L34.2887 3.21702C34.4371 4.1571 34.4375 5.24927 34.3876 6.49889L34.3875 6.49889Z" fill="#5077F7" stroke="white" stroke-width="0.2"/>
<path d="M22.7654 39.6687L22.7652 39.6687C17.6431 40.4644 12.769 39.2231 8.28819 36.0388C8.25414 36.0067 8.21001 35.9784 8.16738 35.9541C8.12164 35.9279 8.07013 35.9021 8.02155 35.8778L7.42408 35.5293L7.27369 35.4416V35.6157V36.366V36.3669V36.3678V36.3687V36.3695V36.3704V36.3713V36.3722V36.3731V36.3739V36.3748V36.3757V36.3766V36.3775V36.3783V36.3792V36.3801V36.381V36.3819V36.3827V36.3836V36.3845V36.3854V36.3863V36.3871V36.388V36.3889V36.3898V36.3906V36.3915V36.3924V36.3933V36.3942V36.395V36.3959V36.3968V36.3977V36.3986V36.3994V36.4003V36.4012V36.4021V36.403V36.4038V36.4047V36.4056V36.4065V36.4074V36.4082V36.4091V36.41V36.4109V36.4118V36.4126V36.4135V36.4144V36.4153V36.4161V36.417V36.4179V36.4188V36.4197V36.4205V36.4214V36.4223V36.4232V36.4241V36.4249V36.4258V36.4267V36.4276V36.4285V36.4293V36.4302V36.4311V36.432V36.4329V36.4337V36.4346V36.4355V36.4364V36.4373V36.4381V36.439V36.4399V36.4408V36.4416V36.4425V36.4434V36.4443V36.4452V36.446V36.4469V36.4478V36.4487V36.4496V36.4504V36.4513V36.4522V36.4531V36.454V36.4548V36.4557V36.4566V36.4575V36.4584V36.4592V36.4601V36.461V36.4619V36.4628V36.4636V36.4645V36.4654V36.4663V36.4671V36.468V36.4689V36.4698V36.4707V36.4715V36.4724V36.4733V36.4742V36.4751V36.4759V36.4768V36.4777V36.4786V36.4795V36.4803V36.4812V36.4821V36.483V36.4839V36.4847V36.4856V36.4865V36.4874V36.4883V36.4891V36.49V36.4909V36.4918V36.4926V36.4935V36.4944V36.4953V36.4962V36.497V36.4979V36.4988V36.4997V36.5006V36.5014V36.5023V36.5032V36.5041V36.505V36.5058V36.5067V36.5076V36.5085V36.5094V36.5102V36.5111V36.512V36.5129V36.5138V36.5146V36.5155V36.5164V36.5173V36.5181V36.519V36.5199V36.5208V36.5217V36.5225V36.5234V36.5243V36.5252V36.5261V36.5269V36.5278V36.5287V36.5296V36.5305V36.5313V36.5322V36.5331V36.534V36.5349V36.5357V36.5366V36.5375V36.5384V36.5393V36.5401V36.541V36.5419V36.5428V36.5436V36.5445V36.5454V36.5463V36.5472V36.548V36.5489V36.5498V36.5507V36.5516V36.5524V36.5533V36.5542V36.5551V36.556V36.5568V36.5577V36.5586V36.5595V36.5604V36.5612V36.5621V36.563V36.5639V36.5648V36.5656V36.5665V36.5674V36.5683V36.5691V36.57V36.5709V36.5718V36.5727V36.5735V36.5744V36.5753V36.5762V36.5771V36.5779V36.5788V36.5797V36.5806V36.5815V36.5823V36.5832V36.5841V36.585V36.5859V36.5867V36.5876V36.5885V36.5894V36.5903V36.5911V36.592V36.5929V36.5938V36.5946V36.5955V36.5964V36.5973V36.5982V36.599V36.5999V36.6008V36.6017V36.6026V36.6034V36.6043V36.6052V36.6061V36.607V36.6078V36.6087V36.6096V36.6105V36.6114V36.6122V36.6131V36.614V36.6149V36.6158V36.6166V36.6175V36.6184V36.6193V36.6201V36.621V36.6219V36.6228V36.6237V36.6245V36.6254V36.6263V36.6272V36.6281V36.6289V36.6298V36.6307V36.6316V36.6325V36.6333V36.6342V36.6351V36.636V36.6369V36.6377V36.6386V36.6395V36.6404V36.6413V36.6421V36.643V36.6439V36.6448V36.6456V36.6465V36.6474V36.6483V36.6492V36.65V36.6509V36.6518V36.6527V36.6536V36.6544V36.6553V36.6562V36.6571V36.658V36.6588V36.6597V36.6606V36.6615V36.6624V36.6632V36.6641V36.665V36.6659V36.6667V36.6676V36.6685V36.6694V36.6703V36.6711V36.672V36.6729V36.6738V36.6747V36.6755V36.6764V36.6773V36.6782V36.6791V36.6799V36.6808V36.6817V36.6826V36.6835V36.6843V36.6852V36.6861V36.687V36.6879V36.6887V36.6896V36.6905V36.6914V36.6922V36.6931V36.694V36.6949V36.6958V36.6966V36.6975V36.6984V36.6993V36.7002V36.701V36.7019V36.7028V36.7037V36.7046V36.7054V36.7063V36.7072V36.7081V36.709V36.7098V36.7107V36.7116V36.7125V36.7134V36.7142V36.7151V36.716V36.7169V36.7177V36.7186V36.7195V36.7204V36.7213V36.7221V36.723V36.7239V36.7248V36.7257V36.7265V36.7274V36.7283V36.7292V36.7301V36.7309V36.7318V36.7327V36.7336V36.7345V36.7353V36.7362V36.7371V36.738V36.7389V36.7397V36.7406V36.7415V36.7424V36.7432V36.7441V36.745V36.7459V36.7468V36.7476V36.7485V36.7494V36.7503V36.7512V36.752V36.7529V36.7538V36.7547V36.7556V36.7564V36.7573V36.7582V36.7591V36.76V36.7608V36.7617V36.7626V36.7635V36.7644V36.7652V36.7661V36.767V36.7679V36.7687V36.7696V36.7705V36.7714V36.7723V36.7731V36.774V36.7749V36.7758V36.7767V36.7775V36.7784V36.7793V36.7802V36.7811V36.7819V36.7828V36.7837V36.7846V36.7855V36.7863V36.7872V36.7881V36.789V36.7899V36.7907V36.7916V36.7925V36.7934V36.7942V36.7951V36.796V36.7969V36.7978V36.7986V36.7995V36.8004V36.8013V36.8022V36.803V36.8039V36.8048V36.8057V36.8066V36.8074V36.8083V36.8092V36.8101V36.811V36.8111C7.22579 37.267 6.86203 37.6166 6.47329 37.6166C6.03077 37.6166 5.66925 37.2624 5.62264 36.8089C5.57289 35.7124 5.57291 34.5657 5.62278 33.3689L5.62287 33.3689V33.3647C5.62287 33.1821 5.66813 33.042 5.75248 32.9313C5.83769 32.8195 5.96962 32.7287 6.15825 32.658L6.15828 32.6581L6.16253 32.6563C6.46672 32.5259 6.77835 32.6056 7.11327 32.8442C7.23723 32.9434 7.37354 33.055 7.5104 33.1669L7.51045 33.167L7.51105 33.1675C7.64819 33.2797 7.78586 33.3923 7.91115 33.4925C7.97942 33.548 8.04808 33.6039 8.1171 33.66C8.85615 34.2612 9.63662 34.8961 10.4174 35.4473L10.4173 35.4474L10.421 35.4497C12.5348 36.8086 15 37.7139 17.7153 38.0659C25.2611 39.0719 32.6549 35.1482 36.1255 28.358C38.4387 23.832 38.7908 19.0524 37.2321 14.2255L37.2247 14.2025L37.2076 14.1855C37.2025 14.1804 37.1963 14.1682 37.1817 14.1245C37.1811 14.1227 37.1805 14.1207 37.1798 14.1186C37.1706 14.0907 37.1555 14.0449 37.1254 14.0058C37.1016 13.9361 37.0778 13.8768 37.055 13.8197L37.0547 13.8189C37.0299 13.757 37.0062 13.6977 36.9825 13.627C36.9141 13.3739 36.9389 13.1509 37.032 12.9702C37.1256 12.7884 37.2929 12.6408 37.5242 12.5483C37.7377 12.4629 37.9566 12.5014 38.1963 12.5967C38.3645 12.6823 38.4953 12.8541 38.5395 13.0753L38.539 13.0754L38.542 13.0851L38.742 13.7351C39.092 14.8851 39.4399 16.1286 39.5888 17.32L39.5886 17.32L39.5898 17.3262C40.2861 21.0065 39.789 24.587 38.2467 27.9203C35.1591 34.5935 29.9347 38.5734 22.7654 39.6687Z" fill="#5077F7" stroke="white" stroke-width="0.2"/>
</svg>
