<svg width="19" height="22" viewBox="0 0 19 22" fill="none" xmlns="http://www.w3.org/2000/svg">
<path fill-rule="evenodd" clip-rule="evenodd" d="M14.1615 0L18.8239 4.65394C19.0588 4.88837 19.059 5.26868 18.8244 5.50339C18.5899 5.7381 18.2093 5.73833 17.9745 5.50391L14.7626 2.29779V18.6149C14.7626 18.9466 14.4935 19.2155 14.1615 19.2155C13.8296 19.2155 13.5605 18.9466 13.5605 18.6149V2.29779L10.3486 5.50391C10.1138 5.73833 9.73322 5.7381 9.49865 5.50339C9.26408 5.26868 9.26431 4.88837 9.49917 4.65394L14.1615 0Z" fill="#2D7BF5"/>
<path fill-rule="evenodd" clip-rule="evenodd" d="M4.83882 22L0.176433 17.3461C-0.0584188 17.1116 -0.0586486 16.7313 0.17592 16.4966C0.410488 16.2619 0.791029 16.2617 1.02588 16.4961L4.2378 19.7022L4.23781 3.3851C4.23781 3.05337 4.50689 2.78445 4.83882 2.78445C5.17075 2.78445 5.43983 3.05337 5.43983 3.3851L5.43983 19.7022L8.65175 16.4961C8.88661 16.2617 9.26715 16.2619 9.50171 16.4966C9.73628 16.7313 9.73605 17.1116 9.5012 17.3461L4.83882 22Z" fill="#89B9F6"/>
</svg>
