<svg width="16" height="19" viewBox="0 0 16 19" fill="none" xmlns="http://www.w3.org/2000/svg">
<path d="M15.5938 12.9766C15.8047 13.2109 15.9102 13.4688 15.9102 13.75C15.9102 14.0547 15.8047 14.3242 15.5938 14.5586C15.3828 14.7695 15.1133 14.875 14.7852 14.875H1.28516C1.07422 14.875 0.875 14.8281 0.6875 14.7344C0.523438 14.6172 0.394531 14.4766 0.300781 14.3125C0.207031 14.125 0.160156 13.9375 0.160156 13.75C0.160156 13.4688 0.265625 13.2109 0.476562 12.9766C0.5 12.9531 0.535156 12.9062 0.582031 12.8359C0.933594 12.4844 1.20312 12.168 1.39062 11.8867C1.60156 11.6055 1.82422 11.0781 2.05859 10.3047C2.29297 9.50781 2.41016 8.59375 2.41016 7.5625C2.41016 6.20312 2.83203 5.01953 3.67578 4.01172C4.51953 3.00391 5.59766 2.37109 6.91016 2.11328V1.375C6.91016 1.07031 7.01562 0.8125 7.22656 0.601562C7.46094 0.367187 7.73047 0.25 8.03516 0.25C8.33984 0.25 8.59766 0.367187 8.80859 0.601562C9.04297 0.8125 9.16016 1.07031 9.16016 1.375V2.11328C10.0273 2.27734 10.8008 2.61719 11.4805 3.13281C12.1602 3.64844 12.6875 4.29297 13.0625 5.06641C13.4609 5.83984 13.6602 6.67188 13.6602 7.5625C13.6602 8.59375 13.7773 9.50781 14.0117 10.3047C14.2461 11.0781 14.457 11.6055 14.6445 11.8867C14.8555 12.168 15.1367 12.4844 15.4883 12.8359C15.5352 12.9062 15.5703 12.9531 15.5938 12.9766ZM2.55078 13.1875H13.5195C12.4883 11.8047 11.9727 9.94141 11.9727 7.59766C11.9727 7.57422 11.9727 7.5625 11.9727 7.5625C11.9727 6.48438 11.5859 5.55859 10.8125 4.78516C10.0391 4.01172 9.11328 3.625 8.03516 3.625C6.95703 3.625 6.03125 4.01172 5.25781 4.78516C4.48438 5.55859 4.09766 6.48438 4.09766 7.5625C4.09766 7.5625 4.09766 7.57422 4.09766 7.59766C4.09766 9.94141 3.58203 11.8047 2.55078 13.1875ZM9.61719 17.582C9.17188 18.0273 8.64453 18.25 8.03516 18.25C7.42578 18.25 6.89844 18.0273 6.45312 17.582C6.00781 17.1602 5.78516 16.6328 5.78516 16H10.2852C10.2852 16.6328 10.0625 17.1602 9.61719 17.582Z" fill="#5077F7"/>
</svg>
