<svg width="24" height="24" viewBox="0 0 24 24" fill="none" xmlns="http://www.w3.org/2000/svg">
<path d="M18.1571 2.65982L12.1557 0.0333942C12.0537 -0.0111314 11.9377 -0.0111314 11.8357 0.0333942L5.83429 2.65982C5.68856 2.72341 5.59432 2.86724 5.59424 3.02622V9.30627C5.59641 10.7176 6.27476 12.0425 7.41865 12.8695L11.5664 15.8603C11.8226 16.0457 12.1688 16.0457 12.425 15.8603L16.5727 12.8699C17.7166 12.0429 18.395 10.718 18.3972 9.30667V3.02622C18.3971 2.86724 18.3028 2.72341 18.1571 2.65982ZM17.597 9.30667C17.5951 10.461 17.0403 11.5447 16.1046 12.2211L11.9957 15.1839L7.88676 12.2211C6.95113 11.5447 6.39625 10.461 6.39442 9.30667V3.28782L11.9957 0.836601L17.597 3.28782V9.30667Z" fill="#F6C358"/>
<path d="M11.8356 1.77998L7.43464 3.70639C7.2889 3.76998 7.19466 3.91382 7.19458 4.0728V9.30684C7.19581 10.2043 7.62727 11.0468 8.35484 11.5725L11.7616 14.0293C11.9014 14.1301 12.09 14.1301 12.2297 14.0293L15.6365 11.5725C16.3641 11.0468 16.7955 10.2043 16.7968 9.30684V4.0728C16.7967 3.91382 16.7025 3.76998 16.5567 3.70639L12.1557 1.77998C12.0537 1.73545 11.9377 1.73545 11.8356 1.77998ZM15.9966 4.334V9.30684C15.9954 9.94726 15.6875 10.5484 15.1684 10.9237L11.9957 13.2117L8.82295 10.9237C8.30389 10.5484 7.99599 9.94726 7.99476 9.30684V4.334L11.9957 2.58318L15.9966 4.334Z" fill="#F6C358"/>
<path d="M3.30778 13.2799L2.44238 11.2583C2.25835 10.8415 1.86589 10.5545 1.41285 10.5055C0.959799 10.4564 0.514992 10.6527 0.245979 11.0205C-0.0230338 11.3882 -0.075383 11.8715 0.108651 12.2883L1.67661 15.7367C1.88814 16.2036 2.18241 16.6283 2.54521 16.9903L5.01097 19.456C4.8721 19.6031 4.79456 19.7977 4.79412 20V23.2C4.79412 23.6418 5.15237 24 5.5943 24H9.99531C10.4372 24 10.7955 23.6418 10.7955 23.2V20C10.7955 19.5581 10.4372 19.2 9.99531 19.2V18.4556C10.0076 17.5082 9.69843 16.5847 9.11831 15.8355C8.77819 15.3883 8.31466 15.0503 7.7848 14.8631C6.94215 14.5092 6.16718 14.0119 5.49428 13.3935C4.86968 12.8792 3.98234 12.8331 3.30778 13.2799ZM9.99531 23.2H5.5943V20H9.99531V23.2ZM8.49376 16.3351C8.96012 16.9426 9.20729 17.6899 9.19512 18.4556V19.2H5.88677L3.11094 16.4247C2.81612 16.1304 2.5769 15.7853 2.40477 15.4059L0.836817 11.9575C0.769903 11.8103 0.782356 11.6392 0.869879 11.5033C0.957402 11.3673 1.10801 11.2851 1.26972 11.2851C1.46002 11.2849 1.632 11.3985 1.70662 11.5735L2.60162 13.6603C2.83928 14.2171 3.18185 14.7229 3.61065 15.1503L5.43827 16.9779C5.53872 17.0819 5.68748 17.1236 5.82736 17.087C5.96724 17.0504 6.07649 16.9412 6.1131 16.8013C6.14971 16.6615 6.108 16.5128 6.004 16.4123L4.17638 14.5847C3.9926 14.4014 3.82736 14.2005 3.68307 13.9847C4.06729 13.6891 4.60481 13.6981 4.97896 14.0063C5.72687 14.6925 6.59129 15.2398 7.53154 15.6223C7.91464 15.7616 8.24895 16.0093 8.49376 16.3351Z" fill="#5077F7"/>
<path d="M8.79506 21.2002H8.39496C8.174 21.2002 7.99487 21.3793 7.99487 21.6002C7.99487 21.8211 8.174 22.0002 8.39496 22.0002H8.79506C9.01602 22.0002 9.19515 21.8211 9.19515 21.6002C9.19515 21.3793 9.01602 21.2002 8.79506 21.2002Z" fill="#F6C358"/>
<path d="M22.3149 15.7369L23.8829 12.2885C24.0757 11.8703 24.028 11.3807 23.7581 11.0075C23.4882 10.6344 23.0381 10.4357 22.5805 10.4877C22.1228 10.5397 21.7288 10.8343 21.5496 11.2585L20.6862 13.2725C20.0093 12.8279 19.1215 12.8766 18.4973 13.3925C17.8244 14.0109 17.0494 14.5082 16.2067 14.8621C15.6769 15.0493 15.2133 15.3873 14.8732 15.8345C14.2928 16.584 13.9837 17.508 13.9962 18.4558V19.2002C13.5543 19.2002 13.196 19.5583 13.196 20.0002V23.2002C13.196 23.642 13.5543 24.0002 13.9962 24.0002H18.3972C18.8392 24.0002 19.1974 23.642 19.1974 23.2002V20.0002C19.197 19.7979 19.1194 19.6033 18.9806 19.4562L21.4463 16.9905C21.8091 16.6285 22.1034 16.2038 22.3149 15.7369ZM18.3972 23.2002H13.9962V20.0002H18.3972V23.2002ZM18.1048 19.2002H14.7964V18.4558C14.7843 17.6902 15.0315 16.9431 15.4978 16.3357C15.742 16.0101 16.0756 15.7623 16.458 15.6225C17.3984 15.2401 18.263 14.6928 19.011 14.0065C19.3847 13.6959 19.9237 13.6855 20.3093 13.9813C20.1645 14.1986 19.9985 14.401 19.8136 14.5853L17.9859 16.4129C17.8343 16.5699 17.8365 16.8194 17.9908 16.9737C18.1451 17.128 18.3947 17.1301 18.5517 16.9785L20.3793 15.1509C20.8081 14.7235 21.1507 14.2177 21.3883 13.6609L22.2833 11.5737C22.3581 11.3989 22.53 11.2856 22.7202 11.2857C22.8819 11.2857 23.0325 11.3679 23.1201 11.5039C23.2076 11.6398 23.22 11.8109 23.1531 11.9581L21.5852 15.4065C21.413 15.7859 21.1738 16.131 20.879 16.4253L18.1048 19.2002Z" fill="#5077F7"/>
<path d="M15.5966 21.2002H15.1965C14.9755 21.2002 14.7964 21.3793 14.7964 21.6002C14.7964 21.8211 14.9755 22.0002 15.1965 22.0002H15.5966C15.8175 22.0002 15.9967 21.8211 15.9967 21.6002C15.9967 21.3793 15.8175 21.2002 15.5966 21.2002Z" fill="#F6C358"/>
<path d="M9.83524 8.47989C9.65847 8.34734 9.40769 8.38316 9.27511 8.55989C9.14253 8.73662 9.17836 8.98734 9.35513 9.11989L10.9555 10.3199C11.0247 10.3718 11.109 10.3999 11.1955 10.3999C11.2182 10.3998 11.2408 10.398 11.2632 10.3943C11.3715 10.3757 11.4675 10.3134 11.5284 10.2219L14.7292 5.42186C14.8085 5.30296 14.8183 5.15078 14.755 5.02265C14.6917 4.89451 14.5648 4.80988 14.4221 4.80064C14.2795 4.79141 14.1427 4.85896 14.0634 4.97786L11.0971 9.4263L9.83524 8.47989Z" fill="#F6C358"/>
</svg>
