<svg width="22" height="24" viewBox="0 0 22 24" fill="none" xmlns="http://www.w3.org/2000/svg">
<path d="M8.135 10.5938C7.871 10.5938 7.65674 10.8038 7.65674 11.0625C7.65674 11.3213 7.871 11.5312 8.135 11.5312C8.399 11.5312 8.61326 11.3213 8.61326 11.0625C8.61326 10.8038 8.399 10.5938 8.135 10.5938Z" fill="#F6C358"/>
<path d="M6.21483 21.0469C5.95083 21.0469 5.73657 21.2569 5.73657 21.5156C5.73657 21.7744 5.95083 21.9844 6.21483 21.9844C6.47883 21.9844 6.69309 21.7744 6.69309 21.5156C6.69309 21.2569 6.47883 21.0469 6.21483 21.0469Z" fill="#F6C358"/>
<path d="M21.5217 23.0625H20.087V3.28125C20.087 2.50584 19.4433 1.875 18.6522 1.875H18.1739V1.40625C18.1739 0.630844 17.5303 0 16.7391 0H5.26087C4.46973 0 3.82609 0.630844 3.82609 1.40625V1.875H3.34783C2.55669 1.875 1.91304 2.50584 1.91304 3.28125V23.0625H0.478261C0.214165 23.0625 0 23.2724 0 23.5312C0 23.7901 0.214165 24 0.478261 24H21.5217C21.7858 24 22 23.7901 22 23.5312C22 23.2724 21.7858 23.0625 21.5217 23.0625ZM3.82609 23.0625H2.86957V3.28125C2.86957 3.02278 3.08411 2.8125 3.34783 2.8125H3.82609V23.0625ZM17.2174 23.0625H4.78261V18.0548H17.2174V23.0625ZM17.2174 17.1173H4.78261V6.70312H17.2174V17.1173ZM17.2174 5.76562H4.78261V1.40625C4.78261 1.14778 4.99716 0.9375 5.26087 0.9375H16.7391C17.0028 0.9375 17.2174 1.14778 17.2174 1.40625V5.76562ZM19.1304 23.0625H18.1739V2.8125H18.6522C18.9159 2.8125 19.1304 3.02278 19.1304 3.28125V23.0625Z" fill="#5289F4"/>
<path d="M11.9545 10.5938H10.0415C9.7774 10.5938 9.56323 10.8036 9.56323 11.0625C9.56323 11.3214 9.7774 11.5312 10.0415 11.5312H11.9545C12.2186 11.5312 12.4328 11.3214 12.4328 11.0625C12.4328 10.8036 12.2186 10.5938 11.9545 10.5938Z" fill="#F6C358"/>
<path d="M15.7801 7.78125H6.21483C5.95074 7.78125 5.73657 7.99111 5.73657 8.25V13.875C5.73657 14.1339 5.95074 14.3438 6.21483 14.3438H15.7801C16.0441 14.3438 16.2583 14.1339 16.2583 13.875V8.25C16.2583 7.99111 16.0441 7.78125 15.7801 7.78125ZM13.3887 13.4062H6.69309V8.71875H13.3887V13.4062ZM15.3018 13.4062H14.3453V12.4688H15.3018V13.4062ZM15.3018 11.5312H14.3453V10.5647H15.3018V11.5312ZM15.3018 9.62719H14.3453V8.71875H15.3018V9.62719Z" fill="#F6C358"/>
<path d="M13.8741 15.2812H8.135C7.8709 15.2812 7.65674 15.4911 7.65674 15.75C7.65674 16.0089 7.8709 16.2188 8.135 16.2188H13.8741C14.1382 16.2188 14.3524 16.0089 14.3524 15.75C14.3524 15.4911 14.1382 15.2812 13.8741 15.2812Z" fill="#F6C358"/>
<path d="M14.8255 1.875H7.17333C6.90923 1.875 6.69507 2.08486 6.69507 2.34375V4.21875C6.69507 4.47764 6.90923 4.6875 7.17333 4.6875H14.8255C15.0896 4.6875 15.3038 4.47764 15.3038 4.21875V2.34375C15.3038 2.08486 15.0896 1.875 14.8255 1.875ZM14.3472 3.75H7.65159V2.8125H14.3472V3.75Z" fill="#F6C358"/>
</svg>
