<svg width="40" height="40" viewBox="0 0 40 40" fill="none" xmlns="http://www.w3.org/2000/svg">
<mask id="path-1-inside-1_100_461" fill="white">
<path d="M16.7742 9.67747C16.7742 8.61037 17.6426 7.74198 18.7097 7.74198H21.9355V6.45166H18.7097C16.931 6.45166 15.4839 7.89876 15.4839 9.67747H14.6865L0 17.0207V20.6452H1.29032V23.2259H2.58065V33.5484H1.29032V36.1291H0V40H32.2581V36.1291H30.9677V33.5484H29.6774V23.2259H30.9677V20.6452H32.2581V17.0207L17.5716 9.67747H16.7742ZM2.58065 34.8388H6.45161V36.1291H2.58065V34.8388ZM10.3226 23.2259V33.5484H9.03226V36.1291H7.74194V33.5484H6.45161V23.2259H7.74194V20.6452H9.03226V23.2259H10.3226ZM18.0645 23.2259V33.5484H16.7742V36.1291H15.4839V33.5484H14.1935V23.2259H15.4839V20.6452H16.7742V23.2259H18.0645ZM25.8064 23.2259V33.5484H24.5161V36.1291H23.2258V33.5484H21.9355V23.2259H23.2258V20.6452H24.5161V23.2259H25.8064ZM29.6774 34.8388V36.1291H25.8064V34.8388H29.6774ZM27.0968 33.5484V23.2259H28.3871V33.5484H27.0968ZM21.9355 21.9355H18.0645V20.6452H21.9355V21.9355ZM20.6452 23.2259V33.5484H19.3548V23.2259H20.6452ZM21.9355 34.8388V36.1291H18.0645V34.8388H21.9355ZM14.1935 21.9355H10.3226V20.6452H14.1935V21.9355ZM12.9032 23.2259V33.5484H11.6129V23.2259H12.9032ZM14.1935 34.8388V36.1291H10.3226V34.8388H14.1935ZM6.45161 21.9355H2.58065V20.6452H6.45161V21.9355ZM5.16129 23.2259V33.5484H3.87097V23.2259H5.16129ZM30.9677 37.4194V38.7097H1.29032V37.4194H30.9677ZM29.6774 21.9355H25.8064V20.6452H29.6774V21.9355ZM30.9677 19.3549H24.5161H23.2258H16.7742H15.4839H9.03226H7.74194H1.29032V17.8181L14.991 10.9678H15.4839V15.4839H16.7742V10.9678H17.2671L30.9677 17.8181V19.3549Z"/>
</mask>
<path d="M16.7742 9.67747C16.7742 8.61037 17.6426 7.74198 18.7097 7.74198H21.9355V6.45166H18.7097C16.931 6.45166 15.4839 7.89876 15.4839 9.67747H14.6865L0 17.0207V20.6452H1.29032V23.2259H2.58065V33.5484H1.29032V36.1291H0V40H32.2581V36.1291H30.9677V33.5484H29.6774V23.2259H30.9677V20.6452H32.2581V17.0207L17.5716 9.67747H16.7742ZM2.58065 34.8388H6.45161V36.1291H2.58065V34.8388ZM10.3226 23.2259V33.5484H9.03226V36.1291H7.74194V33.5484H6.45161V23.2259H7.74194V20.6452H9.03226V23.2259H10.3226ZM18.0645 23.2259V33.5484H16.7742V36.1291H15.4839V33.5484H14.1935V23.2259H15.4839V20.6452H16.7742V23.2259H18.0645ZM25.8064 23.2259V33.5484H24.5161V36.1291H23.2258V33.5484H21.9355V23.2259H23.2258V20.6452H24.5161V23.2259H25.8064ZM29.6774 34.8388V36.1291H25.8064V34.8388H29.6774ZM27.0968 33.5484V23.2259H28.3871V33.5484H27.0968ZM21.9355 21.9355H18.0645V20.6452H21.9355V21.9355ZM20.6452 23.2259V33.5484H19.3548V23.2259H20.6452ZM21.9355 34.8388V36.1291H18.0645V34.8388H21.9355ZM14.1935 21.9355H10.3226V20.6452H14.1935V21.9355ZM12.9032 23.2259V33.5484H11.6129V23.2259H12.9032ZM14.1935 34.8388V36.1291H10.3226V34.8388H14.1935ZM6.45161 21.9355H2.58065V20.6452H6.45161V21.9355ZM5.16129 23.2259V33.5484H3.87097V23.2259H5.16129ZM30.9677 37.4194V38.7097H1.29032V37.4194H30.9677ZM29.6774 21.9355H25.8064V20.6452H29.6774V21.9355ZM30.9677 19.3549H24.5161H23.2258H16.7742H15.4839H9.03226H7.74194H1.29032V17.8181L14.991 10.9678H15.4839V15.4839H16.7742V10.9678H17.2671L30.9677 17.8181V19.3549Z" fill="#5077F7" stroke="white" stroke-width="0.2" mask="url(#path-1-inside-1_100_461)"/>
<path d="M5.21016 18.0147V16.8244H27.0456V18.0147H5.21016Z" fill="#F6C358" stroke="white" stroke-width="0.1"/>
<path d="M25.8547 7.09677C25.8547 3.21149 29.0162 0.05 32.9015 0.05C36.7867 0.05 39.9482 3.21149 39.9482 7.09677C39.9482 10.9821 36.7867 14.1435 32.9015 14.1435C29.0162 14.1435 25.8547 10.9821 25.8547 7.09677ZM27.045 7.09677C27.045 10.3263 29.6719 12.9532 32.9015 12.9532C36.131 12.9532 38.7579 10.3263 38.7579 7.09677C38.7579 3.86722 36.131 1.24032 32.9015 1.24032C29.6719 1.24032 27.045 3.86722 27.045 7.09677Z" fill="#F6C358" stroke="white" stroke-width="0.1"/>
<path d="M33.55 3.92089C34.5728 3.92089 35.4082 4.7399 35.4349 5.75637H34.2434C34.2178 5.39594 33.917 5.11121 33.55 5.11121H32.2597C31.876 5.11121 31.5645 5.42263 31.5645 5.80637C31.5645 6.19012 31.876 6.50153 32.2597 6.50153H33.55C34.5895 6.50153 35.4355 7.34754 35.4355 8.38702C35.4355 9.4265 34.5895 10.2725 33.55 10.2725H33.5V10.3225V11.5628H32.3097V10.3225V10.2725H32.2597C31.2369 10.2725 30.4015 9.45349 30.3749 8.43702H31.5663C31.592 8.79745 31.8928 9.08218 32.2597 9.08218H33.55C33.9338 9.08218 34.2452 8.77076 34.2452 8.38702C34.2452 8.00327 33.9338 7.69186 33.55 7.69186H32.2597C31.2202 7.69186 30.3742 6.84586 30.3742 5.80637C30.3742 4.76689 31.2202 3.92089 32.2597 3.92089H32.3097V3.87089V2.63057H33.5V3.87089V3.92089H33.55Z" fill="#F6C358" stroke="white" stroke-width="0.1"/>
<path d="M23.2766 7.69198V6.50166H24.4669V7.69198H23.2766Z" fill="#5077F7" stroke="white" stroke-width="0.1"/>
<path d="M34.192 27.1469C35.2867 27.1469 36.1775 26.2562 36.1775 25.1614V14.8889H37.3678V25.1614C37.3678 26.9125 35.9431 28.3373 34.192 28.3373H33.5969V27.1469H34.192Z" fill="#5077F7" stroke="white" stroke-width="0.1"/>
<path d="M31.0188 28.337V27.1467H32.2091V28.337H31.0188Z" fill="#5077F7" stroke="white" stroke-width="0.1"/>
</svg>
