<svg width="15" height="12" viewBox="0 0 15 12" fill="none" xmlns="http://www.w3.org/2000/svg">
<path d="M14.0898 6.21484L9.49609 10.8086C9.29557 11.0091 9.05859 11.0547 8.78516 10.9453C8.51172 10.8359 8.375 10.6354 8.375 10.3438V7.71875H4.65625C4.47396 7.71875 4.31901 7.65495 4.19141 7.52734C4.0638 7.39974 4 7.24479 4 7.0625V4.4375C4 4.25521 4.0638 4.10026 4.19141 3.97266C4.31901 3.84505 4.47396 3.78125 4.65625 3.78125H8.375V1.15625C8.375 0.864583 8.51172 0.664062 8.78516 0.554688C9.05859 0.445312 9.29557 0.490885 9.49609 0.691406L14.0898 5.28516C14.2174 5.41276 14.2812 5.56771 14.2812 5.75C14.2812 5.93229 14.2174 6.08724 14.0898 6.21484ZM5.75 10.6719C5.75 10.8906 5.64062 11 5.42188 11H3.125C2.39583 11 1.77604 10.7448 1.26562 10.2344C0.755208 9.72396 0.5 9.10417 0.5 8.375V3.125C0.5 2.39583 0.755208 1.77604 1.26562 1.26562C1.77604 0.755208 2.39583 0.5 3.125 0.5H5.42188C5.64062 0.5 5.75 0.609375 5.75 0.828125V1.92188C5.75 2.14062 5.64062 2.25 5.42188 2.25H3.125C2.88802 2.25 2.67839 2.34115 2.49609 2.52344C2.33203 2.6875 2.25 2.88802 2.25 3.125V8.375C2.25 8.61198 2.33203 8.82161 2.49609 9.00391C2.67839 9.16797 2.88802 9.25 3.125 9.25H5.42188C5.64062 9.25 5.75 9.35938 5.75 9.57812V10.6719Z" fill="#5077F7"/>
</svg>
